<?xml version="1.0" encoding="UTF-8"?>
<svg height="600" width="800" xmlns="http://www.w3.org/2000/svg" xmlns:xlink="http://www.w3.org/1999/xlink">
    <g id="Notes" font-family="'LucidaGrande', 'Lucida Grande', sans-serif" font-size="13">
        <rect fill="white" height="600.0" width="800.0" x="0.0" y="0.0" />
        <g font-size="13">
            <text x="18.0" y="176.0">Small</text>
            <text x="18.0" y="376.0">Medium</text>
            <text x="18.0" y="576.0">Large</text>
        </g>
        <g font-size="9">
            <text x="250.0" y="30.0">Ultralight</text>
            <text x="450.0" y="30.0">Regular</text>
            <text x="650.0" y="30.0">Black</text>
            <text id="template-version" fill="#505050" text-anchor="end" x="785.0" y="575.0">Template v.3.0</text>
            <a href="https://github.com/swhitty/SwiftDraw">
                <text fill="#505050" text-anchor="end" x="785.0" y="590.0">https://github.com/swhitty/SwiftDraw</text>
            </a>
        </g>
    </g>
    <g id="Guides" stroke="rgb(39, 170, 225)" stroke-width="0.5">
        <path id="Capline-S" d="M18,76 l800,0" />
        <path id="H-reference" d="M85,145.755 L87.685,145.755 L113.369,79.287 L114.052,79.287 L114.052,76 L112.148,76 L85,145.755 Z M95.693,121.536 L130.996,121.536 L130.263,119.313 L96.474,119.313 L95.693,121.536 Z M139.15,145.755 L141.787,145.755 L114.638,76 L113.466,76 L113.466,79.287 L139.15,145.755 Z" stroke="none" />
        <path id="Baseline-S" d="M18,146 l800,0" />
        <path id="left-margin-Ultralight-S" d="M221,56 l0,110" />
        <path id="right-margin-Ultralight-S" d="M309,56 l0,110" />
        <path id="left-margin-Regular-S" d="M421,56 l0,110" />
        <path id="right-margin-Regular-S" d="M509,56 l0,110" />
        <path id="left-margin-Black-S" d="M621,56 l0,110" />
        <path id="right-margin-Black-S" d="M709,56 l0,110" />
        <path id="Capline-M" d="M18,276 l800,0" />
        <path id="Baseline-M" d="M18,346 l800,0" />
        <path id="Capline-L" d="M18,476 l800,0" />
        <path id="Baseline-L" d="M18,546 l800,0" />
    </g>
    <g id="Symbols">
        <g id="Ultralight-S">
            <path d="M288.333,76 C290.328,76 291.971,77.501 292.196,79.435 L292.222,79.889 L292.222,142.111 C292.222,144.259 290.481,146 288.333,146 C286.339,146 284.695,144.499 284.471,142.565 L284.444,142.111 L284.444,122.667 L280.556,122.667 C278.561,122.667 276.917,121.165 276.693,119.231 L276.667,118.778 L276.667,95.444 C276.667,86.853 282.5,76 288.333,76 Z M265,76 C266.994,76 268.638,77.501 268.863,79.435 L268.889,79.889 L268.889,99.333 C268.889,106.581 263.933,112.67 257.225,114.398 L257.222,142.111 C257.222,144.259 255.481,146 253.333,146 C251.339,146 249.695,144.499 249.471,142.565 L249.444,142.111 L249.445,114.399 C242.984,112.737 238.147,107.027 237.798,100.134 L237.778,99.333 L237.778,79.889 C237.778,77.741 239.519,76 241.667,76 C243.661,76 245.305,77.501 245.529,79.435 L245.556,79.889 L245.556,99.333 C245.556,102.212 247.12,104.726 249.444,106.07 L249.444,79.889 C249.444,77.741 251.186,76 253.333,76 C255.328,76 256.971,77.501 257.196,79.435 L257.222,79.889 L257.226,106.068 C259.37,104.826 260.866,102.59 261.084,99.99 L261.111,99.333 L261.111,79.889 C261.111,77.741 262.852,76 265,76 Z" />
        </g>
        <g id="Regular-S">
            <path d="M488.333,76 C490.328,76 491.971,77.501 492.196,79.435 L492.222,79.889 L492.222,142.111 C492.222,144.259 490.481,146 488.333,146 C486.339,146 484.695,144.499 484.471,142.565 L484.444,142.111 L484.444,122.667 L480.556,122.667 C478.561,122.667 476.917,121.165 476.693,119.231 L476.667,118.778 L476.667,95.444 C476.667,86.853 482.5,76 488.333,76 Z M465,76 C466.994,76 468.638,77.501 468.863,79.435 L468.889,79.889 L468.889,99.333 C468.889,106.581 463.933,112.67 457.225,114.398 L457.222,142.111 C457.222,144.259 455.481,146 453.333,146 C451.339,146 449.695,144.499 449.471,142.565 L449.444,142.111 L449.445,114.399 C442.984,112.737 438.147,107.027 437.798,100.134 L437.778,99.333 L437.778,79.889 C437.778,77.741 439.519,76 441.667,76 C443.661,76 445.305,77.501 445.529,79.435 L445.556,79.889 L445.556,99.333 C445.556,102.212 447.12,104.726 449.444,106.07 L449.444,79.889 C449.444,77.741 451.186,76 453.333,76 C455.328,76 456.971,77.501 457.196,79.435 L457.222,79.889 L457.226,106.068 C459.37,104.826 460.866,102.59 461.084,99.99 L461.111,99.333 L461.111,79.889 C461.111,77.741 462.852,76 465,76 Z" />
        </g>
        <g id="Black-S">
            <path d="M688.333,76 C690.328,76 691.971,77.501 692.196,79.435 L692.222,79.889 L692.222,142.111 C692.222,144.259 690.481,146 688.333,146 C686.339,146 684.695,144.499 684.471,142.565 L684.444,142.111 L684.444,122.667 L680.556,122.667 C678.561,122.667 676.917,121.165 676.693,119.231 L676.667,118.778 L676.667,95.444 C676.667,86.853 682.5,76 688.333,76 Z M665,76 C666.994,76 668.638,77.501 668.863,79.435 L668.889,79.889 L668.889,99.333 C668.889,106.581 663.933,112.67 657.225,114.398 L657.222,142.111 C657.222,144.259 655.481,146 653.333,146 C651.339,146 649.695,144.499 649.471,142.565 L649.444,142.111 L649.445,114.399 C642.984,112.737 638.147,107.027 637.798,100.134 L637.778,99.333 L637.778,79.889 C637.778,77.741 639.519,76 641.667,76 C643.661,76 645.305,77.501 645.529,79.435 L645.556,79.889 L645.556,99.333 C645.556,102.212 647.12,104.726 649.444,106.07 L649.444,79.889 C649.444,77.741 651.186,76 653.333,76 C655.328,76 656.971,77.501 657.196,79.435 L657.222,79.889 L657.226,106.068 C659.37,104.826 660.866,102.59 661.084,99.99 L661.111,99.333 L661.111,79.889 C661.111,77.741 662.852,76 665,76 Z" />
        </g>
    </g>
</svg>