<?xml version="1.0" encoding="UTF-8"?>
<svg height="600" width="800" xmlns="http://www.w3.org/2000/svg" xmlns:xlink="http://www.w3.org/1999/xlink">
    <g id="Notes" font-family="'LucidaGrande', 'Lucida Grande', sans-serif" font-size="13">
        <rect fill="white" height="600.0" width="800.0" x="0.0" y="0.0" />
        <g font-size="13">
            <text x="18.0" y="176.0">Small</text>
            <text x="18.0" y="376.0">Medium</text>
            <text x="18.0" y="576.0">Large</text>
        </g>
        <g font-size="9">
            <text x="250.0" y="30.0">Ultralight</text>
            <text x="450.0" y="30.0">Regular</text>
            <text x="650.0" y="30.0">Black</text>
            <text id="template-version" fill="#505050" text-anchor="end" x="785.0" y="575.0">Template v.3.0</text>
            <a href="https://github.com/swhitty/SwiftDraw">
                <text fill="#505050" text-anchor="end" x="785.0" y="590.0">https://github.com/swhitty/SwiftDraw</text>
            </a>
        </g>
    </g>
    <g id="Guides" stroke="rgb(39, 170, 225)" stroke-width="0.5">
        <path id="Capline-S" d="M18,76 l800,0" />
        <path id="H-reference" d="M85,145.755 L87.685,145.755 L113.369,79.287 L114.052,79.287 L114.052,76 L112.148,76 L85,145.755 Z M95.693,121.536 L130.996,121.536 L130.263,119.313 L96.474,119.313 L95.693,121.536 Z M139.15,145.755 L141.787,145.755 L114.638,76 L113.466,76 L113.466,79.287 L139.15,145.755 Z" stroke="none" />
        <path id="Baseline-S" d="M18,146 l800,0" />
        <path id="left-margin-Ultralight-S" d="M220.275,56 l0,110" />
        <path id="right-margin-Ultralight-S" d="M309.725,56 l0,110" />
        <path id="left-margin-Regular-S" d="M420.275,56 l0,110" />
        <path id="right-margin-Regular-S" d="M509.725,56 l0,110" />
        <path id="left-margin-Black-S" d="M620.275,56 l0,110" />
        <path id="right-margin-Black-S" d="M709.725,56 l0,110" />
        <path id="Capline-M" d="M18,276 l800,0" />
        <path id="Baseline-M" d="M18,346 l800,0" />
        <path id="Capline-L" d="M18,476 l800,0" />
        <path id="Baseline-L" d="M18,546 l800,0" />
    </g>
    <g id="Symbols">
        <g id="Ultralight-S">
            <path d="M261.142,111.275 L261.142,142.142 C261.142,144.273 262.869,146 265,146 C267.131,146 268.858,144.273 268.858,142.142 L268.858,111.275 C268.858,109.144 267.131,107.416 265,107.416 C262.869,107.416 261.142,109.144 261.142,111.275 Z M268.858,110.724 C268.858,95.909 280.793,83.863 295.593,83.717 L295.555,79.858 L291.735,80.405 C291.917,81.675 292.009,82.964 292.009,84.266 C292.009,99.081 280.074,111.127 265.274,111.274 L265.313,115.132 L269.132,114.585 C268.95,113.315 268.858,112.026 268.858,110.724 Z M261.142,110.724 C261.142,112.392 261.26,114.047 261.493,115.678 C261.767,117.593 263.417,119.009 265.351,118.99 C284.382,118.801 299.725,103.314 299.725,84.266 C299.725,82.598 299.608,80.944 299.374,79.312 C299.1,77.397 297.45,75.981 295.516,76 C276.485,76.189 261.142,91.676 261.142,110.724 Z M268.858,110.724 C268.858,91.676 253.515,76.189 234.484,76 C232.549,75.981 230.9,77.397 230.626,79.312 C230.392,80.944 230.275,82.599 230.275,84.266 C230.275,103.314 245.618,118.801 264.649,118.99 C266.583,119.009 268.233,117.593 268.507,115.678 C268.74,114.047 268.858,112.392 268.858,110.724 Z M261.142,110.724 C261.142,112.026 261.05,113.315 260.868,114.585 L264.687,115.132 L264.726,111.274 C249.926,111.127 237.991,99.081 237.991,84.266 C237.991,82.964 238.083,81.675 238.265,80.404 L234.445,79.858 L234.407,83.717 C249.207,83.863 261.142,95.909 261.142,110.724 Z" />
        </g>
        <g id="Regular-S">
            <path d="M461.142,111.275 L461.142,142.142 C461.142,144.273 462.869,146 465,146 C467.131,146 468.858,144.273 468.858,142.142 L468.858,111.275 C468.858,109.144 467.131,107.416 465,107.416 C462.869,107.416 461.142,109.144 461.142,111.275 Z M468.858,110.724 C468.858,95.909 480.793,83.863 495.593,83.717 L495.555,79.858 L491.735,80.405 C491.917,81.675 492.009,82.964 492.009,84.266 C492.009,99.081 480.074,111.127 465.274,111.274 L465.313,115.132 L469.132,114.585 C468.95,113.315 468.858,112.026 468.858,110.724 Z M461.142,110.724 C461.142,112.392 461.26,114.047 461.493,115.678 C461.767,117.593 463.417,119.009 465.351,118.99 C484.382,118.801 499.725,103.314 499.725,84.266 C499.725,82.598 499.608,80.944 499.374,79.312 C499.1,77.397 497.45,75.981 495.516,76 C476.485,76.189 461.142,91.676 461.142,110.724 Z M468.858,110.724 C468.858,91.676 453.515,76.189 434.484,76 C432.549,75.981 430.9,77.397 430.626,79.312 C430.392,80.944 430.275,82.599 430.275,84.266 C430.275,103.314 445.618,118.801 464.649,118.99 C466.583,119.009 468.233,117.593 468.507,115.678 C468.74,114.047 468.858,112.392 468.858,110.724 Z M461.142,110.724 C461.142,112.026 461.05,113.315 460.868,114.585 L464.688,115.132 L464.726,111.274 C449.926,111.127 437.991,99.081 437.991,84.266 C437.991,82.964 438.083,81.675 438.265,80.404 L434.445,79.858 L434.407,83.717 C449.207,83.863 461.142,95.909 461.142,110.724 Z" />
        </g>
        <g id="Black-S">
            <path d="M661.142,111.275 L661.142,142.142 C661.142,144.273 662.869,146 665,146 C667.131,146 668.858,144.273 668.858,142.142 L668.858,111.275 C668.858,109.144 667.131,107.416 665,107.416 C662.869,107.416 661.142,109.144 661.142,111.275 Z M668.858,110.724 C668.858,95.909 680.793,83.863 695.593,83.717 L695.555,79.858 L691.735,80.405 C691.917,81.675 692.009,82.964 692.009,84.266 C692.009,99.081 680.074,111.127 665.274,111.274 L665.313,115.132 L669.132,114.585 C668.95,113.315 668.858,112.026 668.858,110.724 Z M661.142,110.724 C661.142,112.392 661.26,114.047 661.493,115.678 C661.767,117.593 663.417,119.009 665.351,118.99 C684.382,118.801 699.725,103.314 699.725,84.266 C699.725,82.598 699.608,80.944 699.374,79.312 C699.1,77.397 697.45,75.981 695.516,76 C676.485,76.189 661.142,91.676 661.142,110.724 Z M668.858,110.724 C668.858,91.676 653.515,76.189 634.484,76 C632.549,75.981 630.9,77.397 630.626,79.312 C630.392,80.944 630.275,82.599 630.275,84.266 C630.275,103.314 645.618,118.801 664.649,118.99 C666.583,119.009 668.233,117.593 668.507,115.678 C668.74,114.047 668.858,112.392 668.858,110.724 Z M661.142,110.724 C661.142,112.026 661.05,113.315 660.868,114.585 L664.688,115.132 L664.726,111.274 C649.926,111.127 637.991,99.081 637.991,84.266 C637.991,82.964 638.083,81.675 638.265,80.404 L634.445,79.858 L634.407,83.717 C649.207,83.863 661.142,95.909 661.142,110.724 Z" />
        </g>
    </g>
</svg>