<?xml version="1.0" encoding="UTF-8"?>
<svg height="600" width="800" xmlns="http://www.w3.org/2000/svg" xmlns:xlink="http://www.w3.org/1999/xlink">
    <g id="Notes" font-family="'LucidaGrande', 'Lucida Grande', sans-serif" font-size="13">
        <rect fill="white" height="600.0" width="800.0" x="0.0" y="0.0" />
        <g font-size="13">
            <text x="18.0" y="176.0">Small</text>
            <text x="18.0" y="376.0">Medium</text>
            <text x="18.0" y="576.0">Large</text>
        </g>
        <g font-size="9">
            <text x="250.0" y="30.0">Ultralight</text>
            <text x="450.0" y="30.0">Regular</text>
            <text x="650.0" y="30.0">Black</text>
            <text id="template-version" fill="#505050" text-anchor="end" x="785.0" y="575.0">Template v.3.0</text>
            <a href="https://github.com/swhitty/SwiftDraw">
                <text fill="#505050" text-anchor="end" x="785.0" y="590.0">https://github.com/swhitty/SwiftDraw</text>
            </a>
        </g>
    </g>
    <g id="Guides" stroke="rgb(39, 170, 225)" stroke-width="0.5">
        <path id="Capline-S" d="M18,76 l800,0" />
        <path id="H-reference" d="M85,145.755 L87.685,145.755 L113.369,79.287 L114.052,79.287 L114.052,76 L112.148,76 L85,145.755 Z M95.693,121.536 L130.996,121.536 L130.263,119.313 L96.474,119.313 L95.693,121.536 Z M139.15,145.755 L141.787,145.755 L114.638,76 L113.466,76 L113.466,79.287 L139.15,145.755 Z" stroke="none" />
        <path id="Baseline-S" d="M18,146 l800,0" />
        <path id="left-margin-Ultralight-S" d="M219.998,56 l0,110" />
        <path id="right-margin-Ultralight-S" d="M310.002,56 l0,110" />
        <path id="left-margin-Regular-S" d="M419.998,56 l0,110" />
        <path id="right-margin-Regular-S" d="M510.002,56 l0,110" />
        <path id="left-margin-Black-S" d="M619.998,56 l0,110" />
        <path id="right-margin-Black-S" d="M710.002,56 l0,110" />
        <path id="Capline-M" d="M18,276 l800,0" />
        <path id="Baseline-M" d="M18,346 l800,0" />
        <path id="Capline-L" d="M18,476 l800,0" />
        <path id="Baseline-L" d="M18,546 l800,0" />
    </g>
    <g id="Symbols">
        <g id="Ultralight-S">
            <path d="M240.047,76.174 C238.981,76.68 238.694,77.391 238.817,79.277 C239.227,85.95 241.811,91.802 246.364,96.409 C250.466,100.552 255.361,103.054 261.185,103.984 C263.099,104.285 266.901,104.285 268.842,103.97 C274.01,103.164 278.673,100.962 282.419,97.585 C287.601,92.895 290.513,87.016 291.128,80.002 C291.306,77.91 291.252,77.404 290.746,76.803 C290.048,75.982 289.187,75.846 286.493,76.146 C283.39,76.474 280.642,77.267 277.866,78.594 C272.534,81.178 268.322,85.321 265.738,90.516 C265.369,91.255 265.041,91.856 265,91.856 C264.959,91.856 264.631,91.255 264.262,90.516 C260.584,83.092 253.488,77.801 245.311,76.392 C243.178,76.023 240.594,75.928 240.047,76.174 Z M245.79,80.672 C254.704,82.709 261.568,90.27 262.758,99.335 C262.812,99.773 262.799,100.06 262.717,100.06 C262.648,100.06 261.896,99.937 261.062,99.786 C256.509,98.966 252.202,96.642 249.03,93.306 C245.954,90.051 243.944,86.073 243.192,81.684 C243.083,81.014 242.987,80.412 242.987,80.344 C242.987,80.166 244.19,80.303 245.79,80.672 Z M286.945,80.809 C286.138,86.127 283.896,90.557 280.259,94.016 C277.005,97.093 273.026,99.103 268.637,99.855 C267.967,99.964 267.365,100.06 267.297,100.06 C267.119,100.06 267.256,98.857 267.625,97.257 C269.498,89.067 276.13,82.463 284.278,80.672 C285.782,80.344 286.111,80.275 286.644,80.248 C287.027,80.234 287.04,80.248 286.945,80.809 Z" />
            <path d="M231.092,109.193 C230.572,109.467 229.998,110.41 229.998,110.998 C229.998,111.586 230.572,112.529 231.092,112.803 C231.543,113.035 232.91,113.049 265,113.049 C297.09,113.049 298.457,113.035 298.908,112.803 C299.428,112.529 300.002,111.586 300.002,110.998 C300.002,110.41 299.428,109.467 298.908,109.193 C298.457,108.961 297.09,108.947 265,108.947 C232.91,108.947 231.543,108.961 231.092,109.193 Z" />
            <path d="M231.297,117.889 C231.064,117.985 230.709,118.272 230.504,118.504 C229.779,119.366 229.752,119.215 232.254,128.007 C234.236,134.939 234.619,136.128 234.961,136.525 C235.727,137.386 237.067,137.414 237.901,136.552 C238.256,136.183 238.543,135.294 240.594,128.13 C242.426,121.704 242.864,120.008 242.809,119.53 C242.632,117.875 240.704,117.164 239.473,118.299 C239.036,118.696 238.926,118.983 237.723,123.167 C237.026,125.614 236.424,127.515 236.369,127.405 C236.328,127.296 235.768,125.354 235.125,123.098 C234.483,120.842 233.854,118.846 233.717,118.668 C233.115,117.862 232.076,117.52 231.297,117.889 Z" />
            <path d="M246.542,117.998 C246.186,118.19 245.817,118.504 245.653,118.791 C245.393,119.256 245.38,119.489 245.38,127.474 C245.38,135.458 245.393,135.691 245.653,136.156 C245.817,136.443 246.186,136.757 246.542,136.949 C247.143,137.249 247.226,137.263 250.944,137.222 C254.54,137.181 254.745,137.167 255.115,136.894 C255.99,136.238 256.277,134.952 255.716,134.077 C255.224,133.257 255.06,133.216 252.148,133.148 L249.482,133.079 L249.44,131.357 L249.399,129.634 L250.876,129.565 C252.544,129.497 253.091,129.292 253.515,128.595 C254.062,127.706 253.761,126.202 252.941,125.737 C252.763,125.628 251.984,125.532 251.054,125.491 L249.482,125.423 L249.482,123.645 L249.482,121.868 L252.148,121.799 C254.335,121.745 254.869,121.69 255.128,121.499 C256.523,120.528 256.195,118.272 254.622,117.834 C254.349,117.766 252.558,117.698 250.644,117.698 C247.294,117.698 247.116,117.711 246.542,117.998 Z" />
            <path d="M288.244,118.012 C287.095,118.614 287.15,118.176 287.15,127.474 C287.15,135.212 287.163,135.704 287.41,136.156 C287.751,136.812 288.408,137.167 289.242,137.154 C289.966,137.14 290.404,136.894 290.896,136.238 C291.169,135.882 291.183,135.636 291.252,131.78 L291.32,127.692 L293.713,131.89 C295.025,134.2 296.283,136.279 296.488,136.525 C297.008,137.113 297.773,137.345 298.484,137.126 C299.127,136.935 299.824,136.197 299.934,135.581 C299.975,135.335 300.002,131.521 299.975,127.104 C299.934,119.256 299.934,119.079 299.647,118.709 C299.141,118.026 298.662,117.766 297.951,117.766 C297.24,117.766 296.762,118.026 296.256,118.709 C295.982,119.065 295.969,119.311 295.9,123.208 L295.832,127.323 L293.384,123.03 C292.045,120.665 290.787,118.559 290.595,118.34 C290.267,117.998 289.57,117.698 289.05,117.698 C288.927,117.698 288.572,117.834 288.244,118.012 Z" />
            <path d="M261.418,118.094 C260.994,118.231 260.433,118.477 260.174,118.641 C259.531,119.037 258.519,120.131 258.177,120.815 C257.548,122.059 257.48,122.674 257.48,127.474 C257.48,132.273 257.548,132.888 258.177,134.132 C258.547,134.87 259.558,135.923 260.269,136.347 C262.142,137.441 264.959,137.359 266.709,136.156 C268.459,134.952 269.239,133.257 269.239,130.618 C269.239,129.046 269.033,128.485 268.295,127.993 C267.885,127.706 267.666,127.679 266.272,127.679 C265.164,127.679 264.603,127.733 264.316,127.884 C263.51,128.294 263.086,129.224 263.291,130.14 C263.414,130.714 264.098,131.466 264.59,131.575 C265.328,131.739 264.945,132.573 263.961,132.956 C263.4,133.175 263.318,133.175 262.73,132.943 C261.582,132.505 261.582,132.491 261.582,127.542 C261.582,122.538 261.595,122.469 262.703,122.018 C263.318,121.772 263.373,121.772 263.961,121.991 C264.699,122.278 264.973,122.674 265.137,123.673 C265.355,124.971 266.039,125.628 267.201,125.628 C268.35,125.628 269.239,124.698 269.239,123.508 C269.239,121.088 267.475,118.737 265.15,118.053 C264.152,117.766 262.402,117.78 261.418,118.094 Z" />
            <path d="M276.526,118.026 C274.571,118.668 273.245,120.254 272.916,122.374 C272.834,122.88 272.793,125.901 272.821,129.552 C272.862,135.677 272.875,135.869 273.149,136.238 C273.846,137.181 274.995,137.455 275.952,136.894 C276.731,136.443 276.895,135.937 276.895,133.859 L276.895,132.054 L278.112,132.054 L279.315,132.054 L279.384,133.859 C279.452,135.896 279.616,136.388 280.354,136.839 C281.079,137.29 281.599,137.318 282.323,136.962 C283.554,136.347 283.526,136.539 283.567,129.743 C283.595,126.229 283.554,123.344 283.472,122.661 C283.212,120.555 282.2,119.065 280.477,118.272 C279.835,117.985 279.466,117.903 278.399,117.875 C277.565,117.848 276.895,117.903 276.526,118.026 Z M279.056,122.237 C279.343,122.524 279.356,122.606 279.356,125.245 L279.356,127.952 L278.126,127.952 L276.895,127.952 L276.895,125.505 C276.895,124.042 276.964,122.893 277.046,122.62 C277.333,121.813 278.372,121.622 279.056,122.237 Z" />
            <path d="M231.092,142.144 C230.572,142.418 229.998,143.361 229.998,143.949 C229.998,144.537 230.572,145.48 231.092,145.754 C231.543,145.986 232.91,146 265,146 C297.09,146 298.457,145.986 298.908,145.754 C299.428,145.48 300.002,144.537 300.002,143.949 C300.002,143.361 299.428,142.418 298.908,142.144 C298.457,141.912 297.09,141.898 265,141.898 C232.91,141.898 231.543,141.912 231.092,142.144 Z" />
        </g>
        <g id="Regular-S">
            <path d="M440.047,76.174 C438.981,76.68 438.694,77.391 438.817,79.277 C439.227,85.95 441.811,91.802 446.364,96.409 C450.466,100.552 455.361,103.054 461.185,103.984 C463.099,104.285 466.901,104.285 468.842,103.97 C474.01,103.164 478.673,100.962 482.419,97.585 C487.601,92.895 490.513,87.016 491.128,80.002 C491.306,77.91 491.252,77.404 490.746,76.803 C490.048,75.982 489.187,75.846 486.493,76.146 C483.39,76.474 480.642,77.267 477.866,78.594 C472.534,81.178 468.322,85.321 465.738,90.516 C465.369,91.255 465.041,91.856 465,91.856 C464.959,91.856 464.631,91.255 464.262,90.516 C460.584,83.092 453.488,77.801 445.311,76.392 C443.178,76.023 440.594,75.928 440.047,76.174 Z M445.79,80.672 C454.704,82.709 461.568,90.27 462.758,99.335 C462.812,99.773 462.799,100.06 462.717,100.06 C462.648,100.06 461.896,99.937 461.062,99.786 C456.509,98.966 452.202,96.642 449.03,93.306 C445.954,90.051 443.944,86.073 443.192,81.684 C443.083,81.014 442.987,80.412 442.987,80.344 C442.987,80.166 444.19,80.303 445.79,80.672 Z M486.945,80.809 C486.138,86.127 483.896,90.557 480.259,94.016 C477.005,97.093 473.026,99.103 468.637,99.855 C467.967,99.964 467.365,100.06 467.297,100.06 C467.119,100.06 467.256,98.857 467.625,97.257 C469.498,89.067 476.13,82.463 484.278,80.672 C485.782,80.344 486.111,80.275 486.644,80.248 C487.027,80.234 487.04,80.248 486.945,80.809 Z" />
            <path d="M431.092,109.193 C430.572,109.467 429.998,110.41 429.998,110.998 C429.998,111.586 430.572,112.529 431.092,112.803 C431.543,113.035 432.91,113.049 465,113.049 C497.09,113.049 498.457,113.035 498.908,112.803 C499.428,112.529 500.002,111.586 500.002,110.998 C500.002,110.41 499.428,109.467 498.908,109.193 C498.457,108.961 497.09,108.947 465,108.947 C432.91,108.947 431.543,108.961 431.092,109.193 Z" />
            <path d="M431.297,117.889 C431.064,117.985 430.709,118.272 430.504,118.504 C429.779,119.366 429.752,119.215 432.254,128.007 C434.236,134.939 434.619,136.128 434.961,136.525 C435.727,137.386 437.067,137.414 437.901,136.552 C438.256,136.183 438.543,135.294 440.594,128.13 C442.426,121.704 442.864,120.008 442.809,119.53 C442.632,117.875 440.704,117.164 439.473,118.299 C439.036,118.696 438.926,118.983 437.723,123.167 C437.026,125.614 436.424,127.515 436.369,127.405 C436.328,127.296 435.768,125.354 435.125,123.098 C434.483,120.842 433.854,118.846 433.717,118.668 C433.115,117.862 432.076,117.52 431.297,117.889 Z" />
            <path d="M446.542,117.998 C446.186,118.19 445.817,118.504 445.653,118.791 C445.393,119.256 445.38,119.489 445.38,127.474 C445.38,135.458 445.393,135.691 445.653,136.156 C445.817,136.443 446.186,136.757 446.542,136.949 C447.143,137.249 447.226,137.263 450.944,137.222 C454.54,137.181 454.745,137.167 455.115,136.894 C455.99,136.238 456.277,134.952 455.716,134.077 C455.224,133.257 455.06,133.216 452.148,133.148 L449.482,133.079 L449.44,131.357 L449.399,129.634 L450.876,129.565 C452.544,129.497 453.091,129.292 453.515,128.595 C454.062,127.706 453.761,126.202 452.941,125.737 C452.763,125.628 451.984,125.532 451.054,125.491 L449.482,125.423 L449.482,123.645 L449.482,121.868 L452.148,121.799 C454.335,121.745 454.869,121.69 455.128,121.499 C456.523,120.528 456.195,118.272 454.622,117.834 C454.349,117.766 452.558,117.698 450.644,117.698 C447.294,117.698 447.116,117.711 446.542,117.998 Z" />
            <path d="M488.244,118.012 C487.095,118.614 487.15,118.176 487.15,127.474 C487.15,135.212 487.163,135.704 487.41,136.156 C487.751,136.812 488.408,137.167 489.242,137.154 C489.966,137.14 490.404,136.894 490.896,136.238 C491.169,135.882 491.183,135.636 491.252,131.78 L491.32,127.692 L493.713,131.89 C495.025,134.2 496.283,136.279 496.488,136.525 C497.008,137.113 497.773,137.345 498.484,137.126 C499.127,136.935 499.824,136.197 499.934,135.581 C499.975,135.335 500.002,131.521 499.975,127.104 C499.934,119.256 499.934,119.079 499.647,118.709 C499.141,118.026 498.662,117.766 497.951,117.766 C497.24,117.766 496.762,118.026 496.256,118.709 C495.982,119.065 495.969,119.311 495.9,123.208 L495.832,127.323 L493.384,123.03 C492.045,120.665 490.787,118.559 490.595,118.34 C490.267,117.998 489.57,117.698 489.05,117.698 C488.927,117.698 488.572,117.834 488.244,118.012 Z" />
            <path d="M461.418,118.094 C460.994,118.231 460.433,118.477 460.174,118.641 C459.531,119.037 458.519,120.131 458.177,120.815 C457.548,122.059 457.48,122.674 457.48,127.474 C457.48,132.273 457.548,132.888 458.177,134.132 C458.547,134.87 459.558,135.923 460.269,136.347 C462.142,137.441 464.959,137.359 466.709,136.156 C468.459,134.952 469.239,133.257 469.239,130.618 C469.239,129.046 469.033,128.485 468.295,127.993 C467.885,127.706 467.666,127.679 466.272,127.679 C465.164,127.679 464.603,127.733 464.316,127.884 C463.51,128.294 463.086,129.224 463.291,130.14 C463.414,130.714 464.098,131.466 464.59,131.575 C465.328,131.739 464.945,132.573 463.961,132.956 C463.4,133.175 463.318,133.175 462.73,132.943 C461.582,132.505 461.582,132.491 461.582,127.542 C461.582,122.538 461.595,122.469 462.703,122.018 C463.318,121.772 463.373,121.772 463.961,121.991 C464.699,122.278 464.973,122.674 465.137,123.673 C465.355,124.971 466.039,125.628 467.201,125.628 C468.35,125.628 469.239,124.698 469.239,123.508 C469.239,121.088 467.475,118.737 465.15,118.053 C464.152,117.766 462.402,117.78 461.418,118.094 Z" />
            <path d="M476.526,118.026 C474.571,118.668 473.245,120.254 472.916,122.374 C472.834,122.88 472.793,125.901 472.821,129.552 C472.862,135.677 472.875,135.869 473.149,136.238 C473.846,137.181 474.995,137.455 475.952,136.894 C476.731,136.443 476.895,135.937 476.895,133.859 L476.895,132.054 L478.112,132.054 L479.315,132.054 L479.384,133.859 C479.452,135.896 479.616,136.388 480.354,136.839 C481.079,137.29 481.599,137.318 482.323,136.962 C483.554,136.347 483.526,136.539 483.567,129.743 C483.595,126.229 483.554,123.344 483.472,122.661 C483.212,120.555 482.2,119.065 480.477,118.272 C479.835,117.985 479.466,117.903 478.399,117.875 C477.565,117.848 476.895,117.903 476.526,118.026 Z M479.056,122.237 C479.343,122.524 479.356,122.606 479.356,125.245 L479.356,127.952 L478.126,127.952 L476.895,127.952 L476.895,125.505 C476.895,124.042 476.964,122.893 477.046,122.62 C477.333,121.813 478.372,121.622 479.056,122.237 Z" />
            <path d="M431.092,142.144 C430.572,142.418 429.998,143.361 429.998,143.949 C429.998,144.537 430.572,145.48 431.092,145.754 C431.543,145.986 432.91,146 465,146 C497.09,146 498.457,145.986 498.908,145.754 C499.428,145.48 500.002,144.537 500.002,143.949 C500.002,143.361 499.428,142.418 498.908,142.144 C498.457,141.912 497.09,141.898 465,141.898 C432.91,141.898 431.543,141.912 431.092,142.144 Z" />
        </g>
        <g id="Black-S">
            <path d="M640.047,76.174 C638.981,76.68 638.694,77.391 638.817,79.277 C639.227,85.95 641.811,91.802 646.364,96.409 C650.466,100.552 655.361,103.054 661.185,103.984 C663.1,104.285 666.901,104.285 668.842,103.97 C674.01,103.164 678.673,100.962 682.419,97.585 C687.601,92.895 690.513,87.016 691.128,80.002 C691.306,77.91 691.252,77.404 690.746,76.803 C690.048,75.982 689.187,75.846 686.493,76.146 C683.39,76.474 680.642,77.267 677.866,78.594 C672.534,81.178 668.323,85.321 665.738,90.516 C665.369,91.255 665.041,91.856 665,91.856 C664.959,91.856 664.631,91.255 664.262,90.516 C660.584,83.092 653.488,77.801 645.311,76.392 C643.178,76.023 640.594,75.928 640.047,76.174 Z M645.79,80.672 C654.705,82.709 661.568,90.27 662.758,99.335 C662.812,99.773 662.799,100.06 662.717,100.06 C662.648,100.06 661.896,99.937 661.062,99.786 C656.509,98.966 652.202,96.642 649.03,93.306 C645.954,90.051 643.944,86.073 643.192,81.684 C643.083,81.014 642.987,80.412 642.987,80.344 C642.987,80.166 644.19,80.303 645.79,80.672 Z M686.945,80.809 C686.138,86.127 683.896,90.557 680.259,94.016 C677.005,97.093 673.026,99.103 668.637,99.855 C667.967,99.964 667.365,100.06 667.297,100.06 C667.119,100.06 667.256,98.857 667.625,97.257 C669.498,89.067 676.13,82.463 684.279,80.672 C685.782,80.344 686.111,80.275 686.644,80.248 C687.027,80.234 687.04,80.248 686.945,80.809 Z" />
            <path d="M631.092,109.193 C630.572,109.467 629.998,110.41 629.998,110.998 C629.998,111.586 630.572,112.529 631.092,112.803 C631.543,113.035 632.91,113.049 665,113.049 C697.09,113.049 698.457,113.035 698.908,112.803 C699.428,112.529 700.002,111.586 700.002,110.998 C700.002,110.41 699.428,109.467 698.908,109.193 C698.457,108.961 697.09,108.947 665,108.947 C632.91,108.947 631.543,108.961 631.092,109.193 Z" />
            <path d="M631.297,117.889 C631.064,117.985 630.709,118.272 630.504,118.504 C629.779,119.366 629.752,119.215 632.254,128.007 C634.237,134.939 634.619,136.128 634.961,136.525 C635.727,137.386 637.067,137.414 637.901,136.552 C638.256,136.183 638.543,135.294 640.594,128.13 C642.426,121.704 642.864,120.008 642.809,119.53 C642.632,117.875 640.704,117.164 639.473,118.299 C639.036,118.696 638.926,118.983 637.723,123.167 C637.026,125.614 636.424,127.515 636.369,127.405 C636.328,127.296 635.768,125.354 635.125,123.098 C634.483,120.842 633.854,118.846 633.717,118.668 C633.115,117.862 632.076,117.52 631.297,117.889 Z" />
            <path d="M646.542,117.998 C646.186,118.19 645.817,118.504 645.653,118.791 C645.393,119.256 645.38,119.489 645.38,127.474 C645.38,135.458 645.393,135.691 645.653,136.156 C645.817,136.443 646.186,136.757 646.542,136.949 C647.143,137.249 647.226,137.263 650.945,137.222 C654.54,137.181 654.746,137.167 655.115,136.894 C655.99,136.238 656.277,134.952 655.716,134.077 C655.224,133.257 655.06,133.216 652.148,133.148 L649.482,133.079 L649.441,131.357 L649.4,129.634 L650.876,129.565 C652.544,129.497 653.091,129.292 653.515,128.595 C654.062,127.706 653.761,126.202 652.941,125.737 C652.763,125.628 651.984,125.532 651.054,125.491 L649.482,125.423 L649.482,123.645 L649.482,121.868 L652.148,121.799 C654.335,121.745 654.869,121.69 655.128,121.499 C656.523,120.528 656.195,118.272 654.622,117.834 C654.349,117.766 652.558,117.698 650.644,117.698 C647.294,117.698 647.116,117.711 646.542,117.998 Z" />
            <path d="M688.244,118.012 C687.095,118.614 687.15,118.176 687.15,127.474 C687.15,135.212 687.163,135.704 687.41,136.156 C687.751,136.812 688.408,137.167 689.242,137.154 C689.966,137.14 690.404,136.894 690.896,136.238 C691.169,135.882 691.183,135.636 691.252,131.78 L691.32,127.692 L693.713,131.89 C695.025,134.2 696.283,136.279 696.488,136.525 C697.008,137.113 697.773,137.345 698.484,137.126 C699.127,136.935 699.824,136.197 699.934,135.581 C699.975,135.335 700.002,131.521 699.975,127.104 C699.934,119.256 699.934,119.079 699.647,118.709 C699.141,118.026 698.662,117.766 697.951,117.766 C697.24,117.766 696.762,118.026 696.256,118.709 C695.982,119.065 695.969,119.311 695.9,123.208 L695.832,127.323 L693.385,123.03 C692.045,120.665 690.787,118.559 690.595,118.34 C690.267,117.998 689.57,117.698 689.05,117.698 C688.927,117.698 688.572,117.834 688.244,118.012 Z" />
            <path d="M661.418,118.094 C660.994,118.231 660.433,118.477 660.174,118.641 C659.531,119.037 658.519,120.131 658.177,120.815 C657.548,122.059 657.48,122.674 657.48,127.474 C657.48,132.273 657.548,132.888 658.177,134.132 C658.547,134.87 659.558,135.923 660.269,136.347 C662.142,137.441 664.959,137.359 666.709,136.156 C668.459,134.952 669.239,133.257 669.239,130.618 C669.239,129.046 669.033,128.485 668.295,127.993 C667.885,127.706 667.666,127.679 666.272,127.679 C665.164,127.679 664.604,127.733 664.316,127.884 C663.51,128.294 663.086,129.224 663.291,130.14 C663.414,130.714 664.098,131.466 664.59,131.575 C665.328,131.739 664.945,132.573 663.961,132.956 C663.4,133.175 663.318,133.175 662.73,132.943 C661.582,132.505 661.582,132.491 661.582,127.542 C661.582,122.538 661.596,122.469 662.703,122.018 C663.318,121.772 663.373,121.772 663.961,121.991 C664.699,122.278 664.973,122.674 665.137,123.673 C665.356,124.971 666.039,125.628 667.201,125.628 C668.35,125.628 669.239,124.698 669.239,123.508 C669.239,121.088 667.475,118.737 665.15,118.053 C664.152,117.766 662.402,117.78 661.418,118.094 Z" />
            <path d="M676.526,118.026 C674.571,118.668 673.245,120.254 672.917,122.374 C672.834,122.88 672.793,125.901 672.821,129.552 C672.862,135.677 672.875,135.869 673.149,136.238 C673.846,137.181 674.995,137.455 675.952,136.894 C676.731,136.443 676.895,135.937 676.895,133.859 L676.895,132.054 L678.112,132.054 L679.315,132.054 L679.384,133.859 C679.452,135.896 679.616,136.388 680.354,136.839 C681.079,137.29 681.599,137.318 682.323,136.962 C683.554,136.347 683.526,136.539 683.568,129.743 C683.595,126.229 683.554,123.344 683.472,122.661 C683.212,120.555 682.2,119.065 680.477,118.272 C679.835,117.985 679.466,117.903 678.399,117.875 C677.565,117.848 676.895,117.903 676.526,118.026 Z M679.056,122.237 C679.343,122.524 679.356,122.606 679.356,125.245 L679.356,127.952 L678.126,127.952 L676.895,127.952 L676.895,125.505 C676.895,124.042 676.964,122.893 677.046,122.62 C677.333,121.813 678.372,121.622 679.056,122.237 Z" />
            <path d="M631.092,142.144 C630.572,142.418 629.998,143.361 629.998,143.949 C629.998,144.537 630.572,145.48 631.092,145.754 C631.543,145.986 632.91,146 665,146 C697.09,146 698.457,145.986 698.908,145.754 C699.428,145.48 700.002,144.537 700.002,143.949 C700.002,143.361 699.428,142.418 698.908,142.144 C698.457,141.912 697.09,141.898 665,141.898 C632.91,141.898 631.543,141.912 631.092,142.144 Z" />
        </g>
    </g>
</svg>