<?xml version="1.0" encoding="UTF-8"?>
<svg height="600" width="800" xmlns="http://www.w3.org/2000/svg" xmlns:xlink="http://www.w3.org/1999/xlink">
    <g id="Notes" font-family="'LucidaGrande', 'Lucida Grande', sans-serif" font-size="13">
        <rect fill="white" height="600.0" width="800.0" x="0.0" y="0.0" />
        <g font-size="13">
            <text x="18.0" y="176.0">Small</text>
            <text x="18.0" y="376.0">Medium</text>
            <text x="18.0" y="576.0">Large</text>
        </g>
        <g font-size="9">
            <text x="250.0" y="30.0">Ultralight</text>
            <text x="450.0" y="30.0">Regular</text>
            <text x="650.0" y="30.0">Black</text>
            <text id="template-version" fill="#505050" text-anchor="end" x="785.0" y="575.0">Template v.3.0</text>
            <a href="https://github.com/swhitty/SwiftDraw">
                <text fill="#505050" text-anchor="end" x="785.0" y="590.0">https://github.com/swhitty/SwiftDraw</text>
            </a>
        </g>
    </g>
    <g id="Guides" stroke="rgb(39, 170, 225)" stroke-width="0.5">
        <path id="Capline-S" d="M18,76 l800,0" />
        <path id="H-reference" d="M85,145.755 L87.685,145.755 L113.369,79.287 L114.052,79.287 L114.052,76 L112.148,76 L85,145.755 Z M95.693,121.536 L130.996,121.536 L130.263,119.313 L96.474,119.313 L95.693,121.536 Z M139.15,145.755 L141.787,145.755 L114.638,76 L113.466,76 L113.466,79.287 L139.15,145.755 Z" stroke="none" />
        <path id="Baseline-S" d="M18,146 l800,0" />
        <path id="left-margin-Ultralight-S" d="M211,56 l0,110" />
        <path id="right-margin-Ultralight-S" d="M319,56 l0,110" />
        <path id="left-margin-Regular-S" d="M411,56 l0,110" />
        <path id="right-margin-Regular-S" d="M519,56 l0,110" />
        <path id="left-margin-Black-S" d="M611,56 l0,110" />
        <path id="right-margin-Black-S" d="M719,56 l0,110" />
        <path id="Capline-M" d="M18,276 l800,0" />
        <path id="Baseline-M" d="M18,346 l800,0" />
        <path id="Capline-L" d="M18,476 l800,0" />
        <path id="Baseline-L" d="M18,546 l800,0" />
    </g>
    <g id="Symbols">
        <g id="Ultralight-S">
            <path d="M300.389,137.07 L230.083,137.07 C229.762,137.07 229.455,136.939 229.232,136.707 C229.01,136.475 228.891,136.163 228.904,135.842 C228.946,134.827 229.022,133.82 229.133,132.823 L227.299,132.823 C226.976,132.823 226.668,132.691 226.446,132.458 C226.223,132.225 226.106,131.911 226.121,131.589 C226.144,131.084 226.175,130.582 226.215,130.081 C223.211,129.448 221,126.808 221,123.622 C221,121.325 222.182,119.241 224.058,118.048 C223.449,117.034 223.123,115.87 223.123,114.657 C223.123,111.788 224.993,109.28 227.631,108.394 C227.614,108.201 227.606,108.008 227.606,107.815 C227.606,104.329 230.319,101.466 233.745,101.225 C233.742,101.141 233.74,101.057 233.74,100.973 C233.74,97.331 236.703,94.367 240.346,94.367 C240.539,94.367 240.732,94.376 240.924,94.393 C241.811,91.754 244.319,89.885 247.188,89.885 C248.023,89.885 248.839,90.04 249.603,90.341 C250.729,88.213 252.966,86.818 255.445,86.818 C256.805,86.818 258.12,87.239 259.218,88.003 C260.598,86.099 262.825,84.93 265.236,84.93 C267.562,84.93 269.706,86.001 271.099,87.794 C272.13,87.158 273.319,86.818 274.555,86.818 C277.034,86.818 279.271,88.213 280.397,90.341 C281.161,90.04 281.977,89.885 282.812,89.885 C285.681,89.885 288.189,91.754 289.076,94.393 C289.268,94.376 289.461,94.367 289.654,94.367 C293.297,94.367 296.26,97.331 296.26,100.973 C296.26,101.057 296.258,101.141 296.255,101.225 C299.681,101.466 302.394,104.329 302.394,107.815 C302.394,108.008 302.386,108.201 302.369,108.394 C305.007,109.28 306.877,111.788 306.877,114.657 C306.877,115.87 306.551,117.034 305.942,118.048 C307.818,119.241 309,121.325 309,123.622 C309,126.573 307.013,129.151 304.248,129.962 C304.292,130.502 304.326,131.044 304.351,131.589 C304.366,131.911 304.248,132.225 304.026,132.458 C303.804,132.691 303.495,132.823 303.173,132.823 L301.34,132.823 C301.45,133.82 301.526,134.827 301.567,135.842 C301.581,136.163 301.462,136.475 301.24,136.707 C301.017,136.939 300.71,137.07 300.389,137.07 Z M231.33,134.71 L299.142,134.71 C299.085,133.897 299.005,133.093 298.902,132.297 C298.806,132.154 298.741,131.988 298.715,131.808 C296.211,114.069 282.127,101.194 265.228,101.194 C256.617,101.194 248.732,104.497 242.717,110.061 C236.26,116.081 232.031,124.738 231.33,134.71 Z M301.014,130.464 L301.92,130.464 C301.703,127.557 301.192,124.744 300.42,122.057 C296.323,108.752 286.423,98.815 274.192,95.534 C271.335,94.774 268.346,94.37 265.272,94.367 C247.609,94.387 232.205,108.578 228.857,127.646 C228.725,128.575 228.622,129.514 228.551,130.464 L229.345,130.464 C230.841,121.562 235.201,113.553 241.692,107.823 C246.582,103.506 252.466,100.634 258.709,99.449 C260.88,99.033 263.099,98.82 265.346,98.82 C274.635,98.82 283.45,102.472 290.166,109.103 C295.88,114.743 299.635,122.191 301.014,130.464 Z M234.212,103.568 C231.87,103.568 229.965,105.473 229.965,107.815 C229.965,108.202 230.018,108.588 230.124,108.964 C230.216,109.292 230.161,109.644 229.974,109.929 C229.787,110.215 229.486,110.405 229.148,110.451 C227.058,110.737 225.483,112.545 225.483,114.657 C225.483,115.784 225.92,116.846 226.715,117.648 C227.002,117.937 227.119,118.354 227.026,118.75 C226.932,119.147 226.64,119.467 226.253,119.597 C224.522,120.178 223.359,121.796 223.359,123.622 C223.359,125.578 224.655,127.213 226.453,127.711 C226.477,127.565 226.502,127.42 226.527,127.274 C229.411,107.181 245.692,92.008 265.236,92.008 C265.259,92.008 265.284,92.008 265.307,92.008 C266.348,92.008 267.384,92.053 268.415,92.143 C284.883,93.545 298.53,105.745 302.916,122.23 C303.418,123.951 303.823,125.71 304.126,127.498 C305.616,126.828 306.641,125.321 306.641,123.622 C306.641,121.796 305.478,120.178 303.747,119.597 C303.36,119.467 303.068,119.147 302.974,118.75 C302.881,118.354 302.998,117.937 303.285,117.647 C304.08,116.846 304.517,115.784 304.517,114.657 C304.517,112.545 302.942,110.737 300.852,110.451 C300.514,110.405 300.213,110.215 300.026,109.929 C299.839,109.644 299.784,109.292 299.876,108.964 C299.982,108.588 300.035,108.202 300.035,107.815 C300.035,105.238 297.727,103.178 295.068,103.631 C294.669,103.697 294.262,103.557 293.991,103.254 C293.721,102.953 293.625,102.533 293.736,102.143 C293.845,101.761 293.901,101.368 293.901,100.973 C293.901,98.632 291.996,96.727 289.654,96.727 C289.267,96.727 288.881,96.78 288.505,96.885 C288.177,96.977 287.825,96.922 287.54,96.735 C287.255,96.548 287.064,96.247 287.018,95.909 C286.733,93.82 284.925,92.244 282.812,92.244 C281.964,92.244 281.146,92.493 280.446,92.964 C280.13,93.176 279.732,93.223 279.377,93.091 C279.021,92.959 278.75,92.664 278.649,92.298 C278.146,90.46 276.462,89.177 274.555,89.177 C273.455,89.177 272.411,89.597 271.616,90.361 C271.347,90.619 270.972,90.735 270.604,90.673 C270.237,90.612 269.92,90.38 269.75,90.049 C268.875,88.347 267.146,87.29 265.236,87.29 C263.229,87.29 261.407,88.477 260.595,90.315 C260.432,90.683 260.094,90.942 259.696,91.004 C259.298,91.066 258.897,90.92 258.631,90.618 C257.824,89.702 256.663,89.177 255.445,89.177 C253.538,89.177 251.854,90.46 251.351,92.298 C251.25,92.664 250.979,92.959 250.623,93.091 C250.267,93.224 249.869,93.176 249.554,92.964 C248.854,92.493 248.036,92.244 247.188,92.244 C245.075,92.244 243.267,93.82 242.982,95.909 C242.936,96.247 242.745,96.548 242.46,96.735 C242.175,96.923 241.823,96.977 241.495,96.885 C241.119,96.78 240.733,96.727 240.346,96.727 C238.004,96.727 236.099,98.632 236.099,100.973 C236.099,101.368 236.155,101.761 236.264,102.143 C236.375,102.533 236.279,102.953 236.009,103.254 C235.738,103.556 235.332,103.697 234.932,103.631 C234.689,103.589 234.447,103.568 234.212,103.568 Z M293.547,132.086 C292.896,132.086 292.367,131.558 292.367,130.906 L292.367,129.019 C292.367,128.367 292.896,127.839 293.547,127.839 C294.198,127.839 294.727,128.367 294.727,129.019 L294.727,130.906 C294.727,131.558 294.198,132.086 293.547,132.086 Z M282.223,132.086 C281.571,132.086 281.043,131.558 281.043,130.906 L281.043,129.019 C281.043,128.367 281.571,127.839 282.223,127.839 C282.874,127.839 283.402,128.367 283.402,129.019 L283.402,130.906 C283.402,131.558 282.874,132.086 282.223,132.086 Z M270.898,132.086 C270.247,132.086 269.719,131.558 269.719,130.906 L269.719,129.019 C269.719,128.367 270.247,127.839 270.898,127.839 C271.549,127.839 272.078,128.367 272.078,129.019 L272.078,130.906 C272.078,131.558 271.549,132.086 270.898,132.086 Z M259.574,132.086 C258.922,132.086 258.394,131.558 258.394,130.906 L258.394,129.019 C258.394,128.367 258.922,127.839 259.574,127.839 C260.225,127.839 260.753,128.367 260.753,129.019 L260.753,130.906 C260.753,131.558 260.225,132.086 259.574,132.086 Z M248.249,132.086 C247.598,132.086 247.07,131.558 247.07,130.906 L247.07,129.019 C247.07,128.367 247.598,127.839 248.249,127.839 C248.901,127.839 249.429,128.367 249.429,129.019 L249.429,130.906 C249.429,131.558 248.901,132.086 248.249,132.086 Z M236.925,132.086 C236.274,132.086 235.745,131.558 235.745,130.906 L235.745,129.019 C235.745,128.367 236.274,127.839 236.925,127.839 C237.576,127.839 238.105,128.367 238.105,129.019 L238.105,130.906 C238.105,131.558 237.576,132.086 236.925,132.086 Z M287.885,123.828 C287.233,123.828 286.705,123.3 286.705,122.649 L286.705,120.761 C286.705,120.11 287.233,119.582 287.885,119.582 C288.536,119.582 289.064,120.11 289.064,120.761 L289.064,122.649 C289.064,123.3 288.536,123.828 287.885,123.828 Z M276.56,123.828 C275.909,123.828 275.381,123.3 275.381,122.649 L275.381,120.761 C275.381,120.11 275.909,119.582 276.56,119.582 C277.212,119.582 277.74,120.11 277.74,120.761 L277.74,122.649 C277.74,123.3 277.212,123.828 276.56,123.828 Z M265.236,123.828 C264.585,123.828 264.056,123.3 264.056,122.649 L264.056,120.761 C264.056,120.11 264.585,119.582 265.236,119.582 C265.887,119.582 266.416,120.11 266.416,120.761 L266.416,122.649 C266.416,123.3 265.887,123.828 265.236,123.828 Z M253.912,123.828 C253.26,123.828 252.732,123.3 252.732,122.649 L252.732,120.761 C252.732,120.11 253.26,119.582 253.912,119.582 C254.563,119.582 255.091,120.11 255.091,120.761 L255.091,122.649 C255.091,123.3 254.563,123.828 253.912,123.828 Z M242.587,123.828 C241.936,123.828 241.408,123.3 241.408,122.649 L241.408,120.761 C241.408,120.11 241.936,119.582 242.587,119.582 C243.239,119.582 243.767,120.11 243.767,120.761 L243.767,122.649 C243.767,123.3 243.239,123.828 242.587,123.828 Z M270.898,114.863 C270.247,114.863 269.719,114.335 269.719,113.683 L269.719,111.796 C269.719,111.144 270.247,110.616 270.898,110.616 C271.549,110.616 272.078,111.144 272.078,111.796 L272.078,113.683 C272.078,114.335 271.549,114.863 270.898,114.863 Z M248.249,114.863 C247.598,114.863 247.07,114.335 247.07,113.683 L247.07,111.796 C247.07,111.144 247.598,110.616 248.249,110.616 C248.901,110.616 249.429,111.144 249.429,111.796 L249.429,113.683 C249.429,114.335 248.901,114.863 248.249,114.863 Z M282.223,114.391 C281.571,114.391 281.043,113.863 281.043,113.212 L281.043,111.324 C281.043,110.673 281.571,110.145 282.223,110.145 C282.874,110.145 283.402,110.673 283.402,111.324 L283.402,113.212 C283.402,113.863 282.874,114.391 282.223,114.391 Z M259.574,114.391 C258.922,114.391 258.394,113.863 258.394,113.212 L258.394,111.324 C258.394,110.673 258.922,110.145 259.574,110.145 C260.225,110.145 260.753,110.673 260.753,111.324 L260.753,113.212 C260.753,113.863 260.225,114.391 259.574,114.391 Z" />
        </g>
        <g id="Regular-S">
            <path d="M500.389,137.07 L430.083,137.07 C429.762,137.07 429.455,136.939 429.232,136.707 C429.01,136.475 428.891,136.163 428.904,135.842 C428.946,134.827 429.022,133.82 429.133,132.823 L427.299,132.823 C426.976,132.823 426.668,132.691 426.446,132.458 C426.223,132.225 426.106,131.911 426.121,131.589 C426.144,131.084 426.175,130.582 426.215,130.081 C423.211,129.448 421,126.808 421,123.622 C421,121.325 422.182,119.241 424.058,118.048 C423.449,117.034 423.123,115.87 423.123,114.657 C423.123,111.788 424.993,109.28 427.631,108.394 C427.614,108.201 427.606,108.008 427.606,107.815 C427.606,104.329 430.319,101.466 433.745,101.225 C433.742,101.141 433.74,101.057 433.74,100.973 C433.74,97.331 436.703,94.367 440.346,94.367 C440.539,94.367 440.732,94.376 440.924,94.393 C441.811,91.754 444.319,89.885 447.188,89.885 C448.023,89.885 448.839,90.04 449.603,90.341 C450.729,88.213 452.966,86.818 455.445,86.818 C456.805,86.818 458.12,87.239 459.218,88.003 C460.598,86.099 462.825,84.93 465.236,84.93 C467.562,84.93 469.706,86.001 471.099,87.794 C472.13,87.158 473.319,86.818 474.555,86.818 C477.034,86.818 479.271,88.213 480.397,90.341 C481.161,90.04 481.977,89.885 482.812,89.885 C485.681,89.885 488.189,91.754 489.076,94.393 C489.268,94.376 489.461,94.367 489.654,94.367 C493.297,94.367 496.26,97.331 496.26,100.973 C496.26,101.057 496.258,101.141 496.255,101.225 C499.681,101.466 502.394,104.329 502.394,107.815 C502.394,108.008 502.386,108.201 502.369,108.394 C505.007,109.28 506.877,111.788 506.877,114.657 C506.877,115.87 506.551,117.034 505.942,118.048 C507.818,119.241 509,121.325 509,123.622 C509,126.573 507.013,129.151 504.248,129.962 C504.292,130.502 504.326,131.044 504.351,131.589 C504.366,131.911 504.248,132.225 504.026,132.458 C503.804,132.691 503.495,132.823 503.173,132.823 L501.34,132.823 C501.45,133.82 501.526,134.827 501.567,135.842 C501.581,136.163 501.462,136.475 501.24,136.707 C501.017,136.939 500.71,137.07 500.389,137.07 Z M431.33,134.71 L499.142,134.71 C499.085,133.897 499.005,133.093 498.902,132.297 C498.806,132.154 498.741,131.988 498.715,131.808 C496.211,114.069 482.127,101.194 465.228,101.194 C456.617,101.194 448.732,104.497 442.717,110.061 C436.26,116.081 432.031,124.738 431.33,134.71 Z M501.014,130.464 L501.92,130.464 C501.703,127.557 501.192,124.744 500.42,122.057 C496.323,108.752 486.423,98.815 474.192,95.534 C471.335,94.774 468.346,94.37 465.272,94.367 C447.609,94.387 432.206,108.578 428.857,127.646 C428.725,128.575 428.622,129.514 428.551,130.464 L429.345,130.464 C430.841,121.562 435.201,113.553 441.692,107.823 C446.582,103.506 452.466,100.634 458.709,99.449 C460.88,99.033 463.099,98.82 465.346,98.82 C474.635,98.82 483.45,102.472 490.166,109.103 C495.88,114.743 499.635,122.191 501.014,130.464 Z M434.212,103.568 C431.87,103.568 429.965,105.473 429.965,107.815 C429.965,108.202 430.018,108.588 430.124,108.964 C430.216,109.292 430.161,109.644 429.974,109.929 C429.787,110.215 429.486,110.405 429.148,110.451 C427.058,110.737 425.483,112.545 425.483,114.657 C425.483,115.784 425.92,116.846 426.715,117.648 C427.002,117.937 427.119,118.354 427.026,118.75 C426.932,119.147 426.64,119.467 426.253,119.597 C424.522,120.178 423.359,121.796 423.359,123.622 C423.359,125.578 424.655,127.213 426.453,127.711 C426.477,127.565 426.502,127.42 426.527,127.274 C429.411,107.181 445.692,92.008 465.236,92.008 C465.259,92.008 465.284,92.008 465.307,92.008 C466.348,92.008 467.384,92.053 468.415,92.143 C484.883,93.545 498.53,105.745 502.916,122.23 C503.418,123.951 503.823,125.71 504.126,127.498 C505.616,126.828 506.641,125.321 506.641,123.622 C506.641,121.796 505.478,120.178 503.747,119.597 C503.36,119.467 503.068,119.147 502.974,118.75 C502.881,118.354 502.998,117.937 503.285,117.647 C504.08,116.846 504.517,115.784 504.517,114.657 C504.517,112.545 502.942,110.737 500.852,110.451 C500.514,110.405 500.213,110.215 500.026,109.929 C499.839,109.644 499.784,109.292 499.876,108.964 C499.982,108.588 500.035,108.202 500.035,107.815 C500.035,105.238 497.727,103.178 495.068,103.631 C494.669,103.697 494.262,103.557 493.991,103.254 C493.721,102.953 493.625,102.533 493.736,102.143 C493.845,101.761 493.901,101.368 493.901,100.973 C493.901,98.632 491.996,96.727 489.654,96.727 C489.267,96.727 488.881,96.78 488.505,96.885 C488.177,96.977 487.825,96.922 487.54,96.735 C487.255,96.548 487.064,96.247 487.018,95.909 C486.733,93.82 484.925,92.244 482.812,92.244 C481.964,92.244 481.146,92.493 480.446,92.964 C480.13,93.176 479.732,93.223 479.377,93.091 C479.021,92.959 478.75,92.664 478.649,92.298 C478.146,90.46 476.462,89.177 474.555,89.177 C473.455,89.177 472.411,89.597 471.616,90.361 C471.347,90.619 470.972,90.735 470.604,90.673 C470.237,90.612 469.92,90.38 469.75,90.049 C468.875,88.347 467.146,87.29 465.236,87.29 C463.229,87.29 461.407,88.477 460.595,90.315 C460.432,90.683 460.094,90.942 459.696,91.004 C459.298,91.066 458.897,90.92 458.631,90.618 C457.824,89.702 456.663,89.177 455.445,89.177 C453.538,89.177 451.854,90.46 451.351,92.298 C451.25,92.664 450.979,92.959 450.623,93.091 C450.267,93.224 449.869,93.176 449.554,92.964 C448.854,92.493 448.036,92.244 447.188,92.244 C445.075,92.244 443.267,93.82 442.982,95.909 C442.936,96.247 442.745,96.548 442.46,96.735 C442.175,96.923 441.823,96.977 441.495,96.885 C441.119,96.78 440.733,96.727 440.346,96.727 C438.004,96.727 436.099,98.632 436.099,100.973 C436.099,101.368 436.155,101.761 436.264,102.143 C436.375,102.533 436.279,102.953 436.009,103.254 C435.738,103.556 435.332,103.697 434.932,103.631 C434.689,103.589 434.447,103.568 434.212,103.568 Z M493.547,132.086 C492.896,132.086 492.367,131.558 492.367,130.906 L492.367,129.019 C492.367,128.367 492.896,127.839 493.547,127.839 C494.198,127.839 494.727,128.367 494.727,129.019 L494.727,130.906 C494.727,131.558 494.198,132.086 493.547,132.086 Z M482.223,132.086 C481.571,132.086 481.043,131.558 481.043,130.906 L481.043,129.019 C481.043,128.367 481.571,127.839 482.223,127.839 C482.874,127.839 483.402,128.367 483.402,129.019 L483.402,130.906 C483.402,131.558 482.874,132.086 482.223,132.086 Z M470.898,132.086 C470.247,132.086 469.719,131.558 469.719,130.906 L469.719,129.019 C469.719,128.367 470.247,127.839 470.898,127.839 C471.549,127.839 472.078,128.367 472.078,129.019 L472.078,130.906 C472.078,131.558 471.549,132.086 470.898,132.086 Z M459.574,132.086 C458.922,132.086 458.394,131.558 458.394,130.906 L458.394,129.019 C458.394,128.367 458.922,127.839 459.574,127.839 C460.225,127.839 460.753,128.367 460.753,129.019 L460.753,130.906 C460.753,131.558 460.225,132.086 459.574,132.086 Z M448.249,132.086 C447.598,132.086 447.07,131.558 447.07,130.906 L447.07,129.019 C447.07,128.367 447.598,127.839 448.249,127.839 C448.901,127.839 449.429,128.367 449.429,129.019 L449.429,130.906 C449.429,131.558 448.901,132.086 448.249,132.086 Z M436.925,132.086 C436.274,132.086 435.745,131.558 435.745,130.906 L435.745,129.019 C435.745,128.367 436.274,127.839 436.925,127.839 C437.576,127.839 438.105,128.367 438.105,129.019 L438.105,130.906 C438.105,131.558 437.576,132.086 436.925,132.086 Z M487.885,123.828 C487.233,123.828 486.705,123.3 486.705,122.649 L486.705,120.761 C486.705,120.11 487.233,119.582 487.885,119.582 C488.536,119.582 489.064,120.11 489.064,120.761 L489.064,122.649 C489.064,123.3 488.536,123.828 487.885,123.828 Z M476.56,123.828 C475.909,123.828 475.381,123.3 475.381,122.649 L475.381,120.761 C475.381,120.11 475.909,119.582 476.56,119.582 C477.212,119.582 477.74,120.11 477.74,120.761 L477.74,122.649 C477.74,123.3 477.212,123.828 476.56,123.828 Z M465.236,123.828 C464.585,123.828 464.056,123.3 464.056,122.649 L464.056,120.761 C464.056,120.11 464.585,119.582 465.236,119.582 C465.887,119.582 466.416,120.11 466.416,120.761 L466.416,122.649 C466.416,123.3 465.887,123.828 465.236,123.828 Z M453.912,123.828 C453.26,123.828 452.732,123.3 452.732,122.649 L452.732,120.761 C452.732,120.11 453.26,119.582 453.912,119.582 C454.563,119.582 455.091,120.11 455.091,120.761 L455.091,122.649 C455.091,123.3 454.563,123.828 453.912,123.828 Z M442.587,123.828 C441.936,123.828 441.408,123.3 441.408,122.649 L441.408,120.761 C441.408,120.11 441.936,119.582 442.587,119.582 C443.239,119.582 443.767,120.11 443.767,120.761 L443.767,122.649 C443.767,123.3 443.239,123.828 442.587,123.828 Z M470.898,114.863 C470.247,114.863 469.719,114.335 469.719,113.683 L469.719,111.796 C469.719,111.144 470.247,110.616 470.898,110.616 C471.549,110.616 472.078,111.144 472.078,111.796 L472.078,113.683 C472.078,114.335 471.549,114.863 470.898,114.863 Z M448.249,114.863 C447.598,114.863 447.07,114.335 447.07,113.683 L447.07,111.796 C447.07,111.144 447.598,110.616 448.249,110.616 C448.901,110.616 449.429,111.144 449.429,111.796 L449.429,113.683 C449.429,114.335 448.901,114.863 448.249,114.863 Z M482.223,114.391 C481.571,114.391 481.043,113.863 481.043,113.212 L481.043,111.324 C481.043,110.673 481.571,110.145 482.223,110.145 C482.874,110.145 483.402,110.673 483.402,111.324 L483.402,113.212 C483.402,113.863 482.874,114.391 482.223,114.391 Z M459.574,114.391 C458.922,114.391 458.394,113.863 458.394,113.212 L458.394,111.324 C458.394,110.673 458.922,110.145 459.574,110.145 C460.225,110.145 460.753,110.673 460.753,111.324 L460.753,113.212 C460.753,113.863 460.225,114.391 459.574,114.391 Z" />
        </g>
        <g id="Black-S">
            <path d="M700.389,137.07 L630.083,137.07 C629.762,137.07 629.455,136.939 629.232,136.707 C629.01,136.475 628.891,136.163 628.904,135.842 C628.946,134.827 629.022,133.82 629.133,132.823 L627.299,132.823 C626.976,132.823 626.668,132.691 626.446,132.458 C626.223,132.225 626.106,131.911 626.121,131.589 C626.144,131.084 626.175,130.582 626.215,130.081 C623.211,129.448 621,126.808 621,123.622 C621,121.325 622.182,119.241 624.058,118.048 C623.449,117.034 623.123,115.87 623.123,114.657 C623.123,111.788 624.993,109.28 627.631,108.394 C627.614,108.201 627.606,108.008 627.606,107.815 C627.606,104.329 630.319,101.466 633.745,101.225 C633.742,101.141 633.74,101.057 633.74,100.973 C633.74,97.331 636.703,94.367 640.346,94.367 C640.539,94.367 640.732,94.376 640.924,94.393 C641.811,91.754 644.319,89.885 647.188,89.885 C648.023,89.885 648.839,90.04 649.603,90.341 C650.729,88.213 652.966,86.818 655.445,86.818 C656.805,86.818 658.12,87.239 659.218,88.003 C660.598,86.099 662.826,84.93 665.236,84.93 C667.562,84.93 669.706,86.001 671.099,87.794 C672.13,87.158 673.319,86.818 674.555,86.818 C677.034,86.818 679.271,88.213 680.397,90.341 C681.161,90.04 681.977,89.885 682.812,89.885 C685.681,89.885 688.189,91.754 689.076,94.393 C689.268,94.376 689.461,94.367 689.654,94.367 C693.297,94.367 696.26,97.331 696.26,100.973 C696.26,101.057 696.258,101.141 696.255,101.225 C699.681,101.466 702.394,104.329 702.394,107.815 C702.394,108.008 702.386,108.201 702.369,108.394 C705.007,109.28 706.877,111.788 706.877,114.657 C706.877,115.87 706.551,117.034 705.942,118.048 C707.818,119.241 709,121.325 709,123.622 C709,126.573 707.013,129.151 704.247,129.962 C704.292,130.502 704.326,131.044 704.351,131.589 C704.366,131.911 704.248,132.225 704.026,132.458 C703.804,132.691 703.495,132.823 703.173,132.823 L701.34,132.823 C701.45,133.82 701.526,134.827 701.567,135.842 C701.581,136.163 701.462,136.475 701.24,136.707 C701.017,136.939 700.71,137.07 700.389,137.07 Z M631.33,134.71 L699.142,134.71 C699.085,133.897 699.005,133.093 698.902,132.297 C698.806,132.154 698.741,131.988 698.715,131.808 C696.211,114.069 682.127,101.194 665.228,101.194 C656.617,101.194 648.732,104.497 642.717,110.061 C636.26,116.081 632.031,124.738 631.33,134.71 Z M701.014,130.464 L701.92,130.464 C701.703,127.557 701.192,124.744 700.42,122.057 C696.323,108.752 686.423,98.815 674.192,95.534 C671.335,94.774 668.346,94.37 665.272,94.367 C647.609,94.387 632.206,108.578 628.857,127.646 C628.725,128.575 628.622,129.514 628.552,130.464 L629.345,130.464 C630.841,121.562 635.201,113.553 641.692,107.823 C646.582,103.506 652.466,100.634 658.709,99.449 C660.88,99.033 663.099,98.82 665.346,98.82 C674.635,98.82 683.45,102.472 690.166,109.103 C695.88,114.743 699.635,122.191 701.014,130.464 Z M634.212,103.568 C631.87,103.568 629.965,105.473 629.965,107.815 C629.965,108.202 630.018,108.588 630.124,108.964 C630.216,109.292 630.161,109.644 629.974,109.929 C629.787,110.215 629.486,110.405 629.148,110.451 C627.058,110.737 625.483,112.545 625.483,114.657 C625.483,115.784 625.92,116.846 626.715,117.648 C627.002,117.937 627.119,118.354 627.026,118.75 C626.932,119.147 626.64,119.467 626.253,119.597 C624.522,120.178 623.359,121.796 623.359,123.622 C623.359,125.578 624.655,127.213 626.453,127.711 C626.477,127.565 626.502,127.42 626.527,127.274 C629.411,107.181 645.692,92.008 665.236,92.008 C665.259,92.008 665.284,92.008 665.307,92.008 C666.348,92.008 667.384,92.053 668.415,92.143 C684.883,93.545 698.53,105.745 702.916,122.23 C703.418,123.951 703.823,125.71 704.126,127.498 C705.616,126.828 706.641,125.321 706.641,123.622 C706.641,121.796 705.478,120.178 703.747,119.597 C703.36,119.467 703.068,119.147 702.974,118.75 C702.881,118.354 702.998,117.937 703.285,117.647 C704.08,116.846 704.517,115.784 704.517,114.657 C704.517,112.545 702.942,110.737 700.852,110.451 C700.514,110.405 700.213,110.215 700.026,109.929 C699.839,109.644 699.784,109.292 699.876,108.964 C699.982,108.588 700.035,108.202 700.035,107.815 C700.035,105.238 697.727,103.178 695.068,103.631 C694.669,103.697 694.262,103.557 693.991,103.254 C693.721,102.953 693.625,102.533 693.736,102.143 C693.845,101.761 693.901,101.368 693.901,100.973 C693.901,98.632 691.996,96.727 689.654,96.727 C689.267,96.727 688.881,96.78 688.505,96.885 C688.177,96.977 687.825,96.922 687.54,96.735 C687.255,96.548 687.064,96.247 687.018,95.909 C686.733,93.82 684.925,92.244 682.812,92.244 C681.964,92.244 681.146,92.493 680.446,92.964 C680.13,93.176 679.732,93.223 679.377,93.091 C679.021,92.959 678.75,92.664 678.649,92.298 C678.146,90.46 676.462,89.177 674.555,89.177 C673.455,89.177 672.411,89.597 671.616,90.361 C671.347,90.619 670.972,90.735 670.604,90.673 C670.237,90.612 669.92,90.38 669.75,90.049 C668.875,88.347 667.146,87.29 665.236,87.29 C663.229,87.29 661.407,88.477 660.595,90.315 C660.432,90.683 660.094,90.942 659.696,91.004 C659.298,91.066 658.897,90.92 658.631,90.618 C657.824,89.702 656.663,89.177 655.445,89.177 C653.538,89.177 651.854,90.46 651.351,92.298 C651.25,92.664 650.979,92.959 650.623,93.091 C650.267,93.224 649.869,93.176 649.554,92.964 C648.854,92.493 648.036,92.244 647.188,92.244 C645.075,92.244 643.267,93.82 642.982,95.909 C642.936,96.247 642.745,96.548 642.46,96.735 C642.175,96.923 641.823,96.977 641.495,96.885 C641.119,96.78 640.733,96.727 640.346,96.727 C638.004,96.727 636.099,98.632 636.099,100.973 C636.099,101.368 636.155,101.761 636.264,102.143 C636.375,102.533 636.279,102.953 636.009,103.254 C635.738,103.556 635.332,103.697 634.932,103.631 C634.689,103.589 634.447,103.568 634.212,103.568 Z M693.547,132.086 C692.896,132.086 692.367,131.558 692.367,130.906 L692.367,129.019 C692.367,128.367 692.896,127.839 693.547,127.839 C694.198,127.839 694.727,128.367 694.727,129.019 L694.727,130.906 C694.727,131.558 694.198,132.086 693.547,132.086 Z M682.223,132.086 C681.571,132.086 681.043,131.558 681.043,130.906 L681.043,129.019 C681.043,128.367 681.571,127.839 682.223,127.839 C682.874,127.839 683.402,128.367 683.402,129.019 L683.402,130.906 C683.402,131.558 682.874,132.086 682.223,132.086 Z M670.898,132.086 C670.247,132.086 669.719,131.558 669.719,130.906 L669.719,129.019 C669.719,128.367 670.247,127.839 670.898,127.839 C671.549,127.839 672.078,128.367 672.078,129.019 L672.078,130.906 C672.078,131.558 671.549,132.086 670.898,132.086 Z M659.574,132.086 C658.922,132.086 658.394,131.558 658.394,130.906 L658.394,129.019 C658.394,128.367 658.922,127.839 659.574,127.839 C660.225,127.839 660.753,128.367 660.753,129.019 L660.753,130.906 C660.753,131.558 660.225,132.086 659.574,132.086 Z M648.249,132.086 C647.598,132.086 647.07,131.558 647.07,130.906 L647.07,129.019 C647.07,128.367 647.598,127.839 648.249,127.839 C648.901,127.839 649.429,128.367 649.429,129.019 L649.429,130.906 C649.429,131.558 648.901,132.086 648.249,132.086 Z M636.925,132.086 C636.274,132.086 635.745,131.558 635.745,130.906 L635.745,129.019 C635.745,128.367 636.274,127.839 636.925,127.839 C637.576,127.839 638.105,128.367 638.105,129.019 L638.105,130.906 C638.105,131.558 637.576,132.086 636.925,132.086 Z M687.885,123.828 C687.233,123.828 686.705,123.3 686.705,122.649 L686.705,120.761 C686.705,120.11 687.233,119.582 687.885,119.582 C688.536,119.582 689.064,120.11 689.064,120.761 L689.064,122.649 C689.064,123.3 688.536,123.828 687.885,123.828 Z M676.56,123.828 C675.909,123.828 675.381,123.3 675.381,122.649 L675.381,120.761 C675.381,120.11 675.909,119.582 676.56,119.582 C677.212,119.582 677.74,120.11 677.74,120.761 L677.74,122.649 C677.74,123.3 677.212,123.828 676.56,123.828 Z M665.236,123.828 C664.585,123.828 664.056,123.3 664.056,122.649 L664.056,120.761 C664.056,120.11 664.585,119.582 665.236,119.582 C665.887,119.582 666.416,120.11 666.416,120.761 L666.416,122.649 C666.416,123.3 665.887,123.828 665.236,123.828 Z M653.911,123.828 C653.26,123.828 652.732,123.3 652.732,122.649 L652.732,120.761 C652.732,120.11 653.26,119.582 653.911,119.582 C654.563,119.582 655.091,120.11 655.091,120.761 L655.091,122.649 C655.091,123.3 654.563,123.828 653.911,123.828 Z M642.587,123.828 C641.936,123.828 641.408,123.3 641.408,122.649 L641.408,120.761 C641.408,120.11 641.936,119.582 642.587,119.582 C643.239,119.582 643.767,120.11 643.767,120.761 L643.767,122.649 C643.767,123.3 643.239,123.828 642.587,123.828 Z M670.898,114.863 C670.247,114.863 669.719,114.335 669.719,113.683 L669.719,111.796 C669.719,111.144 670.247,110.616 670.898,110.616 C671.549,110.616 672.078,111.144 672.078,111.796 L672.078,113.683 C672.078,114.335 671.549,114.863 670.898,114.863 Z M648.249,114.863 C647.598,114.863 647.07,114.335 647.07,113.683 L647.07,111.796 C647.07,111.144 647.598,110.616 648.249,110.616 C648.901,110.616 649.429,111.144 649.429,111.796 L649.429,113.683 C649.429,114.335 648.901,114.863 648.249,114.863 Z M682.223,114.391 C681.571,114.391 681.043,113.863 681.043,113.212 L681.043,111.324 C681.043,110.673 681.571,110.145 682.223,110.145 C682.874,110.145 683.402,110.673 683.402,111.324 L683.402,113.212 C683.402,113.863 682.874,114.391 682.223,114.391 Z M659.574,114.391 C658.922,114.391 658.394,113.863 658.394,113.212 L658.394,111.324 C658.394,110.673 658.922,110.145 659.574,110.145 C660.225,110.145 660.753,110.673 660.753,111.324 L660.753,113.212 C660.753,113.863 660.225,114.391 659.574,114.391 Z" />
        </g>
    </g>
</svg>