<?xml version="1.0" encoding="UTF-8"?>
<svg height="600" width="800" xmlns="http://www.w3.org/2000/svg" xmlns:xlink="http://www.w3.org/1999/xlink">
    <style>
        .st0 { fill: #000000 }
    </style>
    <g id="Notes" font-family="'LucidaGrande', 'Lucida Grande', sans-serif" font-size="13">
        <rect fill="white" height="600.0" width="800.0" x="0.0" y="0.0" />
        <g font-size="13">
            <text x="18.0" y="176.0">Small</text>
            <text x="18.0" y="376.0">Medium</text>
            <text x="18.0" y="576.0">Large</text>
        </g>
        <g font-size="9">
            <text x="250.0" y="30.0">Ultralight</text>
            <text x="450.0" y="30.0">Regular</text>
            <text x="650.0" y="30.0">Black</text>
            <text id="template-version" fill="#505050" text-anchor="end" x="785.0" y="575.0">Template v.3.0</text>
            <a href="https://github.com/swhitty/SwiftDraw">
                <text fill="#505050" text-anchor="end" x="785.0" y="590.0">https://github.com/swhitty/SwiftDraw</text>
            </a>
        </g>
    </g>
    <g id="Guides" stroke="rgb(39, 170, 225)" stroke-width="0.5">
        <path id="Capline-S" d="M18,76 l800,0" />
        <path id="H-reference" d="M85,145.755 L87.685,145.755 L113.369,79.287 L114.052,79.287 L114.052,76 L112.148,76 L85,145.755 Z M95.693,121.536 L130.996,121.536 L130.263,119.313 L96.474,119.313 L95.693,121.536 Z M139.15,145.755 L141.787,145.755 L114.638,76 L113.466,76 L113.466,79.287 L139.15,145.755 Z" stroke="none" />
        <path id="Baseline-S" d="M18,146 l800,0" />
        <path id="left-margin-Ultralight-S" d="M221,56 l0,110" />
        <path id="right-margin-Ultralight-S" d="M309,56 l0,110" />
        <path id="left-margin-Regular-S" d="M421,56 l0,110" />
        <path id="right-margin-Regular-S" d="M509,56 l0,110" />
        <path id="left-margin-Black-S" d="M621,56 l0,110" />
        <path id="right-margin-Black-S" d="M709,56 l0,110" />
        <path id="Capline-M" d="M18,276 l800,0" />
        <path id="Baseline-M" d="M18,346 l800,0" />
        <path id="Capline-L" d="M18,476 l800,0" />
        <path id="Baseline-L" d="M18,546 l800,0" />
    </g>
    <g id="Symbols">
        <g id="Ultralight-S">
            <path d="M260.378,100.304 C260.975,100.501 261.621,100.178 261.818,99.582 L266.807,84.575 C267.005,83.98 266.681,83.334 266.084,83.137 C265.488,82.938 264.842,83.26 264.644,83.858 L259.658,98.863 C259.459,99.461 259.782,100.106 260.378,100.304 Z" />
            <path d="M264.328,101.475 C264.924,101.673 265.569,101.349 265.767,100.754 L270.35,86.968 C270.548,86.37 270.226,85.727 269.628,85.53 C269.031,85.33 268.387,85.653 268.189,86.249 L263.606,100.034 C263.407,100.632 263.73,101.276 264.328,101.475 Z" />
            <path d="M249.138,87.314 C250.161,87.799 250.421,88.863 250.71,89.866 C251.23,91.652 252.675,94.605 255.664,95.968 C256.503,96.352 257.611,96.766 258.78,97.169 L259.791,94.125 L257.829,93.191 C257.091,92.84 256.919,92.295 257.195,91.713 C257.448,91.183 257.906,90.761 258.667,91.088 L260.51,91.964 L261.37,89.375 L259.829,88.644 C259.152,88.34 259.132,87.64 259.385,87.109 C259.661,86.529 260.193,86.316 260.93,86.666 L262.088,87.216 L263.152,84.013 C262.638,83.717 262.152,83.448 261.719,83.234 C258.775,81.779 255.571,82.52 253.86,83.243 C252.9,83.651 251.911,84.123 250.886,83.635 L237.032,76.247 C236.464,75.966 235.806,75.921 235.205,76.131 C234.605,76.338 234.115,76.777 233.841,77.35 L233.675,77.701 C233.402,78.275 233.37,78.934 233.589,79.531 C233.806,80.127 234.254,80.61 234.833,80.874 L249.138,87.314 Z" />
            <path d="M268.399,103.031 C268.998,103.231 269.642,102.906 269.84,102.31 L274.205,89.181 C274.404,88.585 274.08,87.94 273.483,87.74 C272.887,87.542 272.24,87.864 272.042,88.461 L267.677,101.591 C267.48,102.188 267.802,102.833 268.399,103.031 Z" />
            <path d="M261.484,120.201 C262.653,119.369 264.261,118.527 266.357,117.768 C266.95,117.553 267.255,116.903 267.042,116.31 C266.828,115.719 266.176,115.412 265.583,115.626 C262.58,116.715 260.4,117.988 258.918,119.351 C258.178,120.031 257.612,120.738 257.22,121.468 C256.832,122.196 256.618,122.954 256.618,123.704 C256.616,124.51 256.876,125.293 257.342,125.932 C257.81,126.572 258.465,127.067 259.234,127.418 C260.221,127.864 261.345,128.036 262.544,128.036 C264.095,128.036 265.788,127.742 267.505,127.24 C269.221,126.737 270.958,126.024 272.578,125.158 C273.132,124.861 273.341,124.171 273.046,123.617 C272.748,123.063 272.058,122.853 271.504,123.15 C270.025,123.942 268.42,124.599 266.865,125.054 C265.31,125.51 263.802,125.76 262.544,125.758 C261.569,125.76 260.75,125.608 260.176,125.343 C259.699,125.127 259.38,124.858 259.185,124.591 C258.99,124.317 258.899,124.046 258.897,123.704 C258.897,123.388 258.986,122.999 259.23,122.541 C259.595,121.857 260.315,121.034 261.484,120.201 Z" />
            <path d="M256.363,116.462 C255.071,117.195 254.077,118.39 253.379,119.767 C252.686,121.149 252.289,122.728 252.286,124.31 C252.286,125.484 252.509,126.663 253.029,127.74 C253.544,128.816 254.373,129.781 255.513,130.459 C257.89,131.88 260.533,132.397 263.09,132.397 C266.018,132.397 268.855,131.728 271.217,130.896 C272.397,130.477 273.457,130.019 274.353,129.573 C275.249,129.127 275.972,128.7 276.505,128.32 C277.018,127.955 277.137,127.243 276.771,126.731 C276.405,126.221 275.695,126.101 275.182,126.466 C274.791,126.747 274.146,127.131 273.337,127.536 C270.904,128.75 266.953,130.126 263.09,130.12 C260.833,130.119 258.622,129.663 256.682,128.504 C255.934,128.055 255.428,127.462 255.08,126.75 C254.735,126.036 254.565,125.197 254.565,124.31 C254.564,123.117 254.879,121.853 255.415,120.792 C255.948,119.726 256.701,118.881 257.479,118.45 C258.028,118.142 258.221,117.447 257.914,116.899 C257.606,116.352 256.912,116.156 256.363,116.462 Z" />
            <path d="M256.329,135.654 C258.845,136.479 261.615,136.871 264.43,136.871 C269.103,136.868 273.908,135.796 277.89,133.719 C279.811,132.716 281.208,131.45 282.126,130.078 C283.043,128.708 283.474,127.237 283.474,125.856 C283.474,124.415 283.005,123.063 282.124,122.05 C281.251,121.035 279.935,120.39 278.455,120.395 C277.581,120.395 276.664,120.611 275.739,121.046 C275.17,121.312 274.924,121.991 275.192,122.56 C275.459,123.13 276.137,123.376 276.708,123.108 L276.708,123.107 C277.375,122.795 277.957,122.675 278.455,122.674 C279.294,122.68 279.92,122.999 280.406,123.546 C280.886,124.097 281.196,124.906 281.196,125.856 C281.196,126.765 280.914,127.791 280.232,128.811 C279.55,129.832 278.463,130.848 276.835,131.7 C273.242,133.582 268.752,134.595 264.431,134.592 C261.826,134.592 259.284,134.227 257.04,133.49 C254.793,132.754 252.85,131.648 251.396,130.196 C250.953,129.75 250.23,129.75 249.786,130.196 C249.341,130.64 249.341,131.361 249.786,131.806 C251.55,133.569 253.816,134.83 256.329,135.654 Z" />
            <path d="M251.904,120.034 C252.348,119.589 252.348,118.868 251.904,118.424 C251.459,117.978 250.737,117.978 250.292,118.424 C249.457,119.266 248.816,120.407 248.339,121.65 C247.868,122.895 247.577,124.234 247.573,125.495 C247.577,126.316 247.696,127.113 248.055,127.839 C248.334,128.402 249.018,128.631 249.581,128.348 C250.145,128.068 250.373,127.386 250.092,126.823 C249.953,126.551 249.851,126.078 249.853,125.495 C249.851,124.602 250.081,123.476 250.47,122.459 C250.851,121.443 251.401,120.529 251.904,120.034 Z" />
            <path d="M294.12,119.825 C291.77,116.421 287.912,113.652 282.972,111.713 C281.88,111.282 280.725,110.901 279.527,110.556 L279.527,110.602 C279.527,111.513 279.421,112.401 279.232,113.268 C281.857,114.059 284.189,115.063 286.165,116.237 C288.675,117.724 290.613,119.47 291.907,121.348 C293.202,123.231 293.865,125.228 293.866,127.331 C293.865,129.431 293.202,131.428 291.907,133.311 C289.97,136.129 286.566,138.652 281.99,140.446 C277.417,142.241 271.691,143.312 265.19,143.312 C256.516,143.316 249.307,141.405 244.368,138.428 C241.897,136.944 239.998,135.199 238.73,133.321 C237.463,131.439 236.813,129.44 236.81,127.331 C236.813,125.221 237.463,123.218 238.73,121.337 C240.628,118.523 243.964,116.004 248.486,114.213 C253.003,112.419 258.685,111.349 265.19,111.349 C267.323,111.349 269.376,111.465 271.329,111.681 C271.416,111.34 271.462,110.982 271.462,110.598 L271.462,109.004 C269.452,108.787 267.364,108.66 265.19,108.66 C256.125,108.663 248.472,110.631 242.984,113.926 C240.24,115.578 238.034,117.565 236.503,119.831 C234.97,122.098 234.12,124.655 234.122,127.332 C234.12,130.005 234.97,132.564 236.503,134.827 C238.807,138.229 242.605,141.003 247.493,142.947 C252.386,144.887 258.391,146 265.19,146 C274.252,145.998 281.975,144.029 287.536,140.738 C290.315,139.09 292.556,137.104 294.12,134.837 C295.685,132.572 296.557,130.013 296.555,127.331 C296.557,124.647 295.685,122.086 294.12,119.825 Z" />
            <path d="M273.756,94.164 L273.756,112.394 C273.753,113.405 273.528,114.291 273.1,115.126 C272.456,116.373 271.317,117.523 269.71,118.568 C268.109,119.615 266.057,120.547 263.692,121.383 C263.099,121.591 262.788,122.241 262.998,122.837 C263.207,123.429 263.858,123.741 264.451,123.531 C267.751,122.363 270.572,120.999 272.648,119.214 C273.683,118.321 274.533,117.313 275.123,116.171 C275.715,115.03 276.035,113.757 276.034,112.394 L276.034,94.164 C276.034,93.534 275.523,93.025 274.895,93.025 C274.266,93.025 273.756,93.534 273.756,94.164 Z" />
        </g>
        <g id="Regular-S">
            <path d="M460.378,100.304 C460.975,100.501 461.621,100.178 461.818,99.582 L466.807,84.575 C467.005,83.98 466.681,83.334 466.084,83.137 C465.488,82.938 464.842,83.26 464.644,83.858 L459.658,98.863 C459.459,99.461 459.782,100.106 460.378,100.304 Z" />
            <path d="M464.328,101.475 C464.924,101.673 465.569,101.349 465.767,100.754 L470.35,86.968 C470.548,86.37 470.226,85.727 469.628,85.53 C469.031,85.33 468.387,85.653 468.189,86.249 L463.606,100.034 C463.407,100.632 463.73,101.276 464.328,101.475 Z" />
            <path d="M449.138,87.314 C450.161,87.799 450.421,88.863 450.71,89.866 C451.23,91.652 452.675,94.605 455.664,95.968 C456.503,96.352 457.611,96.766 458.78,97.169 L459.791,94.125 L457.829,93.191 C457.091,92.84 456.919,92.295 457.195,91.713 C457.448,91.183 457.906,90.761 458.667,91.088 L460.51,91.964 L461.37,89.375 L459.829,88.644 C459.152,88.34 459.132,87.64 459.385,87.109 C459.661,86.529 460.193,86.316 460.93,86.666 L462.088,87.216 L463.152,84.013 C462.638,83.717 462.152,83.448 461.719,83.234 C458.775,81.779 455.571,82.52 453.86,83.243 C452.9,83.651 451.911,84.123 450.886,83.635 L437.032,76.247 C436.464,75.966 435.806,75.921 435.205,76.131 C434.605,76.338 434.115,76.777 433.841,77.35 L433.675,77.701 C433.402,78.275 433.37,78.934 433.589,79.531 C433.806,80.127 434.254,80.61 434.833,80.874 L449.138,87.314 Z" />
            <path d="M468.399,103.031 C468.998,103.231 469.642,102.906 469.84,102.31 L474.205,89.181 C474.404,88.585 474.08,87.94 473.483,87.74 C472.887,87.542 472.24,87.864 472.042,88.461 L467.677,101.591 C467.48,102.188 467.802,102.833 468.399,103.031 Z" />
            <path d="M461.484,120.201 C462.653,119.369 464.261,118.527 466.357,117.768 C466.95,117.553 467.255,116.903 467.042,116.31 C466.828,115.719 466.176,115.412 465.583,115.626 C462.58,116.715 460.4,117.988 458.918,119.351 C458.178,120.031 457.612,120.738 457.22,121.468 C456.832,122.196 456.618,122.954 456.618,123.704 C456.616,124.51 456.876,125.293 457.342,125.932 C457.81,126.572 458.465,127.067 459.234,127.418 C460.221,127.864 461.345,128.036 462.544,128.036 C464.095,128.036 465.788,127.742 467.505,127.24 C469.221,126.737 470.958,126.024 472.578,125.158 C473.132,124.861 473.341,124.171 473.046,123.617 C472.748,123.063 472.058,122.853 471.504,123.15 C470.025,123.942 468.42,124.599 466.865,125.054 C465.31,125.51 463.802,125.76 462.544,125.758 C461.569,125.76 460.75,125.608 460.176,125.343 C459.699,125.127 459.38,124.858 459.185,124.591 C458.99,124.317 458.899,124.046 458.897,123.704 C458.897,123.388 458.986,122.999 459.23,122.541 C459.595,121.857 460.315,121.034 461.484,120.201 Z" />
            <path d="M456.363,116.462 C455.071,117.195 454.077,118.39 453.379,119.767 C452.686,121.149 452.289,122.728 452.286,124.31 C452.286,125.484 452.509,126.663 453.029,127.74 C453.544,128.816 454.373,129.781 455.513,130.459 C457.89,131.88 460.533,132.397 463.09,132.397 C466.018,132.397 468.855,131.728 471.217,130.896 C472.397,130.477 473.457,130.019 474.353,129.573 C475.249,129.127 475.972,128.7 476.505,128.32 C477.018,127.955 477.137,127.243 476.771,126.731 C476.405,126.221 475.695,126.101 475.182,126.466 C474.791,126.747 474.146,127.131 473.337,127.536 C470.904,128.75 466.953,130.126 463.09,130.12 C460.833,130.119 458.622,129.663 456.682,128.504 C455.934,128.055 455.428,127.462 455.08,126.75 C454.735,126.036 454.565,125.197 454.565,124.31 C454.564,123.117 454.879,121.853 455.415,120.792 C455.948,119.726 456.701,118.881 457.479,118.45 C458.028,118.142 458.221,117.447 457.914,116.899 C457.606,116.352 456.912,116.156 456.363,116.462 Z" />
            <path d="M456.329,135.654 C458.845,136.479 461.615,136.871 464.43,136.871 C469.103,136.868 473.908,135.796 477.89,133.719 C479.811,132.716 481.208,131.45 482.126,130.078 C483.043,128.708 483.474,127.237 483.474,125.856 C483.474,124.415 483.005,123.063 482.124,122.05 C481.251,121.035 479.935,120.39 478.455,120.395 C477.581,120.395 476.664,120.611 475.739,121.046 C475.17,121.312 474.924,121.991 475.192,122.56 C475.459,123.13 476.137,123.376 476.708,123.108 L476.708,123.107 C477.375,122.795 477.957,122.675 478.455,122.674 C479.294,122.68 479.92,122.999 480.406,123.546 C480.886,124.097 481.196,124.906 481.196,125.856 C481.196,126.765 480.914,127.791 480.232,128.811 C479.55,129.832 478.463,130.848 476.835,131.7 C473.242,133.582 468.752,134.595 464.431,134.592 C461.826,134.592 459.284,134.227 457.04,133.49 C454.793,132.754 452.85,131.648 451.396,130.196 C450.953,129.75 450.23,129.75 449.786,130.196 C449.341,130.64 449.341,131.361 449.786,131.806 C451.55,133.569 453.816,134.83 456.329,135.654 Z" />
            <path d="M451.904,120.034 C452.348,119.589 452.348,118.868 451.904,118.424 C451.459,117.978 450.737,117.978 450.292,118.424 C449.457,119.266 448.816,120.407 448.339,121.65 C447.868,122.895 447.577,124.234 447.573,125.495 C447.577,126.316 447.696,127.113 448.055,127.839 C448.334,128.402 449.018,128.631 449.581,128.348 C450.145,128.068 450.373,127.386 450.092,126.823 C449.953,126.551 449.851,126.078 449.853,125.495 C449.851,124.602 450.081,123.476 450.47,122.459 C450.851,121.443 451.401,120.529 451.904,120.034 Z" />
            <path d="M494.12,119.825 C491.77,116.421 487.912,113.652 482.972,111.713 C481.88,111.282 480.725,110.901 479.527,110.556 L479.527,110.602 C479.527,111.513 479.421,112.401 479.232,113.268 C481.857,114.059 484.189,115.063 486.165,116.237 C488.675,117.724 490.613,119.47 491.907,121.348 C493.202,123.231 493.865,125.228 493.866,127.331 C493.865,129.431 493.202,131.428 491.907,133.311 C489.97,136.129 486.566,138.652 481.99,140.446 C477.417,142.241 471.691,143.312 465.19,143.312 C456.516,143.316 449.307,141.405 444.368,138.428 C441.897,136.944 439.998,135.199 438.73,133.321 C437.463,131.439 436.813,129.44 436.81,127.331 C436.813,125.221 437.463,123.218 438.73,121.337 C440.628,118.523 443.964,116.004 448.486,114.213 C453.003,112.419 458.685,111.349 465.19,111.349 C467.323,111.349 469.376,111.465 471.329,111.681 C471.416,111.34 471.462,110.982 471.462,110.598 L471.462,109.004 C469.452,108.787 467.364,108.66 465.19,108.66 C456.125,108.663 448.472,110.631 442.984,113.926 C440.24,115.578 438.034,117.565 436.503,119.831 C434.97,122.098 434.12,124.655 434.122,127.332 C434.12,130.005 434.97,132.564 436.503,134.827 C438.807,138.229 442.605,141.003 447.493,142.947 C452.386,144.887 458.391,146 465.19,146 C474.252,145.998 481.975,144.029 487.536,140.738 C490.315,139.09 492.556,137.104 494.12,134.837 C495.685,132.572 496.557,130.013 496.555,127.331 C496.557,124.647 495.685,122.086 494.12,119.825 Z" />
            <path d="M473.756,94.164 L473.756,112.394 C473.753,113.405 473.528,114.291 473.1,115.126 C472.456,116.373 471.317,117.523 469.71,118.568 C468.109,119.615 466.057,120.547 463.692,121.383 C463.099,121.591 462.788,122.241 462.998,122.837 C463.207,123.429 463.858,123.741 464.451,123.531 C467.751,122.363 470.572,120.999 472.648,119.214 C473.683,118.321 474.533,117.313 475.123,116.171 C475.715,115.03 476.035,113.757 476.034,112.394 L476.034,94.164 C476.034,93.534 475.523,93.025 474.895,93.025 C474.266,93.025 473.756,93.534 473.756,94.164 Z" />
        </g>
        <g id="Black-S">
            <path d="M660.378,100.304 C660.975,100.501 661.621,100.178 661.818,99.582 L666.807,84.575 C667.005,83.98 666.681,83.334 666.084,83.137 C665.488,82.938 664.842,83.26 664.644,83.858 L659.658,98.863 C659.459,99.461 659.782,100.106 660.378,100.304 Z" />
            <path d="M664.328,101.475 C664.924,101.673 665.569,101.349 665.767,100.754 L670.35,86.968 C670.548,86.37 670.226,85.727 669.628,85.53 C669.031,85.33 668.387,85.653 668.189,86.249 L663.605,100.034 C663.407,100.632 663.73,101.276 664.328,101.475 Z" />
            <path d="M649.138,87.314 C650.161,87.799 650.421,88.863 650.71,89.866 C651.23,91.652 652.675,94.605 655.664,95.968 C656.503,96.352 657.611,96.766 658.78,97.169 L659.791,94.125 L657.829,93.191 C657.091,92.84 656.919,92.295 657.195,91.713 C657.448,91.183 657.906,90.761 658.667,91.088 L660.51,91.964 L661.37,89.375 L659.829,88.644 C659.152,88.34 659.132,87.64 659.385,87.109 C659.661,86.529 660.193,86.316 660.93,86.666 L662.088,87.216 L663.152,84.013 C662.638,83.717 662.152,83.448 661.719,83.234 C658.775,81.779 655.571,82.52 653.86,83.243 C652.9,83.651 651.911,84.123 650.886,83.635 L637.032,76.247 C636.464,75.966 635.805,75.921 635.205,76.131 C634.605,76.338 634.115,76.777 633.841,77.35 L633.675,77.701 C633.402,78.275 633.37,78.934 633.589,79.531 C633.806,80.127 634.254,80.61 634.833,80.874 L649.138,87.314 Z" />
            <path d="M668.399,103.031 C668.998,103.231 669.642,102.906 669.84,102.31 L674.205,89.181 C674.404,88.585 674.08,87.94 673.483,87.74 C672.887,87.542 672.24,87.864 672.042,88.461 L667.677,101.591 C667.48,102.188 667.802,102.833 668.399,103.031 Z" />
            <path d="M661.484,120.201 C662.653,119.369 664.261,118.527 666.357,117.768 C666.95,117.553 667.255,116.903 667.042,116.31 C666.828,115.719 666.176,115.412 665.583,115.626 C662.58,116.715 660.4,117.988 658.918,119.351 C658.178,120.031 657.612,120.738 657.22,121.468 C656.831,122.196 656.618,122.954 656.618,123.704 C656.616,124.51 656.876,125.293 657.342,125.932 C657.81,126.572 658.465,127.067 659.234,127.418 C660.221,127.864 661.345,128.036 662.544,128.036 C664.095,128.036 665.788,127.742 667.505,127.24 C669.221,126.737 670.958,126.024 672.578,125.158 C673.132,124.861 673.341,124.171 673.046,123.617 C672.748,123.063 672.058,122.853 671.504,123.15 C670.025,123.942 668.42,124.599 666.865,125.054 C665.31,125.51 663.802,125.76 662.544,125.758 C661.569,125.76 660.75,125.608 660.176,125.343 C659.699,125.127 659.38,124.858 659.185,124.591 C658.99,124.317 658.899,124.046 658.897,123.704 C658.897,123.388 658.986,122.999 659.23,122.541 C659.595,121.857 660.315,121.034 661.484,120.201 Z" />
            <path d="M656.363,116.462 C655.071,117.195 654.077,118.39 653.379,119.767 C652.686,121.149 652.289,122.728 652.286,124.31 C652.286,125.484 652.509,126.663 653.029,127.74 C653.544,128.816 654.373,129.781 655.513,130.459 C657.89,131.88 660.532,132.397 663.089,132.397 C666.018,132.397 668.855,131.728 671.217,130.896 C672.397,130.477 673.457,130.019 674.353,129.573 C675.249,129.127 675.972,128.7 676.505,128.32 C677.018,127.955 677.137,127.243 676.771,126.731 C676.405,126.221 675.695,126.101 675.182,126.466 C674.791,126.747 674.146,127.131 673.337,127.536 C670.904,128.75 666.953,130.126 663.09,130.12 C660.833,130.119 658.622,129.663 656.682,128.504 C655.934,128.055 655.427,127.462 655.08,126.75 C654.735,126.036 654.565,125.197 654.565,124.31 C654.564,123.117 654.879,121.853 655.415,120.792 C655.948,119.726 656.701,118.881 657.479,118.45 C658.028,118.142 658.221,117.447 657.914,116.899 C657.606,116.352 656.912,116.156 656.363,116.462 Z" />
            <path d="M656.329,135.654 C658.845,136.479 661.615,136.871 664.43,136.871 C669.103,136.868 673.908,135.796 677.89,133.719 C679.811,132.716 681.208,131.45 682.126,130.078 C683.043,128.708 683.474,127.237 683.474,125.856 C683.474,124.415 683.005,123.063 682.124,122.05 C681.251,121.035 679.935,120.39 678.455,120.395 C677.581,120.395 676.664,120.611 675.739,121.046 C675.17,121.312 674.924,121.991 675.192,122.56 C675.459,123.13 676.137,123.376 676.708,123.108 L676.708,123.107 C677.375,122.795 677.957,122.675 678.455,122.674 C679.294,122.68 679.92,122.999 680.406,123.546 C680.886,124.097 681.196,124.906 681.196,125.856 C681.196,126.765 680.914,127.791 680.232,128.811 C679.55,129.832 678.463,130.848 676.835,131.7 C673.242,133.582 668.752,134.595 664.431,134.592 C661.826,134.592 659.284,134.227 657.04,133.49 C654.793,132.754 652.85,131.648 651.396,130.196 C650.953,129.75 650.23,129.75 649.786,130.196 C649.341,130.64 649.341,131.361 649.786,131.806 C651.55,133.569 653.816,134.83 656.329,135.654 Z" />
            <path d="M651.904,120.034 C652.348,119.589 652.348,118.868 651.904,118.424 C651.459,117.978 650.737,117.978 650.292,118.424 C649.457,119.266 648.816,120.407 648.339,121.65 C647.868,122.895 647.577,124.234 647.573,125.495 C647.577,126.316 647.696,127.113 648.055,127.839 C648.334,128.402 649.018,128.631 649.581,128.348 C650.145,128.068 650.373,127.386 650.092,126.823 C649.953,126.551 649.851,126.078 649.853,125.495 C649.85,124.602 650.081,123.476 650.47,122.459 C650.851,121.443 651.401,120.529 651.904,120.034 Z" />
            <path d="M694.12,119.825 C691.77,116.421 687.912,113.652 682.972,111.713 C681.88,111.282 680.725,110.901 679.527,110.556 L679.527,110.602 C679.527,111.513 679.421,112.401 679.232,113.268 C681.857,114.059 684.189,115.063 686.165,116.237 C688.675,117.724 690.613,119.47 691.907,121.348 C693.202,123.231 693.865,125.228 693.866,127.331 C693.865,129.431 693.202,131.428 691.907,133.311 C689.97,136.129 686.566,138.652 681.99,140.446 C677.417,142.241 671.691,143.312 665.19,143.312 C656.516,143.316 649.307,141.405 644.368,138.428 C641.897,136.944 639.998,135.199 638.73,133.321 C637.463,131.439 636.813,129.44 636.81,127.331 C636.813,125.221 637.463,123.218 638.73,121.337 C640.628,118.523 643.964,116.004 648.486,114.213 C653.003,112.419 658.685,111.349 665.19,111.349 C667.323,111.349 669.376,111.465 671.329,111.681 C671.416,111.34 671.462,110.982 671.462,110.598 L671.462,109.004 C669.452,108.787 667.364,108.66 665.19,108.66 C656.125,108.663 648.472,110.631 642.984,113.926 C640.24,115.578 638.034,117.565 636.503,119.831 C634.97,122.098 634.12,124.655 634.122,127.332 C634.12,130.005 634.97,132.564 636.503,134.827 C638.807,138.229 642.605,141.003 647.493,142.947 C652.386,144.887 658.391,146 665.19,146 C674.252,145.998 681.975,144.029 687.536,140.738 C690.315,139.09 692.556,137.104 694.12,134.837 C695.685,132.572 696.557,130.013 696.555,127.331 C696.557,124.647 695.685,122.086 694.12,119.825 Z" />
            <path d="M673.756,94.164 L673.756,112.394 C673.753,113.405 673.528,114.291 673.1,115.126 C672.456,116.373 671.317,117.523 669.71,118.568 C668.109,119.615 666.057,120.547 663.692,121.383 C663.099,121.591 662.788,122.241 662.998,122.837 C663.207,123.429 663.858,123.741 664.451,123.531 C667.751,122.363 670.572,120.999 672.648,119.214 C673.683,118.321 674.533,117.313 675.123,116.171 C675.715,115.03 676.035,113.757 676.034,112.394 L676.034,94.164 C676.034,93.534 675.523,93.025 674.895,93.025 C674.266,93.025 673.756,93.534 673.756,94.164 Z" />
        </g>
    </g>
</svg>