<?xml version="1.0" encoding="UTF-8"?>
<svg height="600" width="800" xmlns="http://www.w3.org/2000/svg" xmlns:xlink="http://www.w3.org/1999/xlink">
    <g id="Notes" font-family="'LucidaGrande', 'Lucida Grande', sans-serif" font-size="13">
        <rect fill="white" height="600.0" width="800.0" x="0.0" y="0.0" />
        <g font-size="13">
            <text x="18.0" y="176.0">Small</text>
            <text x="18.0" y="376.0">Medium</text>
            <text x="18.0" y="576.0">Large</text>
        </g>
        <g font-size="9">
            <text x="250.0" y="30.0">Ultralight</text>
            <text x="450.0" y="30.0">Regular</text>
            <text x="650.0" y="30.0">Black</text>
            <text id="template-version" fill="#505050" text-anchor="end" x="785.0" y="575.0">Template v.3.0</text>
            <a href="https://github.com/swhitty/SwiftDraw">
                <text fill="#505050" text-anchor="end" x="785.0" y="590.0">https://github.com/swhitty/SwiftDraw</text>
            </a>
        </g>
    </g>
    <g id="Guides" stroke="rgb(39, 170, 225)" stroke-width="0.5">
        <path id="Capline-S" d="M18,76 l800,0" />
        <path id="H-reference" d="M85,145.755 L87.685,145.755 L113.369,79.287 L114.052,79.287 L114.052,76 L112.148,76 L85,145.755 Z M95.693,121.536 L130.996,121.536 L130.263,119.313 L96.474,119.313 L95.693,121.536 Z M139.15,145.755 L141.787,145.755 L114.638,76 L113.466,76 L113.466,79.287 L139.15,145.755 Z" stroke="none" />
        <path id="Baseline-S" d="M18,146 l800,0" />
        <path id="left-margin-Ultralight-S" d="M211,56 l0,110" />
        <path id="right-margin-Ultralight-S" d="M319,56 l0,110" />
        <path id="left-margin-Regular-S" d="M411,56 l0,110" />
        <path id="right-margin-Regular-S" d="M519,56 l0,110" />
        <path id="left-margin-Black-S" d="M611,56 l0,110" />
        <path id="right-margin-Black-S" d="M719,56 l0,110" />
        <path id="Capline-M" d="M18,276 l800,0" />
        <path id="Baseline-M" d="M18,346 l800,0" />
        <path id="Capline-L" d="M18,476 l800,0" />
        <path id="Baseline-L" d="M18,546 l800,0" />
    </g>
    <g id="Symbols">
        <g id="Ultralight-S">
            <path d="M302.554,106.676 C298.777,103.224 293.503,100.34 287.253,98.297 C287.433,97.768 287.485,97.197 287.389,96.627 C287.303,96.114 287.103,95.633 286.809,95.216 C287.285,94.469 287.45,93.555 287.24,92.664 C287.138,92.225 286.948,91.816 286.685,91.459 C287.219,90.659 287.383,89.643 287.086,88.694 C286.948,88.252 286.72,87.852 286.421,87.514 C286.901,86.693 286.991,85.682 286.62,84.755 C286.158,83.603 285.077,82.863 283.902,82.781 C283.847,82.565 283.769,82.355 283.668,82.153 C283.299,81.414 282.665,80.864 281.881,80.603 C281.254,80.394 280.591,80.391 279.975,80.587 C279.969,80.578 279.964,80.569 279.958,80.56 C279.534,79.869 278.866,79.385 278.077,79.197 C277.405,79.036 276.713,79.108 276.097,79.395 C275.617,78.777 274.929,78.377 274.153,78.266 C273.444,78.164 272.736,78.316 272.136,78.693 C271.06,77.603 269.323,77.512 268.137,78.476 C267.571,78.027 266.872,77.8 266.144,77.835 C265.376,77.872 264.667,78.195 264.139,78.745 C262.839,77.954 261.121,78.262 260.187,79.498 C259.579,79.223 258.901,79.158 258.242,79.315 C257.453,79.503 256.785,79.986 256.359,80.677 C256.346,80.699 256.333,80.721 256.32,80.742 C254.908,80.316 253.346,80.955 252.666,82.315 C252.529,82.586 252.435,82.871 252.384,83.162 C251.305,83.324 250.359,84.041 249.931,85.11 C249.546,86.072 249.665,87.134 250.196,87.972 C249.927,88.294 249.722,88.668 249.595,89.076 C249.299,90.025 249.463,91.041 249.996,91.84 C249.734,92.197 249.544,92.606 249.442,93.044 C249.232,93.936 249.397,94.851 249.873,95.597 C249.673,95.879 249.522,96.191 249.416,96.519 C241.33,98.221 234.391,101.183 229.316,105.106 C223.876,109.311 221,114.312 221,119.565 C221,126.252 225.653,132.493 234.102,137.139 C242.371,141.686 253.344,144.19 265,144.19 C276.656,144.19 287.629,141.686 295.898,137.139 C304.347,132.493 309,126.252 309,119.565 C309,114.987 306.771,110.53 302.554,106.676 Z M251.347,106.271 C251.044,105.92 250.89,105.476 250.913,105.02 C250.936,104.567 251.131,104.144 251.462,103.827 C251.841,103.463 251.856,102.861 251.494,102.48 C251.158,102.127 250.995,101.65 251.047,101.169 C251.089,100.756 251.287,100.377 251.603,100.102 C251.805,99.926 251.924,99.672 251.93,99.403 C251.935,99.135 251.828,98.876 251.633,98.691 C251.285,98.36 251.113,97.899 251.162,97.42 C251.165,97.392 251.167,97.362 251.174,97.325 C251.237,96.95 251.438,96.612 251.74,96.374 C251.965,96.196 252.098,95.928 252.104,95.642 C252.109,95.355 251.985,95.082 251.767,94.897 C251.356,94.547 251.177,94.005 251.3,93.48 C251.379,93.144 251.579,92.849 251.863,92.649 C252.113,92.474 252.265,92.189 252.27,91.884 C252.275,91.578 252.134,91.289 251.89,91.105 C251.44,90.766 251.25,90.18 251.417,89.645 C251.517,89.325 251.735,89.056 252.032,88.887 C252.313,88.727 252.494,88.436 252.513,88.113 C252.531,87.79 252.385,87.479 252.125,87.288 C251.665,86.951 251.492,86.347 251.703,85.82 C251.931,85.25 252.532,84.934 253.131,85.068 C253.447,85.139 253.778,85.044 254.009,84.816 C254.24,84.588 254.339,84.259 254.273,83.941 C254.234,83.756 254.22,83.473 254.372,83.172 C254.663,82.59 255.373,82.354 255.951,82.643 C256.049,82.692 256.14,82.755 256.222,82.831 C256.492,83.079 256.88,83.151 257.221,83.016 C257.562,82.88 257.794,82.561 257.82,82.196 C257.833,82.008 257.889,81.834 257.984,81.679 C258.142,81.422 258.391,81.242 258.683,81.172 C258.976,81.103 259.278,81.151 259.535,81.31 C259.641,81.375 259.736,81.46 259.818,81.563 C260.053,81.856 260.439,81.984 260.802,81.89 C261.166,81.796 261.441,81.498 261.505,81.127 C261.535,80.952 261.603,80.793 261.707,80.654 C262.068,80.173 262.753,80.076 263.236,80.436 C263.349,80.521 263.444,80.627 263.519,80.752 C263.715,81.079 264.086,81.259 264.464,81.208 C264.842,81.157 265.153,80.887 265.257,80.52 C265.302,80.358 265.381,80.215 265.493,80.092 C265.685,79.88 265.949,79.756 266.234,79.743 C266.521,79.729 266.795,79.828 267.006,80.02 C267.12,80.123 267.209,80.25 267.273,80.395 C267.424,80.744 267.768,80.97 268.148,80.97 C268.151,80.97 268.153,80.97 268.156,80.97 C268.539,80.967 268.883,80.735 269.03,80.381 C269.093,80.229 269.182,80.1 269.296,79.997 C269.733,79.599 270.413,79.631 270.811,80.07 C270.919,80.188 270.997,80.327 271.043,80.484 C271.152,80.85 271.469,81.116 271.848,81.16 C272.228,81.205 272.596,81.018 272.786,80.687 C272.858,80.562 272.955,80.453 273.075,80.363 C273.308,80.188 273.595,80.115 273.883,80.156 C274.172,80.197 274.427,80.348 274.603,80.583 C274.702,80.715 274.768,80.868 274.799,81.037 C274.867,81.405 275.143,81.7 275.506,81.791 C275.869,81.881 276.252,81.752 276.485,81.459 C276.574,81.347 276.673,81.258 276.782,81.191 C277.039,81.033 277.342,80.984 277.635,81.054 C277.927,81.124 278.175,81.303 278.333,81.56 C278.426,81.712 278.481,81.878 278.496,82.056 C278.527,82.421 278.763,82.735 279.104,82.867 C279.446,82.998 279.832,82.923 280.099,82.673 C280.184,82.593 280.277,82.528 280.378,82.478 C280.659,82.337 280.979,82.314 281.279,82.414 C281.577,82.513 281.819,82.723 281.961,83.007 C282.069,83.221 282.107,83.46 282.073,83.699 C282.027,84.024 282.152,84.351 282.403,84.563 C282.655,84.775 282.998,84.842 283.311,84.742 C283.931,84.542 284.606,84.86 284.848,85.464 C285.053,85.977 284.901,86.554 284.47,86.902 C284.22,87.103 284.088,87.416 284.119,87.735 C284.149,88.054 284.337,88.336 284.62,88.487 C284.931,88.653 285.16,88.929 285.265,89.264 C285.432,89.798 285.242,90.385 284.792,90.724 C284.548,90.907 284.407,91.197 284.412,91.502 C284.417,91.808 284.568,92.092 284.818,92.267 C285.103,92.467 285.303,92.762 285.382,93.1 C285.505,93.623 285.326,94.166 284.915,94.515 C284.697,94.701 284.573,94.974 284.578,95.26 C284.584,95.546 284.717,95.815 284.942,95.992 C285.244,96.23 285.444,96.568 285.508,96.943 C285.585,97.403 285.45,97.867 285.137,98.215 C285.132,98.221 285.126,98.227 285.121,98.233 C285.098,98.261 285.072,98.287 285.045,98.313 C284.852,98.498 284.746,98.757 284.752,99.024 C284.759,99.292 284.877,99.545 285.079,99.721 C285.395,99.996 285.592,100.375 285.635,100.789 C285.686,101.269 285.523,101.746 285.188,102.098 C284.826,102.48 284.84,103.082 285.22,103.445 C285.551,103.762 285.746,104.186 285.769,104.638 C285.791,105.094 285.637,105.539 285.335,105.889 C285.013,106.263 285.028,106.82 285.37,107.175 C285.714,107.532 285.903,108 285.903,108.494 C285.903,109.285 285.405,110.004 284.664,110.283 C284.39,110.386 284.179,110.608 284.091,110.887 C284.002,111.165 284.046,111.469 284.21,111.711 C284.376,111.957 284.464,112.243 284.464,112.539 C284.464,113.358 283.798,114.024 282.979,114.024 C282.883,114.024 282.786,114.014 282.683,113.994 C282.371,113.933 282.049,114.031 281.825,114.256 C281.631,114.45 281.531,114.717 281.547,114.987 C281.533,115.792 280.873,116.443 280.064,116.443 C279.807,116.443 279.562,116.378 279.337,116.252 C279.083,116.109 278.779,116.09 278.51,116.2 C278.241,116.309 278.036,116.535 277.954,116.814 C277.769,117.438 277.185,117.874 276.533,117.874 C276.134,117.874 275.76,117.718 275.479,117.435 C275.243,117.197 274.9,117.101 274.575,117.18 C274.249,117.26 273.99,117.504 273.89,117.823 C273.695,118.448 273.126,118.867 272.472,118.867 C272.378,118.867 272.288,118.856 272.202,118.839 C270.489,118.14 269.15,117.4 267.779,116.642 C264.541,114.852 261.2,113.008 252.924,111.367 C252.561,111.083 252.184,110.811 251.899,110.612 C251.286,110.186 250.78,109.623 250.78,108.876 C250.78,108.382 250.969,107.913 251.313,107.556 C251.654,107.201 251.669,106.644 251.347,106.271 Z M266.854,118.313 C269.525,119.789 272.076,121.198 277.237,122.388 L279.321,124.298 L272.645,123.888 C272.186,123.86 271.769,124.165 271.659,124.614 C271.549,125.062 271.776,125.525 272.198,125.713 L278.981,128.727 L275.933,130.829 C272.796,131.083 269.925,131.717 266.927,132.381 C264.817,132.847 262.635,133.33 260.225,133.713 C259.358,133.85 258.315,133.92 257.128,133.92 C250.159,133.92 238.389,131.406 234.041,125.816 C232.519,123.861 232.072,121.76 232.672,119.394 C233.396,116.542 235.804,114.52 240.035,113.213 C241.877,112.644 243.819,112.355 245.807,112.355 C246.941,112.355 248.092,112.45 249.228,112.638 C259.722,114.37 263.348,116.374 266.854,118.313 Z M281.874,128.459 C281.843,128.115 281.627,127.815 281.312,127.675 L277.809,126.118 L281.894,126.369 C282.298,126.393 282.673,126.161 282.831,125.789 C282.989,125.417 282.896,124.986 282.598,124.713 L280.842,123.103 C280.955,123.122 281.064,123.142 281.179,123.161 C281.523,123.218 281.876,123.248 282.227,123.248 C283.086,123.248 283.897,122.984 284.738,122.747 C285.998,122.391 287.91,122.979 287.963,122.994 C289.573,123.442 290.623,124.404 291.085,125.854 C291.81,128.132 290.926,130.875 290.25,131.706 C289.668,132.42 289.084,132.712 288.232,132.712 C287.105,132.712 285.519,132.176 283.383,131.075 C283.282,131.023 283.173,130.989 283.061,130.975 C281.832,130.826 280.645,130.745 279.451,130.721 L281.466,129.332 C281.75,129.137 281.906,128.802 281.874,128.459 Z M290.878,122.333 C290.222,121.824 289.443,121.433 288.546,121.175 C288.242,121.043 287.174,120.623 285.912,120.623 C285.23,120.623 284.591,120.743 284.011,120.982 C283.202,121.315 282.329,121.418 281.493,121.278 C278.76,120.822 276.629,120.32 274.873,119.784 C274.967,119.69 275.055,119.591 275.138,119.486 C275.57,119.68 276.043,119.783 276.531,119.783 C277.676,119.783 278.73,119.195 279.35,118.275 C279.583,118.326 279.823,118.352 280.063,118.352 C281.601,118.352 282.904,117.322 283.318,115.916 C284.836,115.765 286.061,114.607 286.319,113.121 C286.748,113.092 287.182,113.075 287.62,113.075 C293.444,113.075 297.356,115.543 297.356,117.848 C297.356,119.796 294.656,121.647 290.878,122.333 Z M294.978,135.466 C286.986,139.861 276.34,142.281 265,142.281 C253.66,142.281 243.014,139.861 235.022,135.466 C227.211,131.171 222.909,125.524 222.909,119.565 C222.909,110.332 233.496,101.936 249.366,98.482 C249.449,98.787 249.572,99.081 249.736,99.353 C249.412,99.832 249.208,100.385 249.148,100.969 C249.068,101.718 249.229,102.463 249.596,103.105 C249.244,103.645 249.039,104.27 249.007,104.925 C248.973,105.605 249.127,106.271 249.446,106.86 C249.071,107.46 248.87,108.154 248.87,108.876 C248.87,109.536 249.042,110.171 249.352,110.728 C248.174,110.543 246.983,110.447 245.807,110.447 C243.628,110.447 241.496,110.764 239.472,111.389 C234.62,112.888 231.71,115.424 230.822,118.925 C230.078,121.858 230.654,124.571 232.534,126.989 C237.544,133.429 250.278,135.829 257.128,135.829 C258.415,135.829 259.558,135.752 260.524,135.598 C262.991,135.207 265.202,134.718 267.339,134.245 C271.113,133.409 274.677,132.62 278.771,132.62 C280.064,132.62 281.338,132.696 282.663,132.851 C285.032,134.058 286.805,134.621 288.233,134.621 C289.65,134.621 290.794,134.062 291.73,132.911 C292.789,131.611 293.817,128.143 292.904,125.275 C292.755,124.808 292.56,124.375 292.324,123.975 C296.535,122.939 299.265,120.583 299.265,117.847 C299.265,114.101 294.15,111.166 287.62,111.166 C287.309,111.166 286.999,111.175 286.692,111.189 C287.391,110.485 287.811,109.52 287.811,108.494 C287.811,107.772 287.61,107.078 287.235,106.478 C287.554,105.889 287.708,105.223 287.674,104.542 C287.642,103.888 287.437,103.263 287.085,102.723 C287.452,102.081 287.612,101.337 287.533,100.59 C287.526,100.524 287.517,100.458 287.506,100.394 C299.642,104.569 307.091,111.806 307.091,119.565 C307.091,125.524 302.789,131.171 294.978,135.466 Z" />
            <path d="M256.618,90.608 C256.858,90.608 257.098,90.582 257.332,90.531 C257.951,91.451 259.005,92.039 260.15,92.039 C260.638,92.039 261.111,91.937 261.544,91.742 C262.172,92.542 263.142,93.032 264.21,93.032 C264.868,93.032 265.508,92.836 266.052,92.484 C266.666,93.047 267.475,93.372 268.341,93.372 C269.206,93.372 270.015,93.047 270.629,92.484 C271.173,92.836 271.813,93.032 272.471,93.032 C273.539,93.032 274.509,92.542 275.138,91.742 C275.57,91.937 276.043,92.039 276.532,92.039 C277.677,92.039 278.73,91.451 279.35,90.531 C279.584,90.582 279.823,90.608 280.063,90.608 C281.933,90.608 283.455,89.086 283.455,87.216 C283.455,87.168 283.453,87.093 283.436,87.003 C283.334,86.486 282.833,86.15 282.315,86.25 C281.84,86.343 281.517,86.774 281.546,87.244 C281.531,88.049 280.871,88.699 280.063,88.699 C279.805,88.699 279.561,88.635 279.336,88.508 C279.082,88.365 278.778,88.346 278.509,88.456 C278.24,88.565 278.035,88.791 277.953,89.07 C277.768,89.694 277.184,90.13 276.531,90.13 C276.133,90.13 275.759,89.974 275.478,89.691 C275.242,89.453 274.898,89.357 274.574,89.436 C274.248,89.516 273.988,89.76 273.889,90.079 C273.694,90.704 273.125,91.123 272.471,91.123 C271.998,91.123 271.563,90.902 271.278,90.517 C271.082,90.252 270.764,90.107 270.432,90.134 C270.102,90.161 269.811,90.357 269.661,90.652 C269.406,91.152 268.9,91.463 268.341,91.463 C267.781,91.463 267.276,91.152 267.02,90.652 C266.87,90.357 266.578,90.161 266.249,90.134 C265.92,90.107 265.599,90.252 265.403,90.517 C265.118,90.902 264.683,91.123 264.21,91.123 C263.556,91.123 262.986,90.704 262.792,90.079 C262.693,89.76 262.433,89.516 262.107,89.436 C261.782,89.357 261.439,89.454 261.203,89.691 C260.922,89.974 260.548,90.13 260.15,90.13 C259.497,90.13 258.913,89.694 258.728,89.07 C258.646,88.791 258.441,88.565 258.172,88.456 C257.903,88.347 257.599,88.366 257.345,88.508 C257.12,88.635 256.876,88.699 256.618,88.699 C255.81,88.699 255.151,88.049 255.135,87.244 C255.164,86.774 254.841,86.343 254.366,86.25 C253.849,86.149 253.347,86.486 253.245,87.003 C253.228,87.093 253.226,87.167 253.226,87.216 C253.226,89.086 254.748,90.608 256.618,90.608 Z" />
            <path d="M256.618,98.816 C256.858,98.816 257.098,98.79 257.332,98.74 C257.951,99.659 259.005,100.248 260.15,100.248 C260.638,100.248 261.111,100.145 261.544,99.95 C262.172,100.75 263.142,101.24 264.21,101.24 C264.868,101.24 265.508,101.044 266.052,100.692 C266.666,101.255 267.475,101.58 268.341,101.58 C269.206,101.58 270.015,101.255 270.629,100.692 C271.173,101.044 271.813,101.24 272.471,101.24 C273.539,101.24 274.509,100.75 275.138,99.95 C275.57,100.145 276.043,100.248 276.532,100.248 C277.677,100.248 278.73,99.659 279.35,98.74 C279.584,98.79 279.823,98.816 280.063,98.816 C281.933,98.816 283.455,97.294 283.455,95.424 C283.455,95.376 283.453,95.302 283.436,95.212 C283.334,94.694 282.833,94.357 282.315,94.458 C281.84,94.552 281.517,94.982 281.546,95.452 C281.531,96.257 280.871,96.907 280.063,96.907 C279.805,96.907 279.561,96.843 279.336,96.716 C279.082,96.574 278.778,96.555 278.509,96.664 C278.24,96.773 278.035,96.999 277.953,97.278 C277.768,97.902 277.184,98.339 276.531,98.339 C276.133,98.339 275.759,98.183 275.478,97.9 C275.242,97.662 274.898,97.565 274.574,97.644 C274.248,97.724 273.988,97.968 273.889,98.288 C273.694,98.912 273.125,99.331 272.471,99.331 C271.998,99.331 271.563,99.11 271.278,98.726 C271.082,98.46 270.764,98.316 270.432,98.342 C270.102,98.369 269.811,98.565 269.661,98.86 C269.406,99.36 268.9,99.671 268.341,99.671 C267.781,99.671 267.276,99.36 267.02,98.86 C266.87,98.565 266.578,98.369 266.249,98.342 C265.92,98.315 265.599,98.46 265.403,98.726 C265.118,99.111 264.683,99.331 264.21,99.331 C263.556,99.331 262.986,98.912 262.792,98.288 C262.693,97.968 262.433,97.724 262.107,97.644 C261.782,97.565 261.439,97.662 261.203,97.9 C260.922,98.183 260.548,98.339 260.15,98.339 C259.497,98.339 258.913,97.902 258.728,97.278 C258.646,96.999 258.441,96.773 258.172,96.664 C257.903,96.555 257.599,96.574 257.345,96.716 C257.12,96.843 256.876,96.907 256.618,96.907 C255.81,96.907 255.151,96.257 255.135,95.452 C255.164,94.982 254.841,94.552 254.366,94.458 C253.849,94.357 253.347,94.694 253.245,95.212 C253.228,95.302 253.226,95.376 253.226,95.424 C253.226,97.294 254.748,98.816 256.618,98.816 Z" />
            <path d="M256.618,108.551 C256.858,108.551 257.098,108.525 257.332,108.475 C257.951,109.395 259.005,109.983 260.15,109.983 C260.638,109.983 261.111,109.88 261.544,109.685 C262.172,110.486 263.142,110.975 264.21,110.975 C264.868,110.975 265.508,110.78 266.052,110.427 C266.666,110.991 267.475,111.315 268.341,111.315 C269.206,111.315 270.015,110.991 270.629,110.427 C271.173,110.779 271.813,110.975 272.471,110.975 C273.539,110.975 274.509,110.486 275.138,109.685 C275.57,109.88 276.043,109.983 276.532,109.983 C277.677,109.983 278.73,109.395 279.35,108.475 C279.584,108.525 279.823,108.551 280.063,108.551 C281.933,108.551 283.455,107.029 283.455,105.159 C283.455,105.111 283.453,105.037 283.436,104.947 C283.334,104.43 282.833,104.093 282.315,104.194 C281.84,104.287 281.517,104.717 281.546,105.188 C281.531,105.992 280.871,106.642 280.063,106.642 C279.805,106.642 279.561,106.578 279.336,106.452 C279.082,106.309 278.778,106.29 278.509,106.399 C278.24,106.509 278.035,106.735 277.953,107.013 C277.768,107.638 277.184,108.074 276.531,108.074 C276.133,108.074 275.759,107.918 275.478,107.635 C275.242,107.397 274.898,107.301 274.574,107.38 C274.248,107.459 273.988,107.703 273.889,108.023 C273.694,108.647 273.125,109.067 272.471,109.067 C271.998,109.067 271.563,108.846 271.278,108.461 C271.082,108.195 270.764,108.051 270.432,108.077 C270.102,108.105 269.811,108.301 269.661,108.595 C269.406,109.096 268.9,109.406 268.341,109.406 C267.781,109.406 267.276,109.095 267.02,108.595 C266.87,108.301 266.578,108.105 266.249,108.077 C265.92,108.05 265.599,108.195 265.403,108.461 C265.118,108.846 264.683,109.067 264.21,109.067 C263.556,109.067 262.986,108.647 262.792,108.023 C262.693,107.703 262.433,107.459 262.107,107.38 C261.782,107.301 261.439,107.397 261.203,107.635 C260.922,107.918 260.548,108.074 260.15,108.074 C259.497,108.074 258.913,107.638 258.728,107.013 C258.646,106.735 258.441,106.509 258.172,106.399 C257.903,106.29 257.599,106.309 257.345,106.452 C257.12,106.578 256.876,106.642 256.618,106.642 C255.81,106.642 255.151,105.993 255.135,105.187 C255.164,104.717 254.841,104.287 254.366,104.194 C253.849,104.093 253.347,104.43 253.245,104.947 C253.228,105.037 253.226,105.111 253.226,105.159 C253.226,107.029 254.748,108.551 256.618,108.551 Z" />
            <path d="M265.409,88.689 C266.971,88.689 268.484,88.503 269.669,88.165 C270.741,87.859 271.502,87.447 271.942,86.934 C274.212,86.593 276.021,85.758 276.021,84.346 C276.021,82.434 272.702,81.578 269.413,81.578 C267.019,81.578 264.611,82.032 263.477,83.016 C261.933,83.179 258.431,83.773 258.431,85.803 C258.431,87.797 261.936,88.689 265.409,88.689 Z M269.413,83.487 C271.869,83.487 273.456,83.991 273.982,84.346 C273.456,84.702 271.869,85.205 269.413,85.205 C266.957,85.205 265.369,84.702 264.843,84.346 C265.369,83.991 266.957,83.487 269.413,83.487 Z M262.95,85.006 C263.346,85.86 264.517,86.438 266.001,86.771 C265.809,86.777 265.612,86.78 265.408,86.78 C262.622,86.78 260.927,86.168 260.44,85.804 C260.748,85.572 261.556,85.219 262.95,85.006 Z" />
        </g>
        <g id="Regular-S">
            <path d="M502.554,106.676 C498.777,103.224 493.503,100.34 487.253,98.297 C487.433,97.768 487.485,97.197 487.389,96.627 C487.303,96.114 487.103,95.633 486.809,95.216 C487.285,94.469 487.45,93.555 487.24,92.664 C487.138,92.225 486.948,91.816 486.685,91.459 C487.219,90.659 487.383,89.643 487.086,88.694 C486.948,88.252 486.72,87.852 486.421,87.514 C486.901,86.693 486.991,85.682 486.62,84.755 C486.158,83.603 485.077,82.863 483.902,82.781 C483.847,82.565 483.769,82.355 483.668,82.153 C483.299,81.414 482.665,80.864 481.881,80.603 C481.254,80.394 480.591,80.391 479.975,80.587 C479.969,80.578 479.964,80.569 479.958,80.56 C479.534,79.869 478.866,79.385 478.077,79.197 C477.405,79.036 476.713,79.108 476.097,79.395 C475.617,78.777 474.929,78.377 474.153,78.266 C473.444,78.164 472.736,78.316 472.136,78.693 C471.06,77.603 469.323,77.512 468.137,78.476 C467.571,78.027 466.872,77.8 466.144,77.835 C465.376,77.872 464.667,78.195 464.139,78.745 C462.839,77.954 461.121,78.262 460.187,79.498 C459.579,79.223 458.901,79.158 458.242,79.315 C457.453,79.503 456.785,79.986 456.359,80.677 C456.346,80.699 456.333,80.721 456.32,80.742 C454.908,80.316 453.346,80.955 452.666,82.315 C452.529,82.586 452.435,82.871 452.384,83.162 C451.305,83.324 450.359,84.041 449.931,85.11 C449.546,86.072 449.665,87.134 450.196,87.972 C449.927,88.294 449.722,88.668 449.595,89.076 C449.299,90.025 449.463,91.041 449.996,91.84 C449.734,92.197 449.544,92.606 449.442,93.044 C449.232,93.936 449.397,94.851 449.873,95.597 C449.673,95.879 449.522,96.191 449.416,96.519 C441.33,98.221 434.391,101.183 429.316,105.106 C423.876,109.311 421,114.312 421,119.565 C421,126.252 425.653,132.493 434.102,137.139 C442.371,141.686 453.344,144.19 465,144.19 C476.656,144.19 487.629,141.686 495.898,137.139 C504.347,132.493 509,126.252 509,119.565 C509,114.987 506.771,110.53 502.554,106.676 Z M451.347,106.271 C451.044,105.92 450.89,105.476 450.913,105.02 C450.936,104.567 451.131,104.144 451.462,103.827 C451.841,103.463 451.856,102.861 451.494,102.48 C451.158,102.127 450.995,101.65 451.047,101.169 C451.089,100.756 451.287,100.377 451.603,100.102 C451.805,99.926 451.924,99.672 451.93,99.403 C451.935,99.135 451.828,98.876 451.633,98.691 C451.285,98.36 451.113,97.899 451.162,97.42 C451.165,97.392 451.167,97.362 451.174,97.325 C451.237,96.95 451.438,96.612 451.74,96.374 C451.965,96.196 452.098,95.928 452.104,95.642 C452.109,95.355 451.985,95.082 451.767,94.897 C451.356,94.547 451.177,94.005 451.3,93.48 C451.379,93.144 451.579,92.849 451.863,92.649 C452.113,92.474 452.265,92.189 452.27,91.884 C452.275,91.578 452.134,91.289 451.89,91.105 C451.44,90.766 451.25,90.18 451.417,89.645 C451.517,89.325 451.735,89.056 452.032,88.887 C452.313,88.727 452.494,88.436 452.513,88.113 C452.531,87.79 452.385,87.479 452.125,87.288 C451.665,86.951 451.492,86.347 451.703,85.82 C451.931,85.25 452.532,84.934 453.131,85.068 C453.447,85.139 453.778,85.044 454.009,84.816 C454.24,84.588 454.339,84.259 454.273,83.941 C454.234,83.756 454.22,83.473 454.372,83.172 C454.663,82.59 455.373,82.354 455.951,82.643 C456.049,82.692 456.14,82.755 456.222,82.831 C456.492,83.079 456.88,83.151 457.221,83.016 C457.562,82.88 457.794,82.561 457.82,82.196 C457.833,82.008 457.889,81.834 457.984,81.679 C458.142,81.422 458.391,81.242 458.683,81.172 C458.976,81.103 459.278,81.151 459.535,81.31 C459.641,81.375 459.736,81.46 459.818,81.563 C460.053,81.856 460.439,81.984 460.802,81.89 C461.166,81.796 461.441,81.498 461.505,81.127 C461.535,80.952 461.603,80.793 461.707,80.654 C462.068,80.173 462.753,80.076 463.236,80.436 C463.349,80.521 463.444,80.627 463.519,80.752 C463.715,81.079 464.086,81.259 464.464,81.208 C464.842,81.157 465.153,80.887 465.257,80.52 C465.302,80.358 465.381,80.215 465.493,80.092 C465.685,79.88 465.949,79.756 466.234,79.743 C466.521,79.729 466.795,79.828 467.006,80.02 C467.12,80.123 467.209,80.25 467.273,80.395 C467.424,80.744 467.768,80.97 468.148,80.97 C468.151,80.97 468.153,80.97 468.156,80.97 C468.539,80.967 468.883,80.735 469.03,80.381 C469.093,80.229 469.182,80.1 469.296,79.997 C469.733,79.599 470.413,79.631 470.811,80.07 C470.919,80.188 470.997,80.327 471.043,80.484 C471.152,80.85 471.469,81.116 471.848,81.16 C472.228,81.205 472.596,81.018 472.786,80.687 C472.858,80.562 472.955,80.453 473.075,80.363 C473.308,80.188 473.595,80.115 473.883,80.156 C474.172,80.197 474.427,80.348 474.603,80.583 C474.702,80.715 474.768,80.868 474.799,81.037 C474.867,81.405 475.143,81.7 475.506,81.791 C475.869,81.881 476.252,81.752 476.485,81.459 C476.574,81.347 476.673,81.258 476.782,81.191 C477.039,81.033 477.342,80.984 477.635,81.054 C477.927,81.124 478.175,81.303 478.333,81.56 C478.426,81.712 478.481,81.878 478.496,82.056 C478.527,82.421 478.763,82.735 479.104,82.867 C479.446,82.998 479.832,82.923 480.099,82.673 C480.184,82.593 480.277,82.528 480.378,82.478 C480.659,82.337 480.979,82.314 481.279,82.414 C481.577,82.513 481.819,82.723 481.961,83.007 C482.069,83.221 482.107,83.46 482.073,83.699 C482.027,84.024 482.152,84.351 482.403,84.563 C482.655,84.775 482.998,84.842 483.311,84.742 C483.931,84.542 484.606,84.86 484.848,85.464 C485.053,85.977 484.901,86.554 484.47,86.902 C484.22,87.103 484.088,87.416 484.119,87.735 C484.149,88.054 484.337,88.336 484.62,88.487 C484.931,88.653 485.16,88.929 485.265,89.264 C485.432,89.798 485.242,90.385 484.792,90.724 C484.548,90.907 484.407,91.197 484.412,91.502 C484.417,91.808 484.568,92.092 484.818,92.267 C485.103,92.467 485.303,92.762 485.382,93.1 C485.505,93.623 485.326,94.166 484.915,94.515 C484.697,94.701 484.573,94.974 484.578,95.26 C484.584,95.546 484.717,95.815 484.942,95.992 C485.244,96.23 485.444,96.568 485.508,96.943 C485.585,97.403 485.45,97.867 485.137,98.215 C485.132,98.221 485.126,98.227 485.121,98.233 C485.098,98.261 485.072,98.287 485.045,98.313 C484.852,98.498 484.746,98.757 484.752,99.024 C484.759,99.292 484.877,99.545 485.079,99.721 C485.395,99.996 485.592,100.375 485.635,100.789 C485.686,101.269 485.523,101.746 485.188,102.098 C484.826,102.48 484.84,103.082 485.22,103.445 C485.551,103.762 485.746,104.186 485.769,104.638 C485.791,105.094 485.637,105.539 485.335,105.889 C485.013,106.263 485.028,106.82 485.37,107.175 C485.714,107.532 485.903,108 485.903,108.494 C485.903,109.285 485.405,110.004 484.664,110.283 C484.39,110.386 484.179,110.608 484.091,110.887 C484.002,111.165 484.046,111.469 484.21,111.711 C484.376,111.957 484.464,112.243 484.464,112.539 C484.464,113.358 483.798,114.024 482.979,114.024 C482.883,114.024 482.786,114.014 482.683,113.994 C482.371,113.933 482.049,114.031 481.825,114.256 C481.631,114.45 481.531,114.717 481.547,114.987 C481.533,115.792 480.873,116.443 480.064,116.443 C479.807,116.443 479.562,116.378 479.337,116.252 C479.083,116.109 478.779,116.09 478.51,116.2 C478.241,116.309 478.036,116.535 477.954,116.814 C477.769,117.438 477.185,117.874 476.533,117.874 C476.134,117.874 475.76,117.718 475.479,117.435 C475.243,117.197 474.9,117.101 474.575,117.18 C474.249,117.26 473.99,117.504 473.89,117.823 C473.695,118.448 473.126,118.867 472.472,118.867 C472.378,118.867 472.288,118.856 472.202,118.839 C470.489,118.14 469.15,117.4 467.779,116.642 C464.541,114.852 461.2,113.008 452.924,111.367 C452.561,111.083 452.184,110.811 451.899,110.612 C451.286,110.186 450.78,109.623 450.78,108.876 C450.78,108.382 450.969,107.913 451.313,107.556 C451.654,107.201 451.669,106.644 451.347,106.271 Z M466.854,118.313 C469.525,119.789 472.076,121.198 477.237,122.388 L479.321,124.298 L472.645,123.888 C472.186,123.86 471.769,124.165 471.659,124.614 C471.549,125.062 471.776,125.525 472.198,125.713 L478.981,128.727 L475.933,130.829 C472.796,131.083 469.925,131.717 466.927,132.381 C464.817,132.847 462.635,133.33 460.225,133.713 C459.358,133.85 458.315,133.92 457.128,133.92 C450.159,133.92 438.389,131.406 434.041,125.816 C432.519,123.861 432.072,121.76 432.672,119.394 C433.396,116.542 435.804,114.52 440.035,113.213 C441.877,112.644 443.819,112.355 445.807,112.355 C446.941,112.355 448.092,112.45 449.228,112.638 C459.722,114.37 463.348,116.374 466.854,118.313 Z M481.874,128.459 C481.843,128.115 481.627,127.815 481.312,127.675 L477.809,126.118 L481.894,126.369 C482.298,126.393 482.673,126.161 482.831,125.789 C482.989,125.417 482.896,124.986 482.598,124.713 L480.842,123.103 C480.955,123.122 481.064,123.142 481.179,123.161 C481.523,123.218 481.876,123.248 482.227,123.248 C483.086,123.248 483.897,122.984 484.738,122.747 C485.998,122.391 487.91,122.979 487.963,122.994 C489.573,123.442 490.623,124.404 491.085,125.854 C491.81,128.132 490.926,130.875 490.25,131.706 C489.668,132.42 489.084,132.712 488.232,132.712 C487.105,132.712 485.519,132.176 483.383,131.075 C483.282,131.023 483.173,130.989 483.061,130.975 C481.832,130.826 480.645,130.745 479.451,130.721 L481.466,129.332 C481.75,129.137 481.906,128.802 481.874,128.459 Z M490.878,122.333 C490.222,121.824 489.443,121.433 488.546,121.175 C488.242,121.043 487.174,120.623 485.912,120.623 C485.23,120.623 484.591,120.743 484.011,120.982 C483.202,121.315 482.329,121.418 481.493,121.278 C478.76,120.822 476.629,120.32 474.873,119.784 C474.967,119.69 475.055,119.591 475.138,119.486 C475.57,119.68 476.043,119.783 476.531,119.783 C477.676,119.783 478.73,119.195 479.35,118.275 C479.583,118.326 479.823,118.352 480.063,118.352 C481.601,118.352 482.904,117.322 483.318,115.916 C484.836,115.765 486.061,114.607 486.319,113.121 C486.748,113.092 487.182,113.075 487.62,113.075 C493.444,113.075 497.356,115.543 497.356,117.848 C497.356,119.796 494.656,121.647 490.878,122.333 Z M494.978,135.466 C486.986,139.861 476.34,142.281 465,142.281 C453.66,142.281 443.014,139.861 435.022,135.466 C427.211,131.171 422.909,125.524 422.909,119.565 C422.909,110.332 433.496,101.936 449.366,98.482 C449.449,98.787 449.572,99.081 449.736,99.353 C449.412,99.832 449.208,100.385 449.148,100.969 C449.068,101.718 449.229,102.463 449.596,103.105 C449.244,103.645 449.039,104.27 449.007,104.925 C448.973,105.605 449.127,106.271 449.446,106.86 C449.071,107.46 448.87,108.154 448.87,108.876 C448.87,109.536 449.042,110.171 449.352,110.728 C448.174,110.543 446.983,110.447 445.807,110.447 C443.628,110.447 441.496,110.764 439.472,111.389 C434.62,112.888 431.71,115.424 430.822,118.925 C430.078,121.858 430.654,124.571 432.534,126.989 C437.544,133.429 450.278,135.829 457.128,135.829 C458.415,135.829 459.558,135.752 460.524,135.598 C462.991,135.207 465.202,134.718 467.339,134.245 C471.113,133.409 474.677,132.62 478.771,132.62 C480.064,132.62 481.338,132.696 482.663,132.851 C485.032,134.058 486.805,134.621 488.233,134.621 C489.65,134.621 490.794,134.062 491.73,132.911 C492.789,131.611 493.817,128.143 492.904,125.275 C492.755,124.808 492.56,124.375 492.324,123.975 C496.535,122.939 499.265,120.583 499.265,117.847 C499.265,114.101 494.15,111.166 487.62,111.166 C487.309,111.166 486.999,111.175 486.692,111.189 C487.391,110.485 487.811,109.52 487.811,108.494 C487.811,107.772 487.61,107.078 487.235,106.478 C487.554,105.889 487.708,105.223 487.674,104.542 C487.642,103.888 487.437,103.263 487.085,102.723 C487.452,102.081 487.612,101.337 487.533,100.59 C487.526,100.524 487.517,100.458 487.506,100.394 C499.642,104.569 507.091,111.806 507.091,119.565 C507.091,125.524 502.789,131.171 494.978,135.466 Z" />
            <path d="M456.618,90.608 C456.858,90.608 457.098,90.582 457.332,90.531 C457.951,91.451 459.005,92.039 460.15,92.039 C460.638,92.039 461.111,91.937 461.544,91.742 C462.172,92.542 463.142,93.032 464.21,93.032 C464.868,93.032 465.508,92.836 466.052,92.484 C466.666,93.047 467.475,93.372 468.341,93.372 C469.206,93.372 470.015,93.047 470.629,92.484 C471.173,92.836 471.813,93.032 472.471,93.032 C473.539,93.032 474.509,92.542 475.138,91.742 C475.57,91.937 476.043,92.039 476.532,92.039 C477.677,92.039 478.73,91.451 479.35,90.531 C479.584,90.582 479.823,90.608 480.063,90.608 C481.933,90.608 483.455,89.086 483.455,87.216 C483.455,87.168 483.453,87.093 483.436,87.003 C483.334,86.486 482.833,86.15 482.315,86.25 C481.84,86.343 481.517,86.774 481.546,87.244 C481.531,88.049 480.871,88.699 480.063,88.699 C479.805,88.699 479.561,88.635 479.336,88.508 C479.082,88.365 478.778,88.346 478.509,88.456 C478.24,88.565 478.035,88.791 477.953,89.07 C477.768,89.694 477.184,90.13 476.531,90.13 C476.133,90.13 475.759,89.974 475.478,89.691 C475.242,89.453 474.898,89.357 474.574,89.436 C474.248,89.516 473.988,89.76 473.889,90.079 C473.694,90.704 473.125,91.123 472.471,91.123 C471.998,91.123 471.563,90.902 471.278,90.517 C471.082,90.252 470.764,90.107 470.432,90.134 C470.102,90.161 469.811,90.357 469.661,90.652 C469.406,91.152 468.9,91.463 468.341,91.463 C467.781,91.463 467.276,91.152 467.02,90.652 C466.87,90.357 466.578,90.161 466.249,90.134 C465.92,90.107 465.599,90.252 465.403,90.517 C465.118,90.902 464.683,91.123 464.21,91.123 C463.556,91.123 462.986,90.704 462.792,90.079 C462.693,89.76 462.433,89.516 462.107,89.436 C461.782,89.357 461.439,89.454 461.203,89.691 C460.922,89.974 460.548,90.13 460.15,90.13 C459.497,90.13 458.913,89.694 458.728,89.07 C458.646,88.791 458.441,88.565 458.172,88.456 C457.903,88.347 457.599,88.366 457.345,88.508 C457.12,88.635 456.876,88.699 456.618,88.699 C455.81,88.699 455.151,88.049 455.135,87.244 C455.164,86.774 454.841,86.343 454.366,86.25 C453.849,86.149 453.347,86.486 453.245,87.003 C453.228,87.093 453.226,87.167 453.226,87.216 C453.226,89.086 454.748,90.608 456.618,90.608 Z" />
            <path d="M456.618,98.816 C456.858,98.816 457.098,98.79 457.332,98.74 C457.951,99.659 459.005,100.248 460.15,100.248 C460.638,100.248 461.111,100.145 461.544,99.95 C462.172,100.75 463.142,101.24 464.21,101.24 C464.868,101.24 465.508,101.044 466.052,100.692 C466.666,101.255 467.475,101.58 468.341,101.58 C469.206,101.58 470.015,101.255 470.629,100.692 C471.173,101.044 471.813,101.24 472.471,101.24 C473.539,101.24 474.509,100.75 475.138,99.95 C475.57,100.145 476.043,100.248 476.532,100.248 C477.677,100.248 478.73,99.659 479.35,98.74 C479.584,98.79 479.823,98.816 480.063,98.816 C481.933,98.816 483.455,97.294 483.455,95.424 C483.455,95.376 483.453,95.302 483.436,95.212 C483.334,94.694 482.833,94.357 482.315,94.458 C481.84,94.552 481.517,94.982 481.546,95.452 C481.531,96.257 480.871,96.907 480.063,96.907 C479.805,96.907 479.561,96.843 479.336,96.716 C479.082,96.574 478.778,96.555 478.509,96.664 C478.24,96.773 478.035,96.999 477.953,97.278 C477.768,97.902 477.184,98.339 476.531,98.339 C476.133,98.339 475.759,98.183 475.478,97.9 C475.242,97.662 474.898,97.565 474.574,97.644 C474.248,97.724 473.988,97.968 473.889,98.288 C473.694,98.912 473.125,99.331 472.471,99.331 C471.998,99.331 471.563,99.11 471.278,98.726 C471.082,98.46 470.764,98.316 470.432,98.342 C470.102,98.369 469.811,98.565 469.661,98.86 C469.406,99.36 468.9,99.671 468.341,99.671 C467.781,99.671 467.276,99.36 467.02,98.86 C466.87,98.565 466.578,98.369 466.249,98.342 C465.92,98.315 465.599,98.46 465.403,98.726 C465.118,99.111 464.683,99.331 464.21,99.331 C463.556,99.331 462.986,98.912 462.792,98.288 C462.693,97.968 462.433,97.724 462.107,97.644 C461.782,97.565 461.439,97.662 461.203,97.9 C460.922,98.183 460.548,98.339 460.15,98.339 C459.497,98.339 458.913,97.902 458.728,97.278 C458.646,96.999 458.441,96.773 458.172,96.664 C457.903,96.555 457.599,96.574 457.345,96.716 C457.12,96.843 456.876,96.907 456.618,96.907 C455.81,96.907 455.151,96.257 455.135,95.452 C455.164,94.982 454.841,94.552 454.366,94.458 C453.849,94.357 453.347,94.694 453.245,95.212 C453.228,95.302 453.226,95.376 453.226,95.424 C453.226,97.294 454.748,98.816 456.618,98.816 Z" />
            <path d="M456.618,108.551 C456.858,108.551 457.098,108.525 457.332,108.475 C457.951,109.395 459.005,109.983 460.15,109.983 C460.638,109.983 461.111,109.88 461.544,109.685 C462.172,110.486 463.142,110.975 464.21,110.975 C464.868,110.975 465.508,110.78 466.052,110.427 C466.666,110.991 467.475,111.315 468.341,111.315 C469.206,111.315 470.015,110.991 470.629,110.427 C471.173,110.779 471.813,110.975 472.471,110.975 C473.539,110.975 474.509,110.486 475.138,109.685 C475.57,109.88 476.043,109.983 476.532,109.983 C477.677,109.983 478.73,109.395 479.35,108.475 C479.584,108.525 479.823,108.551 480.063,108.551 C481.933,108.551 483.455,107.029 483.455,105.159 C483.455,105.111 483.453,105.037 483.436,104.947 C483.334,104.43 482.833,104.093 482.315,104.194 C481.84,104.287 481.517,104.717 481.546,105.188 C481.531,105.992 480.871,106.642 480.063,106.642 C479.805,106.642 479.561,106.578 479.336,106.452 C479.082,106.309 478.778,106.29 478.509,106.399 C478.24,106.509 478.035,106.735 477.953,107.013 C477.768,107.638 477.184,108.074 476.531,108.074 C476.133,108.074 475.759,107.918 475.478,107.635 C475.242,107.397 474.898,107.301 474.574,107.38 C474.248,107.459 473.988,107.703 473.889,108.023 C473.694,108.647 473.125,109.067 472.471,109.067 C471.998,109.067 471.563,108.846 471.278,108.461 C471.082,108.195 470.764,108.051 470.432,108.077 C470.102,108.105 469.811,108.301 469.661,108.595 C469.406,109.096 468.9,109.406 468.341,109.406 C467.781,109.406 467.276,109.095 467.02,108.595 C466.87,108.301 466.578,108.105 466.249,108.077 C465.92,108.05 465.599,108.195 465.403,108.461 C465.118,108.846 464.683,109.067 464.21,109.067 C463.556,109.067 462.986,108.647 462.792,108.023 C462.693,107.703 462.433,107.459 462.107,107.38 C461.782,107.301 461.439,107.397 461.203,107.635 C460.922,107.918 460.548,108.074 460.15,108.074 C459.497,108.074 458.913,107.638 458.728,107.013 C458.646,106.735 458.441,106.509 458.172,106.399 C457.903,106.29 457.599,106.309 457.345,106.452 C457.12,106.578 456.876,106.642 456.618,106.642 C455.81,106.642 455.151,105.993 455.135,105.187 C455.164,104.717 454.841,104.287 454.366,104.194 C453.849,104.093 453.347,104.43 453.245,104.947 C453.228,105.037 453.226,105.111 453.226,105.159 C453.226,107.029 454.748,108.551 456.618,108.551 Z" />
            <path d="M465.409,88.689 C466.971,88.689 468.484,88.503 469.669,88.165 C470.741,87.859 471.502,87.447 471.942,86.934 C474.212,86.593 476.021,85.758 476.021,84.346 C476.021,82.434 472.702,81.578 469.413,81.578 C467.019,81.578 464.611,82.032 463.477,83.016 C461.933,83.179 458.431,83.773 458.431,85.803 C458.431,87.797 461.936,88.689 465.409,88.689 Z M469.413,83.487 C471.869,83.487 473.456,83.991 473.982,84.346 C473.456,84.702 471.869,85.205 469.413,85.205 C466.957,85.205 465.369,84.702 464.843,84.346 C465.369,83.991 466.957,83.487 469.413,83.487 Z M462.95,85.006 C463.346,85.86 464.517,86.438 466.001,86.771 C465.809,86.777 465.612,86.78 465.408,86.78 C462.622,86.78 460.927,86.168 460.44,85.804 C460.748,85.572 461.556,85.219 462.95,85.006 Z" />
        </g>
        <g id="Black-S">
            <path d="M702.554,106.676 C698.777,103.224 693.503,100.34 687.253,98.297 C687.433,97.768 687.485,97.197 687.389,96.627 C687.303,96.114 687.103,95.633 686.809,95.216 C687.285,94.469 687.45,93.555 687.24,92.664 C687.138,92.225 686.948,91.816 686.685,91.459 C687.219,90.659 687.383,89.643 687.086,88.694 C686.948,88.252 686.72,87.852 686.421,87.514 C686.901,86.693 686.991,85.682 686.62,84.755 C686.158,83.603 685.077,82.863 683.902,82.781 C683.847,82.565 683.769,82.355 683.668,82.153 C683.299,81.414 682.665,80.864 681.881,80.603 C681.254,80.394 680.591,80.391 679.975,80.587 C679.969,80.578 679.964,80.569 679.958,80.56 C679.534,79.869 678.866,79.385 678.077,79.197 C677.405,79.036 676.713,79.108 676.097,79.395 C675.617,78.777 674.929,78.377 674.153,78.266 C673.444,78.164 672.736,78.316 672.136,78.693 C671.06,77.603 669.323,77.512 668.136,78.476 C667.571,78.027 666.872,77.8 666.144,77.835 C665.376,77.872 664.667,78.195 664.139,78.745 C662.839,77.954 661.121,78.262 660.187,79.498 C659.579,79.223 658.901,79.158 658.242,79.315 C657.453,79.503 656.785,79.986 656.359,80.677 C656.346,80.699 656.333,80.721 656.32,80.742 C654.908,80.316 653.346,80.955 652.666,82.315 C652.529,82.586 652.435,82.871 652.384,83.162 C651.305,83.324 650.359,84.041 649.931,85.11 C649.546,86.072 649.665,87.134 650.196,87.972 C649.927,88.294 649.722,88.668 649.595,89.076 C649.299,90.025 649.463,91.041 649.996,91.84 C649.734,92.197 649.544,92.606 649.442,93.044 C649.232,93.936 649.397,94.851 649.873,95.597 C649.674,95.879 649.522,96.191 649.416,96.519 C641.33,98.221 634.391,101.183 629.316,105.106 C623.876,109.311 621,114.312 621,119.565 C621,126.252 625.653,132.493 634.102,137.139 C642.371,141.686 653.344,144.19 665,144.19 C676.656,144.19 687.629,141.686 695.898,137.139 C704.347,132.493 709,126.252 709,119.565 C709,114.987 706.771,110.53 702.554,106.676 Z M651.347,106.271 C651.044,105.92 650.89,105.476 650.913,105.02 C650.936,104.567 651.131,104.144 651.462,103.827 C651.841,103.463 651.856,102.861 651.494,102.48 C651.158,102.127 650.995,101.65 651.047,101.169 C651.089,100.756 651.287,100.377 651.603,100.102 C651.805,99.926 651.924,99.672 651.93,99.403 C651.935,99.135 651.828,98.876 651.633,98.691 C651.285,98.36 651.113,97.899 651.162,97.42 C651.165,97.392 651.167,97.362 651.174,97.325 C651.237,96.95 651.438,96.612 651.74,96.374 C651.965,96.196 652.098,95.928 652.104,95.642 C652.109,95.355 651.985,95.082 651.767,94.897 C651.356,94.547 651.177,94.005 651.3,93.48 C651.379,93.144 651.579,92.849 651.863,92.649 C652.113,92.474 652.265,92.189 652.27,91.884 C652.275,91.578 652.134,91.289 651.89,91.105 C651.44,90.766 651.25,90.18 651.417,89.645 C651.517,89.325 651.735,89.056 652.032,88.887 C652.313,88.727 652.494,88.436 652.513,88.113 C652.531,87.79 652.385,87.479 652.125,87.288 C651.665,86.951 651.492,86.347 651.703,85.82 C651.931,85.25 652.532,84.934 653.131,85.068 C653.447,85.139 653.778,85.044 654.009,84.816 C654.24,84.588 654.339,84.259 654.273,83.941 C654.234,83.756 654.22,83.473 654.372,83.172 C654.663,82.59 655.373,82.354 655.951,82.643 C656.049,82.692 656.14,82.755 656.222,82.831 C656.492,83.079 656.88,83.151 657.221,83.016 C657.562,82.88 657.794,82.561 657.82,82.196 C657.833,82.008 657.889,81.834 657.984,81.679 C658.143,81.422 658.391,81.242 658.683,81.172 C658.976,81.103 659.278,81.151 659.535,81.31 C659.641,81.375 659.736,81.46 659.818,81.563 C660.053,81.856 660.439,81.984 660.802,81.89 C661.166,81.796 661.441,81.498 661.505,81.127 C661.535,80.952 661.603,80.793 661.707,80.654 C662.068,80.173 662.753,80.076 663.236,80.436 C663.349,80.521 663.444,80.627 663.519,80.752 C663.715,81.079 664.086,81.259 664.464,81.208 C664.842,81.157 665.154,80.887 665.257,80.52 C665.302,80.358 665.381,80.215 665.493,80.092 C665.685,79.88 665.949,79.756 666.234,79.743 C666.521,79.729 666.795,79.828 667.006,80.02 C667.12,80.123 667.209,80.25 667.273,80.395 C667.424,80.744 667.768,80.97 668.148,80.97 C668.151,80.97 668.153,80.97 668.156,80.97 C668.539,80.967 668.883,80.735 669.03,80.381 C669.093,80.229 669.182,80.1 669.296,79.997 C669.733,79.599 670.413,79.631 670.811,80.07 C670.919,80.188 670.997,80.327 671.043,80.484 C671.152,80.85 671.469,81.116 671.848,81.16 C672.228,81.205 672.596,81.018 672.786,80.687 C672.858,80.562 672.955,80.453 673.075,80.363 C673.308,80.188 673.595,80.115 673.883,80.156 C674.172,80.197 674.427,80.348 674.603,80.583 C674.702,80.715 674.768,80.868 674.799,81.037 C674.867,81.405 675.143,81.7 675.506,81.791 C675.869,81.881 676.252,81.752 676.485,81.459 C676.574,81.347 676.673,81.258 676.782,81.191 C677.039,81.033 677.342,80.984 677.635,81.054 C677.927,81.124 678.175,81.303 678.333,81.56 C678.426,81.712 678.481,81.878 678.496,82.056 C678.527,82.421 678.763,82.735 679.104,82.867 C679.446,82.998 679.832,82.923 680.099,82.673 C680.184,82.593 680.277,82.528 680.378,82.478 C680.659,82.337 680.979,82.314 681.279,82.414 C681.577,82.513 681.819,82.723 681.961,83.007 C682.069,83.221 682.107,83.46 682.073,83.699 C682.027,84.024 682.152,84.351 682.403,84.563 C682.655,84.775 682.998,84.842 683.311,84.742 C683.931,84.542 684.606,84.86 684.849,85.464 C685.053,85.977 684.901,86.554 684.47,86.902 C684.22,87.103 684.088,87.416 684.119,87.735 C684.149,88.054 684.337,88.336 684.62,88.487 C684.931,88.653 685.16,88.929 685.265,89.264 C685.432,89.798 685.242,90.385 684.792,90.724 C684.548,90.907 684.407,91.197 684.412,91.502 C684.417,91.808 684.568,92.092 684.818,92.267 C685.103,92.467 685.303,92.762 685.382,93.1 C685.505,93.623 685.326,94.166 684.915,94.515 C684.697,94.701 684.573,94.974 684.578,95.26 C684.583,95.546 684.717,95.815 684.942,95.992 C685.244,96.23 685.444,96.568 685.508,96.943 C685.585,97.403 685.45,97.867 685.138,98.215 C685.132,98.221 685.126,98.227 685.121,98.233 C685.098,98.261 685.072,98.287 685.045,98.313 C684.852,98.498 684.746,98.757 684.752,99.024 C684.759,99.292 684.877,99.545 685.079,99.721 C685.395,99.996 685.592,100.375 685.635,100.789 C685.686,101.269 685.523,101.746 685.188,102.098 C684.826,102.48 684.84,103.082 685.22,103.445 C685.551,103.762 685.746,104.186 685.769,104.638 C685.791,105.094 685.637,105.539 685.335,105.889 C685.013,106.263 685.028,106.82 685.37,107.175 C685.714,107.532 685.903,108 685.903,108.494 C685.903,109.285 685.405,110.004 684.664,110.283 C684.39,110.386 684.179,110.608 684.091,110.887 C684.002,111.165 684.046,111.469 684.21,111.711 C684.376,111.957 684.464,112.243 684.464,112.539 C684.464,113.358 683.798,114.024 682.979,114.024 C682.883,114.024 682.786,114.014 682.683,113.994 C682.371,113.933 682.049,114.031 681.825,114.256 C681.631,114.45 681.531,114.717 681.547,114.987 C681.533,115.792 680.873,116.443 680.064,116.443 C679.807,116.443 679.562,116.378 679.337,116.252 C679.083,116.109 678.779,116.09 678.51,116.2 C678.241,116.309 678.036,116.535 677.954,116.814 C677.769,117.438 677.185,117.874 676.533,117.874 C676.134,117.874 675.76,117.718 675.479,117.435 C675.243,117.197 674.9,117.101 674.575,117.18 C674.249,117.26 673.99,117.504 673.89,117.823 C673.695,118.448 673.126,118.867 672.472,118.867 C672.378,118.867 672.288,118.856 672.202,118.839 C670.489,118.14 669.15,117.4 667.779,116.642 C664.541,114.852 661.2,113.008 652.924,111.367 C652.561,111.083 652.184,110.811 651.899,110.612 C651.286,110.186 650.78,109.623 650.78,108.876 C650.78,108.382 650.969,107.913 651.313,107.556 C651.654,107.201 651.669,106.644 651.347,106.271 Z M666.854,118.313 C669.525,119.789 672.076,121.198 677.237,122.388 L679.321,124.298 L672.645,123.888 C672.186,123.86 671.769,124.165 671.659,124.614 C671.549,125.062 671.776,125.525 672.198,125.713 L678.981,128.727 L675.933,130.829 C672.796,131.083 669.925,131.717 666.927,132.381 C664.817,132.847 662.635,133.33 660.225,133.713 C659.357,133.85 658.315,133.92 657.128,133.92 C650.159,133.92 638.389,131.406 634.041,125.816 C632.519,123.861 632.072,121.76 632.672,119.394 C633.396,116.542 635.804,114.52 640.035,113.213 C641.877,112.644 643.819,112.355 645.807,112.355 C646.941,112.355 648.092,112.45 649.228,112.638 C659.722,114.37 663.348,116.374 666.854,118.313 Z M681.874,128.459 C681.843,128.115 681.627,127.815 681.312,127.675 L677.809,126.118 L681.894,126.369 C682.298,126.393 682.673,126.161 682.831,125.789 C682.989,125.417 682.896,124.986 682.598,124.713 L680.842,123.103 C680.955,123.122 681.064,123.142 681.179,123.161 C681.523,123.218 681.876,123.248 682.227,123.248 C683.086,123.248 683.897,122.984 684.738,122.747 C685.998,122.391 687.91,122.979 687.963,122.994 C689.573,123.442 690.623,124.404 691.085,125.854 C691.81,128.132 690.926,130.875 690.25,131.706 C689.668,132.42 689.084,132.712 688.232,132.712 C687.105,132.712 685.519,132.176 683.383,131.075 C683.282,131.023 683.173,130.989 683.061,130.975 C681.832,130.826 680.645,130.745 679.451,130.721 L681.466,129.332 C681.75,129.137 681.906,128.802 681.874,128.459 Z M690.878,122.333 C690.222,121.824 689.443,121.433 688.546,121.175 C688.242,121.043 687.174,120.623 685.912,120.623 C685.23,120.623 684.591,120.743 684.011,120.982 C683.202,121.315 682.329,121.418 681.493,121.278 C678.76,120.822 676.629,120.32 674.873,119.784 C674.967,119.69 675.055,119.591 675.138,119.486 C675.57,119.68 676.043,119.783 676.531,119.783 C677.676,119.783 678.73,119.195 679.35,118.275 C679.583,118.326 679.823,118.352 680.063,118.352 C681.601,118.352 682.904,117.322 683.318,115.916 C684.836,115.765 686.061,114.607 686.319,113.121 C686.748,113.092 687.182,113.075 687.62,113.075 C693.444,113.075 697.356,115.543 697.356,117.848 C697.356,119.796 694.656,121.647 690.878,122.333 Z M694.978,135.466 C686.986,139.861 676.34,142.281 665,142.281 C653.66,142.281 643.014,139.861 635.022,135.466 C627.211,131.171 622.909,125.524 622.909,119.565 C622.909,110.332 633.496,101.936 649.366,98.482 C649.449,98.787 649.572,99.081 649.737,99.353 C649.412,99.832 649.208,100.385 649.148,100.969 C649.068,101.718 649.229,102.463 649.596,103.105 C649.244,103.645 649.039,104.27 649.007,104.925 C648.973,105.605 649.127,106.271 649.446,106.86 C649.071,107.46 648.87,108.154 648.87,108.876 C648.87,109.536 649.042,110.171 649.352,110.728 C648.174,110.543 646.983,110.447 645.807,110.447 C643.628,110.447 641.496,110.764 639.472,111.389 C634.62,112.888 631.71,115.424 630.822,118.925 C630.078,121.858 630.654,124.571 632.534,126.989 C637.544,133.429 650.278,135.829 657.128,135.829 C658.415,135.829 659.558,135.752 660.524,135.598 C662.991,135.207 665.202,134.718 667.339,134.245 C671.113,133.409 674.677,132.62 678.771,132.62 C680.064,132.62 681.338,132.696 682.663,132.851 C685.032,134.058 686.805,134.621 688.233,134.621 C689.65,134.621 690.794,134.062 691.73,132.911 C692.789,131.611 693.817,128.143 692.904,125.275 C692.755,124.808 692.56,124.375 692.324,123.975 C696.535,122.939 699.265,120.583 699.265,117.847 C699.265,114.101 694.15,111.166 687.62,111.166 C687.309,111.166 686.999,111.175 686.692,111.189 C687.391,110.485 687.811,109.52 687.811,108.494 C687.811,107.772 687.61,107.078 687.235,106.478 C687.554,105.889 687.708,105.223 687.674,104.542 C687.642,103.888 687.437,103.263 687.085,102.723 C687.452,102.081 687.612,101.337 687.533,100.59 C687.526,100.524 687.517,100.458 687.506,100.394 C699.642,104.569 707.091,111.806 707.091,119.565 C707.091,125.524 702.789,131.171 694.978,135.466 Z" />
            <path d="M656.618,90.608 C656.858,90.608 657.098,90.582 657.332,90.531 C657.951,91.451 659.005,92.039 660.149,92.039 C660.638,92.039 661.111,91.937 661.544,91.742 C662.172,92.542 663.142,93.032 664.21,93.032 C664.868,93.032 665.508,92.836 666.052,92.484 C666.666,93.047 667.475,93.372 668.341,93.372 C669.206,93.372 670.015,93.047 670.629,92.484 C671.173,92.836 671.813,93.032 672.471,93.032 C673.539,93.032 674.509,92.542 675.138,91.742 C675.57,91.937 676.043,92.039 676.532,92.039 C677.677,92.039 678.73,91.451 679.35,90.531 C679.584,90.582 679.823,90.608 680.063,90.608 C681.933,90.608 683.455,89.086 683.455,87.216 C683.455,87.168 683.453,87.093 683.436,87.003 C683.334,86.486 682.833,86.15 682.315,86.25 C681.84,86.343 681.517,86.774 681.546,87.244 C681.531,88.049 680.871,88.699 680.063,88.699 C679.805,88.699 679.561,88.635 679.336,88.508 C679.082,88.365 678.778,88.346 678.509,88.456 C678.24,88.565 678.035,88.791 677.953,89.07 C677.768,89.694 677.184,90.13 676.531,90.13 C676.133,90.13 675.759,89.974 675.478,89.691 C675.242,89.453 674.898,89.357 674.574,89.436 C674.248,89.516 673.988,89.76 673.889,90.079 C673.694,90.704 673.125,91.123 672.471,91.123 C671.998,91.123 671.563,90.902 671.278,90.517 C671.082,90.252 670.763,90.107 670.432,90.134 C670.102,90.161 669.811,90.357 669.661,90.652 C669.406,91.152 668.9,91.463 668.341,91.463 C667.781,91.463 667.276,91.152 667.02,90.652 C666.87,90.357 666.578,90.161 666.249,90.134 C665.92,90.107 665.599,90.252 665.403,90.517 C665.118,90.902 664.683,91.123 664.21,91.123 C663.556,91.123 662.987,90.704 662.792,90.079 C662.693,89.76 662.433,89.516 662.107,89.436 C661.782,89.357 661.439,89.454 661.203,89.691 C660.922,89.974 660.548,90.13 660.149,90.13 C659.497,90.13 658.913,89.694 658.728,89.07 C658.646,88.791 658.441,88.565 658.172,88.456 C657.903,88.347 657.599,88.366 657.345,88.508 C657.12,88.635 656.876,88.699 656.618,88.699 C655.81,88.699 655.151,88.049 655.135,87.244 C655.164,86.774 654.841,86.343 654.366,86.25 C653.849,86.149 653.347,86.486 653.245,87.003 C653.228,87.093 653.226,87.167 653.226,87.216 C653.226,89.086 654.748,90.608 656.618,90.608 Z" />
            <path d="M656.618,98.816 C656.858,98.816 657.098,98.79 657.332,98.74 C657.951,99.659 659.005,100.248 660.149,100.248 C660.638,100.248 661.111,100.145 661.544,99.95 C662.172,100.75 663.142,101.24 664.21,101.24 C664.868,101.24 665.508,101.044 666.052,100.692 C666.666,101.255 667.475,101.58 668.341,101.58 C669.206,101.58 670.015,101.255 670.629,100.692 C671.173,101.044 671.813,101.24 672.471,101.24 C673.539,101.24 674.509,100.75 675.138,99.95 C675.57,100.145 676.043,100.248 676.532,100.248 C677.677,100.248 678.73,99.659 679.35,98.74 C679.584,98.79 679.823,98.816 680.063,98.816 C681.933,98.816 683.455,97.294 683.455,95.424 C683.455,95.376 683.453,95.302 683.436,95.212 C683.334,94.694 682.833,94.357 682.315,94.458 C681.84,94.552 681.517,94.982 681.546,95.452 C681.531,96.257 680.871,96.907 680.063,96.907 C679.805,96.907 679.561,96.843 679.336,96.716 C679.082,96.574 678.778,96.555 678.509,96.664 C678.24,96.773 678.035,96.999 677.953,97.278 C677.768,97.902 677.184,98.339 676.531,98.339 C676.133,98.339 675.759,98.183 675.478,97.9 C675.242,97.662 674.898,97.565 674.574,97.644 C674.248,97.724 673.988,97.968 673.889,98.288 C673.694,98.912 673.125,99.331 672.471,99.331 C671.998,99.331 671.563,99.11 671.278,98.726 C671.082,98.46 670.763,98.316 670.432,98.342 C670.102,98.369 669.811,98.565 669.661,98.86 C669.406,99.36 668.9,99.671 668.341,99.671 C667.781,99.671 667.276,99.36 667.02,98.86 C666.87,98.565 666.578,98.369 666.249,98.342 C665.92,98.315 665.599,98.46 665.403,98.726 C665.118,99.111 664.683,99.331 664.21,99.331 C663.556,99.331 662.987,98.912 662.792,98.288 C662.693,97.968 662.433,97.724 662.107,97.644 C661.782,97.565 661.439,97.662 661.203,97.9 C660.922,98.183 660.548,98.339 660.149,98.339 C659.497,98.339 658.913,97.902 658.728,97.278 C658.646,96.999 658.441,96.773 658.172,96.664 C657.903,96.555 657.599,96.574 657.345,96.716 C657.12,96.843 656.876,96.907 656.618,96.907 C655.81,96.907 655.151,96.257 655.135,95.452 C655.164,94.982 654.841,94.552 654.366,94.458 C653.849,94.357 653.347,94.694 653.245,95.212 C653.228,95.302 653.226,95.376 653.226,95.424 C653.226,97.294 654.748,98.816 656.618,98.816 Z" />
            <path d="M656.618,108.551 C656.858,108.551 657.098,108.525 657.332,108.475 C657.951,109.395 659.005,109.983 660.149,109.983 C660.638,109.983 661.111,109.88 661.544,109.685 C662.172,110.486 663.142,110.975 664.21,110.975 C664.868,110.975 665.508,110.78 666.052,110.427 C666.666,110.991 667.475,111.315 668.341,111.315 C669.206,111.315 670.015,110.991 670.629,110.427 C671.173,110.779 671.813,110.975 672.471,110.975 C673.539,110.975 674.509,110.486 675.138,109.685 C675.57,109.88 676.043,109.983 676.532,109.983 C677.677,109.983 678.73,109.395 679.35,108.475 C679.584,108.525 679.823,108.551 680.063,108.551 C681.933,108.551 683.455,107.029 683.455,105.159 C683.455,105.111 683.453,105.037 683.436,104.947 C683.334,104.43 682.833,104.093 682.315,104.194 C681.84,104.287 681.517,104.717 681.546,105.188 C681.531,105.992 680.871,106.642 680.063,106.642 C679.805,106.642 679.561,106.578 679.336,106.452 C679.082,106.309 678.778,106.29 678.509,106.399 C678.24,106.509 678.035,106.735 677.953,107.013 C677.768,107.638 677.184,108.074 676.531,108.074 C676.133,108.074 675.759,107.918 675.478,107.635 C675.242,107.397 674.898,107.301 674.574,107.38 C674.248,107.459 673.988,107.703 673.889,108.023 C673.694,108.647 673.125,109.067 672.471,109.067 C671.998,109.067 671.563,108.846 671.278,108.461 C671.082,108.195 670.763,108.051 670.432,108.077 C670.102,108.105 669.811,108.301 669.661,108.595 C669.406,109.096 668.9,109.406 668.341,109.406 C667.781,109.406 667.276,109.095 667.02,108.595 C666.87,108.301 666.578,108.105 666.249,108.077 C665.92,108.05 665.599,108.195 665.403,108.461 C665.118,108.846 664.683,109.067 664.21,109.067 C663.556,109.067 662.987,108.647 662.792,108.023 C662.693,107.703 662.433,107.459 662.107,107.38 C661.782,107.301 661.439,107.397 661.203,107.635 C660.922,107.918 660.548,108.074 660.149,108.074 C659.497,108.074 658.913,107.638 658.728,107.013 C658.646,106.735 658.441,106.509 658.172,106.399 C657.903,106.29 657.599,106.309 657.345,106.452 C657.12,106.578 656.876,106.642 656.618,106.642 C655.81,106.642 655.151,105.993 655.135,105.187 C655.164,104.717 654.841,104.287 654.366,104.194 C653.849,104.093 653.347,104.43 653.245,104.947 C653.228,105.037 653.226,105.111 653.226,105.159 C653.226,107.029 654.748,108.551 656.618,108.551 Z" />
            <path d="M665.409,88.689 C666.971,88.689 668.484,88.503 669.669,88.165 C670.741,87.859 671.502,87.447 671.942,86.934 C674.212,86.593 676.021,85.758 676.021,84.346 C676.021,82.434 672.702,81.578 669.413,81.578 C667.019,81.578 664.611,82.032 663.477,83.016 C661.933,83.179 658.432,83.773 658.432,85.803 C658.432,87.797 661.936,88.689 665.409,88.689 Z M669.413,83.487 C671.869,83.487 673.456,83.991 673.982,84.346 C673.456,84.702 671.869,85.205 669.413,85.205 C666.957,85.205 665.369,84.702 664.843,84.346 C665.369,83.991 666.957,83.487 669.413,83.487 Z M662.95,85.006 C663.346,85.86 664.517,86.438 666.001,86.771 C665.809,86.777 665.612,86.78 665.408,86.78 C662.622,86.78 660.927,86.168 660.44,85.804 C660.748,85.572 661.556,85.219 662.95,85.006 Z" />
        </g>
    </g>
</svg>