<?xml version="1.0" encoding="UTF-8"?>
<svg height="600" width="800" xmlns="http://www.w3.org/2000/svg" xmlns:xlink="http://www.w3.org/1999/xlink">
    <g id="Notes" font-family="'LucidaGrande', 'Lucida Grande', sans-serif" font-size="13">
        <rect fill="white" height="600.0" width="800.0" x="0.0" y="0.0" />
        <g font-size="13">
            <text x="18.0" y="176.0">Small</text>
            <text x="18.0" y="376.0">Medium</text>
            <text x="18.0" y="576.0">Large</text>
        </g>
        <g font-size="9">
            <text x="250.0" y="30.0">Ultralight</text>
            <text x="450.0" y="30.0">Regular</text>
            <text x="650.0" y="30.0">Black</text>
            <text id="template-version" fill="#505050" text-anchor="end" x="785.0" y="575.0">Template v.3.0</text>
            <a href="https://github.com/swhitty/SwiftDraw">
                <text fill="#505050" text-anchor="end" x="785.0" y="590.0">https://github.com/swhitty/SwiftDraw</text>
            </a>
        </g>
    </g>
    <g id="Guides" stroke="rgb(39, 170, 225)" stroke-width="0.5">
        <path id="Capline-S" d="M18,76 l800,0" />
        <path id="H-reference" d="M85,145.755 L87.685,145.755 L113.369,79.287 L114.052,79.287 L114.052,76 L112.148,76 L85,145.755 Z M95.693,121.536 L130.996,121.536 L130.263,119.313 L96.474,119.313 L95.693,121.536 Z M139.15,145.755 L141.787,145.755 L114.638,76 L113.466,76 L113.466,79.287 L139.15,145.755 Z" stroke="none" />
        <path id="Baseline-S" d="M18,146 l800,0" />
        <path id="left-margin-Ultralight-S" d="M220,56 l0,110" />
        <path id="right-margin-Ultralight-S" d="M310,56 l0,110" />
        <path id="left-margin-Regular-S" d="M420,56 l0,110" />
        <path id="right-margin-Regular-S" d="M510,56 l0,110" />
        <path id="left-margin-Black-S" d="M620,56 l0,110" />
        <path id="right-margin-Black-S" d="M710,56 l0,110" />
        <path id="Capline-M" d="M18,276 l800,0" />
        <path id="Baseline-M" d="M18,346 l800,0" />
        <path id="Capline-L" d="M18,476 l800,0" />
        <path id="Baseline-L" d="M18,546 l800,0" />
    </g>
    <g id="Symbols">
        <g id="Ultralight-S">
            <path d="M265,76 C245.671,76 230,91.671 230,111 C230,130.329 245.671,146 265,146 C284.329,146 300,130.329 300,111 C300,91.671 284.329,76 265,76 M272.019,127.926 L261.59,113.149 L258.181,116.604 L258.181,127.926 L251.224,127.926 L251.224,94.074 L258.181,94.074 L258.181,108.021 L271.26,94.074 L280.402,94.074 L266.509,107.997 L281.113,127.926 L272.019,127.926" />
        </g>
        <g id="Regular-S">
            <path d="M465,76 C445.671,76 430,91.671 430,111 C430,130.329 445.671,146 465,146 C484.329,146 500,130.329 500,111 C500,91.671 484.329,76 465,76 M472.019,127.926 L461.59,113.149 L458.181,116.604 L458.181,127.926 L451.224,127.926 L451.224,94.074 L458.181,94.074 L458.181,108.021 L471.26,94.074 L480.402,94.074 L466.508,107.997 L481.113,127.926 L472.019,127.926" />
        </g>
        <g id="Black-S">
            <path d="M665,76 C645.671,76 630,91.671 630,111 C630,130.329 645.671,146 665,146 C684.329,146 700,130.329 700,111 C700,91.671 684.329,76 665,76 M672.019,127.926 L661.59,113.149 L658.181,116.604 L658.181,127.926 L651.224,127.926 L651.224,94.074 L658.181,94.074 L658.181,108.021 L671.26,94.074 L680.402,94.074 L666.509,107.997 L681.113,127.926 L672.019,127.926" />
        </g>
    </g>
</svg>