<?xml version="1.0" encoding="UTF-8"?>
<svg height="600" width="800" xmlns="http://www.w3.org/2000/svg" xmlns:xlink="http://www.w3.org/1999/xlink">
    <g id="Notes" font-family="'LucidaGrande', 'Lucida Grande', sans-serif" font-size="13">
        <rect fill="white" height="600.0" width="800.0" x="0.0" y="0.0" />
        <g font-size="13">
            <text x="18.0" y="176.0">Small</text>
            <text x="18.0" y="376.0">Medium</text>
            <text x="18.0" y="576.0">Large</text>
        </g>
        <g font-size="9">
            <text x="250.0" y="30.0">Ultralight</text>
            <text x="450.0" y="30.0">Regular</text>
            <text x="650.0" y="30.0">Black</text>
            <text id="template-version" fill="#505050" text-anchor="end" x="785.0" y="575.0">Template v.3.0</text>
            <a href="https://github.com/swhitty/SwiftDraw">
                <text fill="#505050" text-anchor="end" x="785.0" y="590.0">https://github.com/swhitty/SwiftDraw</text>
            </a>
        </g>
    </g>
    <g id="Guides" stroke="rgb(39, 170, 225)" stroke-width="0.5">
        <path id="Capline-S" d="M18,76 l800,0" />
        <path id="H-reference" d="M85,145.755 L87.685,145.755 L113.369,79.287 L114.052,79.287 L114.052,76 L112.148,76 L85,145.755 Z M95.693,121.536 L130.996,121.536 L130.263,119.313 L96.474,119.313 L95.693,121.536 Z M139.15,145.755 L141.787,145.755 L114.638,76 L113.466,76 L113.466,79.287 L139.15,145.755 Z" stroke="none" />
        <path id="Baseline-S" d="M18,146 l800,0" />
        <path id="left-margin-Ultralight-S" d="M221,56 l0,110" />
        <path id="right-margin-Ultralight-S" d="M309,56 l0,110" />
        <path id="left-margin-Regular-S" d="M421,56 l0,110" />
        <path id="right-margin-Regular-S" d="M509,56 l0,110" />
        <path id="left-margin-Black-S" d="M621,56 l0,110" />
        <path id="right-margin-Black-S" d="M709,56 l0,110" />
        <path id="Capline-M" d="M18,276 l800,0" />
        <path id="Baseline-M" d="M18,346 l800,0" />
        <path id="Capline-L" d="M18,476 l800,0" />
        <path id="Baseline-L" d="M18,546 l800,0" />
    </g>
    <g id="Symbols">
        <g id="Ultralight-S">
            <path d="M273.022,76 C272.579,76 272.135,76.043 271.702,76.128 C270.947,76.277 270.455,77.011 270.604,77.766 C270.735,78.431 271.318,78.891 271.97,78.891 C272.06,78.891 272.151,78.882 272.242,78.865 C272.497,78.814 272.759,78.789 273.022,78.789 C273.792,78.789 274.416,78.164 274.416,77.394 C274.417,76.624 273.792,76 273.022,76 Z" />
            <path d="M280.971,76.934 C280.201,76.934 279.576,77.558 279.576,78.328 L279.576,84.703 L273.201,84.703 C272.431,84.703 271.807,85.328 271.807,86.098 C271.807,91.151 275.918,95.262 280.971,95.262 C282.011,95.262 283.01,95.085 283.943,94.764 C282.933,99.668 278.805,103.446 273.73,103.929 C273.694,100.946 271.726,98.42 269.02,97.548 L269.02,82.791 C269.02,82.018 269.24,81.268 269.657,80.623 C270.075,79.976 269.89,79.113 269.243,78.695 C268.596,78.277 267.733,78.462 267.315,79.109 C266.606,80.207 266.231,81.48 266.231,82.791 L266.231,97.221 L263.769,97.221 L263.769,82.791 C263.769,79.047 260.723,76 256.978,76 C256.208,76 255.584,76.624 255.584,77.394 C255.584,78.164 256.208,78.789 256.978,78.789 C259.185,78.789 260.981,80.584 260.981,82.791 L260.981,97.548 C258.275,98.42 256.306,100.946 256.27,103.929 C251.196,103.446 247.068,99.668 246.057,94.764 C246.99,95.085 247.989,95.262 249.029,95.262 C254.082,95.262 258.193,91.151 258.193,86.098 C258.193,85.328 257.569,84.703 256.799,84.703 L250.424,84.703 L250.424,78.328 C250.424,77.558 249.799,76.934 249.029,76.934 C243.976,76.934 239.865,81.045 239.865,86.098 C239.865,88.864 241.1,91.347 243.044,93.028 C243.345,100.292 249.071,106.178 256.268,106.73 L256.268,108.635 C253.843,108.827 251.584,109.622 249.813,110.923 C247.633,112.524 246.433,114.694 246.433,117.032 C246.433,117.802 247.057,118.427 247.827,118.427 C248.597,118.427 249.221,117.802 249.221,117.032 C249.221,115.604 250.018,114.233 251.464,113.171 C252.767,112.213 254.443,111.613 256.268,111.434 L256.268,117.987 C253.843,118.18 251.584,118.975 249.813,120.276 C247.633,121.877 246.432,124.046 246.432,126.385 C246.432,127.155 247.057,127.779 247.827,127.779 C248.597,127.779 249.221,127.155 249.221,126.385 C249.221,124.957 250.018,123.585 251.464,122.523 C252.788,121.551 254.497,120.947 256.356,120.779 C256.614,122.38 257.434,123.794 258.607,124.815 C257.856,125.54 257.387,126.556 257.387,127.68 L257.387,129.694 C257.387,130.682 257.75,131.587 258.347,132.284 C257.75,132.981 257.387,133.886 257.387,134.874 L257.387,136.888 C257.387,137.307 257.452,137.71 257.573,138.09 C254.088,138.218 251.293,141.091 251.293,144.606 C251.293,145.376 251.917,146 252.687,146 C253.457,146 254.082,145.376 254.082,144.606 C254.082,142.547 255.757,140.872 257.815,140.872 L261.371,140.872 L268.629,140.872 L272.185,140.872 C274.243,140.872 275.918,142.547 275.918,144.606 C275.918,145.376 276.543,146 277.313,146 C278.083,146 278.707,145.376 278.707,144.606 C278.707,141.091 275.912,138.218 272.427,138.089 C272.547,137.71 272.613,137.306 272.613,136.888 L272.613,134.873 C272.613,133.885 272.25,132.981 271.653,132.284 C272.25,131.586 272.613,130.682 272.613,129.694 L272.613,127.68 C272.613,126.556 272.144,125.54 271.393,124.815 C272.566,123.794 273.386,122.38 273.644,120.779 C275.503,120.947 277.212,121.55 278.536,122.523 C279.983,123.585 280.779,124.957 280.779,126.384 C280.779,127.154 281.403,127.779 282.173,127.779 C282.943,127.779 283.568,127.154 283.568,126.384 C283.568,124.046 282.367,121.876 280.187,120.275 C278.416,118.974 276.157,118.18 273.732,117.987 L273.732,111.434 C275.557,111.613 277.233,112.213 278.536,113.171 C279.982,114.233 280.779,115.604 280.779,117.032 C280.779,117.802 281.403,118.426 282.173,118.426 C282.943,118.426 283.567,117.802 283.567,117.032 C283.567,114.694 282.367,112.524 280.187,110.923 C278.416,109.622 276.157,108.827 273.732,108.634 L273.732,106.73 C280.929,106.178 286.655,100.292 286.956,93.028 C288.9,91.347 290.135,88.864 290.135,86.098 C290.135,81.045 286.024,76.934 280.971,76.934 Z M242.654,86.098 C242.654,83.061 244.788,80.514 247.635,79.876 L247.635,86.098 C247.635,86.868 248.259,87.492 249.029,87.492 L255.251,87.492 C254.613,90.339 252.066,92.473 249.029,92.473 C245.514,92.473 242.654,89.613 242.654,86.098 Z M269.824,136.888 C269.824,137.547 269.288,138.083 268.629,138.083 L261.372,138.083 C260.712,138.083 260.176,137.547 260.176,136.888 L260.176,134.873 C260.176,134.214 260.712,133.678 261.372,133.678 L268.629,133.678 C269.288,133.678 269.824,134.214 269.824,134.873 L269.824,136.888 Z M260.176,129.693 L260.176,127.679 C260.176,127.02 260.712,126.484 261.371,126.484 L263.059,126.484 L266.941,126.484 L268.629,126.484 C269.288,126.484 269.824,127.02 269.824,127.679 L269.824,129.693 C269.824,130.353 269.288,130.889 268.629,130.889 L261.371,130.889 C260.712,130.889 260.176,130.353 260.176,129.693 Z M270.943,119.693 C270.943,121.899 269.148,123.695 266.941,123.695 L263.059,123.695 C260.852,123.695 259.056,121.9 259.056,119.693 L259.056,104.012 C259.056,101.805 260.852,100.01 263.059,100.01 L266.941,100.01 C269.148,100.01 270.943,101.805 270.943,104.012 L270.943,119.693 Z M280.971,92.473 C277.934,92.473 275.387,90.339 274.749,87.492 L280.971,87.492 C281.741,87.492 282.365,86.868 282.365,86.098 L282.365,79.876 C285.212,80.514 287.346,83.061 287.346,86.098 C287.346,89.613 284.486,92.473 280.971,92.473 Z" />
        </g>
        <g id="Regular-S">
            <path d="M473.022,76 C472.579,76 472.135,76.043 471.702,76.128 C470.947,76.277 470.455,77.011 470.604,77.766 C470.735,78.431 471.318,78.891 471.97,78.891 C472.06,78.891 472.151,78.882 472.242,78.865 C472.497,78.814 472.759,78.789 473.022,78.789 C473.792,78.789 474.416,78.164 474.416,77.394 C474.417,76.624 473.792,76 473.022,76 Z" />
            <path d="M480.971,76.934 C480.201,76.934 479.576,77.558 479.576,78.328 L479.576,84.703 L473.201,84.703 C472.431,84.703 471.807,85.328 471.807,86.098 C471.807,91.151 475.918,95.262 480.971,95.262 C482.011,95.262 483.01,95.085 483.943,94.764 C482.933,99.668 478.805,103.446 473.73,103.929 C473.694,100.946 471.726,98.42 469.02,97.548 L469.02,82.791 C469.02,82.018 469.24,81.268 469.657,80.623 C470.075,79.976 469.89,79.113 469.243,78.695 C468.596,78.277 467.733,78.462 467.315,79.109 C466.606,80.207 466.231,81.48 466.231,82.791 L466.231,97.221 L463.769,97.221 L463.769,82.791 C463.769,79.047 460.723,76 456.978,76 C456.208,76 455.584,76.624 455.584,77.394 C455.584,78.164 456.208,78.789 456.978,78.789 C459.185,78.789 460.981,80.584 460.981,82.791 L460.981,97.548 C458.275,98.42 456.306,100.946 456.27,103.929 C451.196,103.446 447.068,99.668 446.057,94.764 C446.99,95.085 447.989,95.262 449.029,95.262 C454.082,95.262 458.193,91.151 458.193,86.098 C458.193,85.328 457.569,84.703 456.799,84.703 L450.424,84.703 L450.424,78.328 C450.424,77.558 449.799,76.934 449.029,76.934 C443.976,76.934 439.865,81.045 439.865,86.098 C439.865,88.864 441.1,91.347 443.044,93.028 C443.345,100.292 449.071,106.178 456.268,106.73 L456.268,108.635 C453.843,108.827 451.584,109.622 449.813,110.923 C447.633,112.524 446.433,114.694 446.433,117.032 C446.433,117.802 447.057,118.427 447.827,118.427 C448.597,118.427 449.221,117.802 449.221,117.032 C449.221,115.604 450.018,114.233 451.464,113.171 C452.767,112.213 454.443,111.613 456.268,111.434 L456.268,117.987 C453.843,118.18 451.584,118.975 449.813,120.276 C447.633,121.877 446.432,124.046 446.432,126.385 C446.432,127.155 447.057,127.779 447.827,127.779 C448.597,127.779 449.221,127.155 449.221,126.385 C449.221,124.957 450.018,123.585 451.464,122.523 C452.788,121.551 454.497,120.947 456.356,120.779 C456.614,122.38 457.434,123.794 458.607,124.815 C457.856,125.54 457.387,126.556 457.387,127.68 L457.387,129.694 C457.387,130.682 457.75,131.587 458.347,132.284 C457.75,132.981 457.387,133.886 457.387,134.874 L457.387,136.888 C457.387,137.307 457.452,137.71 457.573,138.09 C454.088,138.218 451.293,141.091 451.293,144.606 C451.293,145.376 451.917,146 452.687,146 C453.457,146 454.082,145.376 454.082,144.606 C454.082,142.547 455.757,140.872 457.815,140.872 L461.371,140.872 L468.629,140.872 L472.185,140.872 C474.243,140.872 475.918,142.547 475.918,144.606 C475.918,145.376 476.543,146 477.313,146 C478.083,146 478.707,145.376 478.707,144.606 C478.707,141.091 475.912,138.218 472.427,138.089 C472.547,137.71 472.613,137.306 472.613,136.888 L472.613,134.873 C472.613,133.885 472.25,132.981 471.653,132.284 C472.25,131.586 472.613,130.682 472.613,129.694 L472.613,127.68 C472.613,126.556 472.144,125.54 471.393,124.815 C472.566,123.794 473.386,122.38 473.644,120.779 C475.503,120.947 477.212,121.55 478.536,122.523 C479.983,123.585 480.779,124.957 480.779,126.384 C480.779,127.154 481.403,127.779 482.173,127.779 C482.943,127.779 483.568,127.154 483.568,126.384 C483.568,124.046 482.367,121.876 480.187,120.275 C478.416,118.974 476.157,118.18 473.732,117.987 L473.732,111.434 C475.557,111.613 477.233,112.213 478.536,113.171 C479.982,114.233 480.779,115.604 480.779,117.032 C480.779,117.802 481.403,118.426 482.173,118.426 C482.943,118.426 483.567,117.802 483.567,117.032 C483.567,114.694 482.367,112.524 480.187,110.923 C478.416,109.622 476.157,108.827 473.732,108.634 L473.732,106.73 C480.929,106.178 486.655,100.292 486.956,93.028 C488.9,91.347 490.135,88.864 490.135,86.098 C490.135,81.045 486.024,76.934 480.971,76.934 Z M442.654,86.098 C442.654,83.061 444.788,80.514 447.635,79.876 L447.635,86.098 C447.635,86.868 448.259,87.492 449.029,87.492 L455.251,87.492 C454.613,90.339 452.066,92.473 449.029,92.473 C445.514,92.473 442.654,89.613 442.654,86.098 Z M469.824,136.888 C469.824,137.547 469.288,138.083 468.629,138.083 L461.372,138.083 C460.712,138.083 460.176,137.547 460.176,136.888 L460.176,134.873 C460.176,134.214 460.712,133.678 461.372,133.678 L468.629,133.678 C469.288,133.678 469.824,134.214 469.824,134.873 L469.824,136.888 Z M460.176,129.693 L460.176,127.679 C460.176,127.02 460.712,126.484 461.371,126.484 L463.059,126.484 L466.941,126.484 L468.629,126.484 C469.288,126.484 469.824,127.02 469.824,127.679 L469.824,129.693 C469.824,130.353 469.288,130.889 468.629,130.889 L461.371,130.889 C460.712,130.889 460.176,130.353 460.176,129.693 Z M470.943,119.693 C470.943,121.899 469.148,123.695 466.941,123.695 L463.059,123.695 C460.852,123.695 459.056,121.9 459.056,119.693 L459.056,104.012 C459.056,101.805 460.852,100.01 463.059,100.01 L466.941,100.01 C469.148,100.01 470.943,101.805 470.943,104.012 L470.943,119.693 Z M480.971,92.473 C477.934,92.473 475.387,90.339 474.749,87.492 L480.971,87.492 C481.741,87.492 482.365,86.868 482.365,86.098 L482.365,79.876 C485.212,80.514 487.346,83.061 487.346,86.098 C487.346,89.613 484.486,92.473 480.971,92.473 Z" />
        </g>
        <g id="Black-S">
            <path d="M673.022,76 C672.579,76 672.135,76.043 671.702,76.128 C670.946,76.277 670.455,77.011 670.604,77.766 C670.735,78.431 671.318,78.891 671.97,78.891 C672.06,78.891 672.151,78.882 672.242,78.865 C672.497,78.814 672.759,78.789 673.022,78.789 C673.792,78.789 674.416,78.164 674.416,77.394 C674.417,76.624 673.792,76 673.022,76 Z" />
            <path d="M680.971,76.934 C680.201,76.934 679.576,77.558 679.576,78.328 L679.576,84.703 L673.201,84.703 C672.431,84.703 671.807,85.328 671.807,86.098 C671.807,91.151 675.918,95.262 680.971,95.262 C682.011,95.262 683.01,95.085 683.943,94.764 C682.933,99.668 678.805,103.446 673.73,103.929 C673.694,100.946 671.726,98.42 669.02,97.548 L669.02,82.791 C669.02,82.018 669.24,81.268 669.657,80.623 C670.075,79.976 669.89,79.113 669.243,78.695 C668.596,78.277 667.733,78.462 667.315,79.109 C666.606,80.207 666.231,81.48 666.231,82.791 L666.231,97.221 L663.769,97.221 L663.769,82.791 C663.769,79.047 660.723,76 656.978,76 C656.208,76 655.584,76.624 655.584,77.394 C655.584,78.164 656.208,78.789 656.978,78.789 C659.185,78.789 660.981,80.584 660.981,82.791 L660.981,97.548 C658.275,98.42 656.306,100.946 656.27,103.929 C651.196,103.446 647.068,99.668 646.057,94.764 C646.99,95.085 647.989,95.262 649.029,95.262 C654.082,95.262 658.193,91.151 658.193,86.098 C658.193,85.328 657.569,84.703 656.799,84.703 L650.424,84.703 L650.424,78.328 C650.424,77.558 649.799,76.934 649.029,76.934 C643.976,76.934 639.865,81.045 639.865,86.098 C639.865,88.864 641.1,91.347 643.044,93.028 C643.345,100.292 649.071,106.178 656.268,106.73 L656.268,108.635 C653.843,108.827 651.584,109.622 649.813,110.923 C647.633,112.524 646.433,114.694 646.433,117.032 C646.433,117.802 647.057,118.427 647.827,118.427 C648.597,118.427 649.221,117.802 649.221,117.032 C649.221,115.604 650.018,114.233 651.464,113.171 C652.767,112.213 654.443,111.613 656.268,111.434 L656.268,117.987 C653.843,118.18 651.584,118.975 649.813,120.276 C647.633,121.877 646.432,124.046 646.432,126.385 C646.432,127.155 647.057,127.779 647.827,127.779 C648.597,127.779 649.221,127.155 649.221,126.385 C649.221,124.957 650.018,123.585 651.464,122.523 C652.788,121.551 654.497,120.947 656.356,120.779 C656.614,122.38 657.434,123.794 658.607,124.815 C657.856,125.54 657.387,126.556 657.387,127.68 L657.387,129.694 C657.387,130.682 657.75,131.587 658.347,132.284 C657.75,132.981 657.387,133.886 657.387,134.874 L657.387,136.888 C657.387,137.307 657.452,137.71 657.573,138.09 C654.088,138.218 651.293,141.091 651.293,144.606 C651.293,145.376 651.917,146 652.687,146 C653.457,146 654.082,145.376 654.082,144.606 C654.082,142.547 655.757,140.872 657.815,140.872 L661.371,140.872 L668.629,140.872 L672.185,140.872 C674.243,140.872 675.918,142.547 675.918,144.606 C675.918,145.376 676.543,146 677.312,146 C678.083,146 678.707,145.376 678.707,144.606 C678.707,141.091 675.912,138.218 672.427,138.089 C672.547,137.71 672.613,137.306 672.613,136.888 L672.613,134.873 C672.613,133.885 672.25,132.981 671.653,132.284 C672.25,131.586 672.613,130.682 672.613,129.694 L672.613,127.68 C672.613,126.556 672.144,125.54 671.393,124.815 C672.566,123.794 673.386,122.38 673.644,120.779 C675.503,120.947 677.212,121.55 678.536,122.523 C679.982,123.585 680.779,124.957 680.779,126.384 C680.779,127.154 681.403,127.779 682.173,127.779 C682.943,127.779 683.568,127.154 683.568,126.384 C683.568,124.046 682.367,121.876 680.187,120.275 C678.416,118.974 676.157,118.18 673.732,117.987 L673.732,111.434 C675.557,111.613 677.233,112.213 678.536,113.171 C679.982,114.233 680.779,115.604 680.779,117.032 C680.779,117.802 681.403,118.426 682.173,118.426 C682.943,118.426 683.567,117.802 683.567,117.032 C683.567,114.694 682.367,112.524 680.187,110.923 C678.416,109.622 676.157,108.827 673.732,108.634 L673.732,106.73 C680.929,106.178 686.655,100.292 686.956,93.028 C688.9,91.347 690.135,88.864 690.135,86.098 C690.135,81.045 686.024,76.934 680.971,76.934 Z M642.654,86.098 C642.654,83.061 644.788,80.514 647.635,79.876 L647.635,86.098 C647.635,86.868 648.259,87.492 649.029,87.492 L655.251,87.492 C654.613,90.339 652.066,92.473 649.029,92.473 C645.514,92.473 642.654,89.613 642.654,86.098 Z M669.824,136.888 C669.824,137.547 669.288,138.083 668.629,138.083 L661.372,138.083 C660.712,138.083 660.176,137.547 660.176,136.888 L660.176,134.873 C660.176,134.214 660.712,133.678 661.372,133.678 L668.629,133.678 C669.288,133.678 669.824,134.214 669.824,134.873 L669.824,136.888 Z M660.176,129.693 L660.176,127.679 C660.176,127.02 660.712,126.484 661.371,126.484 L663.059,126.484 L666.941,126.484 L668.629,126.484 C669.288,126.484 669.824,127.02 669.824,127.679 L669.824,129.693 C669.824,130.353 669.288,130.889 668.629,130.889 L661.371,130.889 C660.712,130.889 660.176,130.353 660.176,129.693 Z M670.943,119.693 C670.943,121.899 669.148,123.695 666.941,123.695 L663.059,123.695 C660.852,123.695 659.057,121.9 659.057,119.693 L659.057,104.012 C659.057,101.805 660.852,100.01 663.059,100.01 L666.941,100.01 C669.148,100.01 670.943,101.805 670.943,104.012 L670.943,119.693 Z M680.971,92.473 C677.934,92.473 675.387,90.339 674.749,87.492 L680.971,87.492 C681.741,87.492 682.365,86.868 682.365,86.098 L682.365,79.876 C685.212,80.514 687.346,83.061 687.346,86.098 C687.346,89.613 684.486,92.473 680.971,92.473 Z" />
        </g>
    </g>
</svg>