<?xml version="1.0" encoding="UTF-8"?>
<svg height="600" width="800" xmlns="http://www.w3.org/2000/svg" xmlns:xlink="http://www.w3.org/1999/xlink">
    <g id="Notes" font-family="'LucidaGrande', 'Lucida Grande', sans-serif" font-size="13">
        <rect fill="white" height="600.0" width="800.0" x="0.0" y="0.0" />
        <g font-size="13">
            <text x="18.0" y="176.0">Small</text>
            <text x="18.0" y="376.0">Medium</text>
            <text x="18.0" y="576.0">Large</text>
        </g>
        <g font-size="9">
            <text x="250.0" y="30.0">Ultralight</text>
            <text x="450.0" y="30.0">Regular</text>
            <text x="650.0" y="30.0">Black</text>
            <text id="template-version" fill="#505050" text-anchor="end" x="785.0" y="575.0">Template v.3.0</text>
            <a href="https://github.com/swhitty/SwiftDraw">
                <text fill="#505050" text-anchor="end" x="785.0" y="590.0">https://github.com/swhitty/SwiftDraw</text>
            </a>
        </g>
    </g>
    <g id="Guides" stroke="rgb(39, 170, 225)" stroke-width="0.5">
        <path id="Capline-S" d="M18,76 l800,0" />
        <path id="H-reference" d="M85,145.755 L87.685,145.755 L113.369,79.287 L114.052,79.287 L114.052,76 L112.148,76 L85,145.755 Z M95.693,121.536 L130.996,121.536 L130.263,119.313 L96.474,119.313 L95.693,121.536 Z M139.15,145.755 L141.787,145.755 L114.638,76 L113.466,76 L113.466,79.287 L139.15,145.755 Z" stroke="none" />
        <path id="Baseline-S" d="M18,146 l800,0" />
        <path id="left-margin-Ultralight-S" d="M221,56 l0,110" />
        <path id="right-margin-Ultralight-S" d="M309,56 l0,110" />
        <path id="left-margin-Regular-S" d="M421,56 l0,110" />
        <path id="right-margin-Regular-S" d="M509,56 l0,110" />
        <path id="left-margin-Black-S" d="M621,56 l0,110" />
        <path id="right-margin-Black-S" d="M709,56 l0,110" />
        <path id="Capline-M" d="M18,276 l800,0" />
        <path id="Baseline-M" d="M18,346 l800,0" />
        <path id="Capline-L" d="M18,476 l800,0" />
        <path id="Baseline-L" d="M18,546 l800,0" />
    </g>
    <g id="Symbols">
        <g id="Ultralight-S">
            <path d="M279.15,111.815 C279.093,111.758 279.009,111.68 278.903,111.583 C278.227,110.971 277.537,110.199 277.537,109.116 C277.537,108.409 277.945,107.605 278.75,106.727 C278.797,106.676 278.835,106.633 278.863,106.601 C281.817,103.237 283.444,98.919 283.444,94.444 C283.444,84.274 275.169,76 265,76 C254.83,76 246.556,84.274 246.556,94.444 C246.556,98.919 248.183,103.237 251.137,106.602 C251.165,106.633 251.203,106.676 251.25,106.727 C252.055,107.605 252.463,108.409 252.463,109.116 C252.463,110.199 251.773,110.971 251.097,111.583 C250.991,111.68 250.907,111.758 250.85,111.815 C247.062,115.598 244.976,120.628 244.976,125.977 C244.976,137.017 253.959,146 265,146 C276.041,146 285.024,137.017 285.024,125.977 C285.024,120.628 282.938,115.599 279.15,111.815 Z M265,140.649 L264.999,140.649 C256.909,140.649 250.327,134.067 250.327,125.977 C250.327,122.059 251.856,118.374 254.611,115.621 L254.691,115.549 C256.764,113.67 257.815,111.506 257.815,109.116 C257.815,107.028 256.934,105.007 255.195,103.111 L255.158,103.07 C253.062,100.683 251.908,97.619 251.908,94.444 C251.907,87.224 257.781,81.351 265,81.351 C272.219,81.351 278.092,87.224 278.092,94.444 C278.092,97.619 276.938,100.683 274.846,103.065 L274.804,103.111 C273.066,105.007 272.184,107.028 272.184,109.116 C272.184,111.506 273.236,113.67 275.309,115.549 L275.368,115.601 C278.143,118.374 279.672,122.059 279.672,125.977 C279.673,134.067 273.09,140.649 265,140.649 Z" />
            <path d="M260.031,103.841 C260.372,103.841 260.716,103.743 261.021,103.54 C261.84,102.991 262.059,101.883 261.511,101.064 C261.016,100.325 260.444,99.599 259.811,98.907 C259.391,98.42 259.042,97.878 258.774,97.294 C258.363,96.399 257.304,96.005 256.409,96.417 C255.513,96.828 255.121,97.887 255.532,98.783 C255.952,99.698 256.502,100.546 257.168,101.303 C257.188,101.327 257.209,101.349 257.23,101.37 C257.722,101.913 258.164,102.478 258.546,103.048 C258.89,103.563 259.455,103.841 260.031,103.841 Z" />
            <path d="M256.555,94.225 C256.644,94.237 256.732,94.244 256.819,94.244 C257.689,94.244 258.45,93.608 258.581,92.721 C258.775,91.412 259.345,90.192 260.23,89.194 C260.883,88.456 260.816,87.329 260.078,86.675 C259.341,86.022 258.213,86.091 257.56,86.827 C256.214,88.346 255.347,90.203 255.052,92.198 C254.908,93.173 255.581,94.081 256.555,94.225 Z" />
            <path d="M268.824,103.858 C269.121,104.046 269.453,104.137 269.78,104.137 C270.37,104.137 270.947,103.844 271.287,103.31 C271.724,102.623 272.245,101.946 272.836,101.299 C272.846,101.288 272.856,101.277 272.865,101.267 C273.427,100.62 273.909,99.905 274.296,99.141 C274.741,98.262 274.39,97.188 273.511,96.743 C272.631,96.297 271.559,96.649 271.113,97.528 C270.862,98.024 270.55,98.489 270.186,98.91 C269.462,99.705 268.819,100.54 268.276,101.395 C267.748,102.227 267.993,103.329 268.824,103.858 Z" />
            <path d="M271.452,92.982 C271.551,93.896 272.324,94.573 273.223,94.573 C273.288,94.573 273.353,94.569 273.419,94.562 C274.398,94.455 275.105,93.575 274.999,92.595 C274.78,90.588 273.984,88.699 272.698,87.132 C272.073,86.37 270.949,86.259 270.188,86.884 C269.426,87.509 269.315,88.633 269.94,89.395 C270.786,90.425 271.308,91.665 271.452,92.982 Z" />
            <path d="M265,129.411 C264.014,129.411 263.216,130.209 263.216,131.194 L263.216,135.758 L263.216,136.189 C263.216,137.174 264.014,137.973 265,137.973 C265.985,137.973 266.783,137.174 266.783,136.189 L266.783,135.758 L266.783,131.194 C266.783,130.209 265.985,129.411 265,129.411 Z" />
            <path d="M265,118.064 C264.014,118.064 263.216,118.863 263.216,119.848 L263.216,124.843 C263.216,125.828 264.014,126.627 265,126.627 C265.985,126.627 266.783,125.828 266.783,124.843 L266.783,119.848 C266.783,118.863 265.985,118.064 265,118.064 Z" />
            <path d="M267.497,109.216 L262.502,109.216 C261.517,109.216 260.718,110.015 260.718,111 C260.718,111.986 261.517,112.784 262.502,112.784 L267.497,112.784 C268.482,112.784 269.281,111.986 269.281,111 C269.281,110.015 268.482,109.216 267.497,109.216 Z" />
            <path d="M265,103.936 C265.985,103.936 266.783,103.137 266.783,102.152 L266.783,97.157 C266.783,96.172 265.985,95.373 265,95.373 C264.014,95.373 263.216,96.172 263.216,97.157 L263.216,102.152 C263.216,103.137 264.014,103.936 265,103.936 Z" />
            <path d="M265,92.589 C265.985,92.589 266.783,91.791 266.783,90.806 L266.783,85.811 C266.783,84.826 265.985,84.027 265,84.027 C264.014,84.027 263.216,84.826 263.216,85.811 L263.216,90.806 C263.216,91.791 264.014,92.589 265,92.589 Z" />
            <path d="M272.338,123.635 C272.749,124.53 273.808,124.924 274.703,124.512 C275.598,124.101 275.991,123.042 275.58,122.147 C275.16,121.232 274.609,120.384 273.944,119.626 C273.924,119.603 273.903,119.58 273.882,119.559 C273.39,119.016 272.948,118.452 272.566,117.881 C272.222,117.367 271.657,117.089 271.082,117.089 C270.74,117.089 270.396,117.187 270.091,117.391 C269.272,117.939 269.053,119.047 269.601,119.866 C270.096,120.605 270.668,121.331 271.301,122.023 C271.721,122.509 272.07,123.052 272.338,123.635 Z" />
            <path d="M260.147,117.072 C259.85,116.884 259.519,116.793 259.191,116.793 C258.602,116.793 258.024,117.085 257.684,117.62 C257.248,118.307 256.726,118.983 256.135,119.631 C256.125,119.641 256.116,119.653 256.106,119.663 C255.544,120.31 255.062,121.025 254.676,121.789 C254.23,122.668 254.581,123.742 255.46,124.187 C256.34,124.633 257.413,124.281 257.858,123.402 C258.109,122.905 258.421,122.441 258.786,122.02 C259.509,121.225 260.152,120.389 260.695,119.534 C261.224,118.703 260.978,117.6 260.147,117.072 Z" />
            <path d="M257.52,129.018 C257.42,128.104 256.647,127.427 255.748,127.427 C255.684,127.427 255.619,127.431 255.553,127.438 C254.574,127.545 253.866,128.425 253.973,129.405 C254.192,131.412 254.987,133.301 256.273,134.868 C256.898,135.63 258.022,135.741 258.783,135.116 C259.545,134.491 259.656,133.367 259.031,132.605 C258.186,131.575 257.663,130.335 257.52,129.018 Z" />
            <path d="M274.557,127.775 C274.468,127.763 274.38,127.756 274.293,127.756 C273.424,127.756 272.662,128.392 272.531,129.279 C272.338,130.588 271.767,131.808 270.882,132.806 C270.229,133.544 270.296,134.671 271.034,135.325 C271.771,135.978 272.899,135.909 273.552,135.173 C274.898,133.654 275.765,131.797 276.061,129.802 C276.204,128.827 275.531,127.919 274.557,127.775 Z" />
        </g>
        <g id="Regular-S">
            <path d="M479.15,111.815 C479.093,111.758 479.009,111.68 478.903,111.583 C478.227,110.971 477.537,110.199 477.537,109.116 C477.537,108.409 477.945,107.605 478.75,106.727 C478.797,106.676 478.835,106.633 478.863,106.601 C481.817,103.237 483.444,98.919 483.444,94.444 C483.444,84.274 475.169,76 465,76 C454.83,76 446.556,84.274 446.556,94.444 C446.556,98.919 448.183,103.237 451.137,106.602 C451.165,106.633 451.203,106.676 451.25,106.727 C452.055,107.605 452.463,108.409 452.463,109.116 C452.463,110.199 451.773,110.971 451.097,111.583 C450.991,111.68 450.907,111.758 450.85,111.815 C447.062,115.598 444.976,120.628 444.976,125.977 C444.976,137.017 453.959,146 465,146 C476.041,146 485.024,137.017 485.024,125.977 C485.024,120.628 482.938,115.599 479.15,111.815 Z M465,140.649 L464.999,140.649 C456.909,140.649 450.327,134.067 450.327,125.977 C450.327,122.059 451.856,118.374 454.611,115.621 L454.691,115.549 C456.764,113.67 457.815,111.506 457.815,109.116 C457.815,107.028 456.934,105.007 455.195,103.111 L455.158,103.07 C453.062,100.683 451.908,97.619 451.908,94.444 C451.907,87.224 457.781,81.351 465,81.351 C472.219,81.351 478.092,87.224 478.092,94.444 C478.092,97.619 476.938,100.683 474.846,103.065 L474.804,103.111 C473.066,105.007 472.184,107.028 472.184,109.116 C472.184,111.506 473.236,113.67 475.309,115.549 L475.368,115.601 C478.143,118.374 479.672,122.059 479.672,125.977 C479.673,134.067 473.09,140.649 465,140.649 Z" />
            <path d="M460.031,103.841 C460.372,103.841 460.716,103.743 461.021,103.54 C461.84,102.991 462.059,101.883 461.511,101.064 C461.016,100.325 460.444,99.599 459.811,98.907 C459.391,98.42 459.042,97.878 458.774,97.294 C458.363,96.399 457.304,96.005 456.409,96.417 C455.513,96.828 455.121,97.887 455.532,98.783 C455.952,99.698 456.502,100.546 457.168,101.303 C457.188,101.327 457.209,101.349 457.23,101.37 C457.722,101.913 458.164,102.478 458.546,103.048 C458.89,103.563 459.455,103.841 460.031,103.841 Z" />
            <path d="M456.555,94.225 C456.644,94.237 456.732,94.244 456.819,94.244 C457.689,94.244 458.45,93.608 458.581,92.721 C458.775,91.412 459.345,90.192 460.23,89.194 C460.883,88.456 460.816,87.329 460.078,86.675 C459.341,86.022 458.213,86.091 457.56,86.827 C456.214,88.346 455.347,90.203 455.052,92.198 C454.908,93.173 455.581,94.081 456.555,94.225 Z" />
            <path d="M468.824,103.858 C469.121,104.046 469.453,104.137 469.78,104.137 C470.37,104.137 470.947,103.844 471.287,103.31 C471.724,102.623 472.245,101.946 472.836,101.299 C472.846,101.288 472.856,101.277 472.865,101.267 C473.427,100.62 473.909,99.905 474.296,99.141 C474.741,98.262 474.39,97.188 473.511,96.743 C472.631,96.297 471.559,96.649 471.113,97.528 C470.862,98.024 470.55,98.489 470.186,98.91 C469.462,99.705 468.819,100.54 468.276,101.395 C467.748,102.227 467.993,103.329 468.824,103.858 Z" />
            <path d="M471.452,92.982 C471.551,93.896 472.324,94.573 473.223,94.573 C473.288,94.573 473.353,94.569 473.419,94.562 C474.398,94.455 475.105,93.575 474.999,92.595 C474.78,90.588 473.984,88.699 472.698,87.132 C472.073,86.37 470.949,86.259 470.188,86.884 C469.426,87.509 469.315,88.633 469.94,89.395 C470.786,90.425 471.308,91.665 471.452,92.982 Z" />
            <path d="M465,129.411 C464.014,129.411 463.216,130.209 463.216,131.194 L463.216,135.758 L463.216,136.189 C463.216,137.174 464.014,137.973 465,137.973 C465.985,137.973 466.783,137.174 466.783,136.189 L466.783,135.758 L466.783,131.194 C466.783,130.209 465.985,129.411 465,129.411 Z" />
            <path d="M465,118.064 C464.014,118.064 463.216,118.863 463.216,119.848 L463.216,124.843 C463.216,125.828 464.014,126.627 465,126.627 C465.985,126.627 466.783,125.828 466.783,124.843 L466.783,119.848 C466.783,118.863 465.985,118.064 465,118.064 Z" />
            <path d="M467.497,109.216 L462.502,109.216 C461.517,109.216 460.718,110.015 460.718,111 C460.718,111.986 461.517,112.784 462.502,112.784 L467.497,112.784 C468.482,112.784 469.281,111.986 469.281,111 C469.281,110.015 468.482,109.216 467.497,109.216 Z" />
            <path d="M465,103.936 C465.985,103.936 466.783,103.137 466.783,102.152 L466.783,97.157 C466.783,96.172 465.985,95.373 465,95.373 C464.014,95.373 463.216,96.172 463.216,97.157 L463.216,102.152 C463.216,103.137 464.014,103.936 465,103.936 Z" />
            <path d="M465,92.589 C465.985,92.589 466.783,91.791 466.783,90.806 L466.783,85.811 C466.783,84.826 465.985,84.027 465,84.027 C464.014,84.027 463.216,84.826 463.216,85.811 L463.216,90.806 C463.216,91.791 464.014,92.589 465,92.589 Z" />
            <path d="M472.338,123.635 C472.749,124.53 473.808,124.924 474.703,124.512 C475.598,124.101 475.991,123.042 475.58,122.147 C475.16,121.232 474.609,120.384 473.944,119.626 C473.924,119.603 473.903,119.58 473.882,119.559 C473.39,119.016 472.948,118.452 472.566,117.881 C472.222,117.367 471.657,117.089 471.082,117.089 C470.74,117.089 470.396,117.187 470.091,117.391 C469.272,117.939 469.053,119.047 469.601,119.866 C470.096,120.605 470.668,121.331 471.301,122.023 C471.721,122.509 472.07,123.052 472.338,123.635 Z" />
            <path d="M460.147,117.072 C459.85,116.884 459.519,116.793 459.191,116.793 C458.602,116.793 458.024,117.085 457.684,117.62 C457.248,118.307 456.726,118.983 456.135,119.631 C456.125,119.641 456.116,119.653 456.106,119.663 C455.544,120.31 455.062,121.025 454.676,121.789 C454.23,122.668 454.581,123.742 455.46,124.187 C456.34,124.633 457.413,124.281 457.858,123.402 C458.109,122.905 458.421,122.441 458.786,122.02 C459.509,121.225 460.152,120.389 460.695,119.534 C461.224,118.703 460.978,117.6 460.147,117.072 Z" />
            <path d="M457.52,129.018 C457.42,128.104 456.647,127.427 455.748,127.427 C455.684,127.427 455.619,127.431 455.553,127.438 C454.574,127.545 453.866,128.425 453.973,129.405 C454.192,131.412 454.987,133.301 456.273,134.868 C456.898,135.63 458.022,135.741 458.783,135.116 C459.545,134.491 459.656,133.367 459.031,132.605 C458.186,131.575 457.663,130.335 457.52,129.018 Z" />
            <path d="M474.557,127.775 C474.468,127.763 474.38,127.756 474.293,127.756 C473.424,127.756 472.662,128.392 472.531,129.279 C472.338,130.588 471.767,131.808 470.882,132.806 C470.229,133.544 470.296,134.671 471.034,135.325 C471.771,135.978 472.899,135.909 473.552,135.173 C474.898,133.654 475.765,131.797 476.061,129.802 C476.204,128.827 475.531,127.919 474.557,127.775 Z" />
        </g>
        <g id="Black-S">
            <path d="M679.15,111.815 C679.093,111.758 679.009,111.68 678.903,111.583 C678.227,110.971 677.537,110.199 677.537,109.116 C677.537,108.409 677.945,107.605 678.75,106.727 C678.797,106.676 678.835,106.633 678.863,106.601 C681.817,103.237 683.444,98.919 683.444,94.444 C683.444,84.274 675.169,76 665,76 C654.83,76 646.556,84.274 646.556,94.444 C646.556,98.919 648.183,103.237 651.137,106.602 C651.165,106.633 651.203,106.676 651.25,106.727 C652.055,107.605 652.463,108.409 652.463,109.116 C652.463,110.199 651.773,110.971 651.097,111.583 C650.991,111.68 650.907,111.758 650.85,111.815 C647.062,115.598 644.976,120.628 644.976,125.977 C644.976,137.017 653.959,146 665,146 C676.041,146 685.024,137.017 685.024,125.977 C685.024,120.628 682.938,115.599 679.15,111.815 Z M665,140.649 L664.999,140.649 C656.909,140.649 650.327,134.067 650.327,125.977 C650.327,122.059 651.856,118.374 654.611,115.621 L654.691,115.549 C656.764,113.67 657.815,111.506 657.815,109.116 C657.815,107.028 656.934,105.007 655.195,103.111 L655.158,103.07 C653.062,100.683 651.908,97.619 651.908,94.444 C651.907,87.224 657.781,81.351 665,81.351 C672.219,81.351 678.092,87.224 678.092,94.444 C678.092,97.619 676.938,100.683 674.846,103.065 L674.804,103.111 C673.066,105.007 672.184,107.028 672.184,109.116 C672.184,111.506 673.235,113.67 675.309,115.549 L675.367,115.601 C678.143,118.374 679.672,122.059 679.672,125.977 C679.673,134.067 673.09,140.649 665,140.649 Z" />
            <path d="M660.031,103.841 C660.372,103.841 660.716,103.743 661.021,103.54 C661.84,102.991 662.059,101.883 661.511,101.064 C661.016,100.325 660.445,99.599 659.811,98.907 C659.391,98.42 659.042,97.878 658.774,97.294 C658.363,96.399 657.304,96.005 656.409,96.417 C655.513,96.828 655.121,97.887 655.532,98.783 C655.952,99.698 656.502,100.546 657.168,101.303 C657.188,101.327 657.209,101.349 657.23,101.37 C657.722,101.913 658.164,102.478 658.546,103.048 C658.89,103.563 659.455,103.841 660.031,103.841 Z" />
            <path d="M656.555,94.225 C656.644,94.237 656.732,94.244 656.819,94.244 C657.688,94.244 658.45,93.608 658.581,92.721 C658.775,91.412 659.345,90.192 660.23,89.194 C660.883,88.456 660.816,87.329 660.078,86.675 C659.341,86.022 658.213,86.091 657.56,86.827 C656.214,88.346 655.347,90.203 655.052,92.198 C654.908,93.173 655.581,94.081 656.555,94.225 Z" />
            <path d="M668.824,103.858 C669.121,104.046 669.453,104.137 669.78,104.137 C670.37,104.137 670.947,103.844 671.287,103.31 C671.724,102.623 672.245,101.946 672.836,101.299 C672.846,101.288 672.856,101.277 672.865,101.267 C673.427,100.62 673.909,99.905 674.296,99.141 C674.741,98.262 674.39,97.188 673.511,96.743 C672.631,96.297 671.559,96.649 671.113,97.528 C670.862,98.024 670.55,98.489 670.186,98.91 C669.462,99.705 668.82,100.54 668.276,101.395 C667.748,102.227 667.993,103.329 668.824,103.858 Z" />
            <path d="M671.452,92.982 C671.551,93.896 672.324,94.573 673.223,94.573 C673.288,94.573 673.353,94.569 673.419,94.562 C674.398,94.455 675.105,93.575 674.999,92.595 C674.78,90.588 673.984,88.699 672.698,87.132 C672.073,86.37 670.949,86.259 670.188,86.884 C669.426,87.509 669.315,88.633 669.94,89.395 C670.786,90.425 671.308,91.665 671.452,92.982 Z" />
            <path d="M665,129.411 C664.014,129.411 663.216,130.209 663.216,131.194 L663.216,135.758 L663.216,136.189 C663.216,137.174 664.014,137.973 665,137.973 C665.985,137.973 666.783,137.174 666.783,136.189 L666.783,135.758 L666.783,131.194 C666.783,130.209 665.985,129.411 665,129.411 Z" />
            <path d="M665,118.064 C664.014,118.064 663.216,118.863 663.216,119.848 L663.216,124.843 C663.216,125.828 664.014,126.627 665,126.627 C665.985,126.627 666.783,125.828 666.783,124.843 L666.783,119.848 C666.783,118.863 665.985,118.064 665,118.064 Z" />
            <path d="M667.497,109.216 L662.502,109.216 C661.517,109.216 660.719,110.015 660.719,111 C660.719,111.986 661.517,112.784 662.502,112.784 L667.497,112.784 C668.482,112.784 669.281,111.986 669.281,111 C669.281,110.015 668.482,109.216 667.497,109.216 Z" />
            <path d="M665,103.936 C665.985,103.936 666.783,103.137 666.783,102.152 L666.783,97.157 C666.783,96.172 665.985,95.373 665,95.373 C664.014,95.373 663.216,96.172 663.216,97.157 L663.216,102.152 C663.216,103.137 664.014,103.936 665,103.936 Z" />
            <path d="M665,92.589 C665.985,92.589 666.783,91.791 666.783,90.806 L666.783,85.811 C666.783,84.826 665.985,84.027 665,84.027 C664.014,84.027 663.216,84.826 663.216,85.811 L663.216,90.806 C663.216,91.791 664.014,92.589 665,92.589 Z" />
            <path d="M672.338,123.635 C672.749,124.53 673.808,124.924 674.703,124.512 C675.598,124.101 675.991,123.042 675.58,122.147 C675.16,121.232 674.609,120.384 673.944,119.626 C673.924,119.603 673.903,119.58 673.882,119.559 C673.39,119.016 672.948,118.452 672.566,117.881 C672.222,117.367 671.657,117.089 671.082,117.089 C670.74,117.089 670.396,117.187 670.091,117.391 C669.272,117.939 669.053,119.047 669.601,119.866 C670.096,120.605 670.668,121.331 671.302,122.023 C671.721,122.509 672.07,123.052 672.338,123.635 Z" />
            <path d="M660.147,117.072 C659.85,116.884 659.519,116.793 659.191,116.793 C658.602,116.793 658.024,117.085 657.684,117.62 C657.248,118.307 656.726,118.983 656.135,119.631 C656.125,119.641 656.116,119.653 656.106,119.663 C655.544,120.31 655.062,121.025 654.676,121.789 C654.23,122.668 654.581,123.742 655.46,124.187 C656.34,124.633 657.413,124.281 657.858,123.402 C658.109,122.905 658.421,122.441 658.786,122.02 C659.509,121.225 660.152,120.389 660.695,119.534 C661.224,118.703 660.978,117.6 660.147,117.072 Z" />
            <path d="M657.52,129.018 C657.42,128.104 656.647,127.427 655.748,127.427 C655.684,127.427 655.619,127.431 655.553,127.438 C654.574,127.545 653.866,128.425 653.973,129.405 C654.192,131.412 654.987,133.301 656.273,134.868 C656.898,135.63 658.022,135.741 658.783,135.116 C659.545,134.491 659.656,133.367 659.031,132.605 C658.186,131.575 657.663,130.335 657.52,129.018 Z" />
            <path d="M674.557,127.775 C674.468,127.763 674.38,127.756 674.293,127.756 C673.424,127.756 672.662,128.392 672.531,129.279 C672.338,130.588 671.767,131.808 670.882,132.806 C670.229,133.544 670.297,134.671 671.034,135.325 C671.771,135.978 672.899,135.909 673.552,135.173 C674.898,133.654 675.765,131.797 676.061,129.802 C676.204,128.827 675.531,127.919 674.557,127.775 Z" />
        </g>
    </g>
</svg>