<?xml version="1.0" encoding="UTF-8"?>
<svg height="600" width="800" xmlns="http://www.w3.org/2000/svg" xmlns:xlink="http://www.w3.org/1999/xlink">
    <g id="Notes" font-family="'LucidaGrande', 'Lucida Grande', sans-serif" font-size="13">
        <rect fill="white" height="600.0" width="800.0" x="0.0" y="0.0" />
        <g font-size="13">
            <text x="18.0" y="176.0">Small</text>
            <text x="18.0" y="376.0">Medium</text>
            <text x="18.0" y="576.0">Large</text>
        </g>
        <g font-size="9">
            <text x="250.0" y="30.0">Ultralight</text>
            <text x="450.0" y="30.0">Regular</text>
            <text x="650.0" y="30.0">Black</text>
            <text id="template-version" fill="#505050" text-anchor="end" x="785.0" y="575.0">Template v.3.0</text>
            <a href="https://github.com/swhitty/SwiftDraw">
                <text fill="#505050" text-anchor="end" x="785.0" y="590.0">https://github.com/swhitty/SwiftDraw</text>
            </a>
        </g>
    </g>
    <g id="Guides" stroke="rgb(39, 170, 225)" stroke-width="0.5">
        <path id="Capline-S" d="M18,76 l800,0" />
        <path id="H-reference" d="M85,145.755 L87.685,145.755 L113.369,79.287 L114.052,79.287 L114.052,76 L112.148,76 L85,145.755 Z M95.693,121.536 L130.996,121.536 L130.263,119.313 L96.474,119.313 L95.693,121.536 Z M139.15,145.755 L141.787,145.755 L114.638,76 L113.466,76 L113.466,79.287 L139.15,145.755 Z" stroke="none" />
        <path id="Baseline-S" d="M18,146 l800,0" />
        <path id="left-margin-Ultralight-S" d="M221,56 l0,110" />
        <path id="right-margin-Ultralight-S" d="M309,56 l0,110" />
        <path id="left-margin-Regular-S" d="M421,56 l0,110" />
        <path id="right-margin-Regular-S" d="M509,56 l0,110" />
        <path id="left-margin-Black-S" d="M621,56 l0,110" />
        <path id="right-margin-Black-S" d="M709,56 l0,110" />
        <path id="Capline-M" d="M18,276 l800,0" />
        <path id="Baseline-M" d="M18,346 l800,0" />
        <path id="Capline-L" d="M18,476 l800,0" />
        <path id="Baseline-L" d="M18,546 l800,0" />
    </g>
    <g id="Symbols">
        <g id="Ultralight-S">
            <path d="M296.149,109.738 L288.367,97.985 C287.93,97.326 287.192,96.93 286.401,96.93 L283.093,96.93 L292.237,83.583 C292.973,82.508 292.699,81.04 291.625,80.304 C290.55,79.568 289.083,79.842 288.346,80.917 L277.375,96.93 L274.229,96.93 L280.829,79.18 C281.283,77.96 280.661,76.602 279.44,76.148 C278.219,75.695 276.862,76.316 276.408,77.537 L269.198,96.93 L243.599,96.93 C242.808,96.93 242.07,97.326 241.633,97.985 L233.851,109.738 C233.371,110.462 233.329,111.391 233.74,112.156 C234.151,112.921 234.949,113.398 235.817,113.398 L242.47,113.398 L245.141,143.848 C245.248,145.065 246.267,146 247.49,146 L282.51,146 C283.732,146 284.752,145.065 284.859,143.848 L287.53,113.398 L294.183,113.398 C295.052,113.398 295.849,112.921 296.26,112.156 C296.671,111.391 296.629,110.462 296.149,109.738 Z M265.932,128.931 L278.175,141.284 L252.035,141.284 L265.932,128.931 Z M269.462,125.793 L282.744,113.987 L280.713,137.144 L269.462,125.793 Z M249.31,137.396 L247.205,113.398 L276.307,113.398 L249.31,137.396 Z M285.134,101.646 L289.793,108.681 L240.207,108.681 L244.867,101.646 L285.134,101.646 Z" />
        </g>
        <g id="Regular-S">
            <path d="M496.149,109.738 L488.367,97.985 C487.93,97.326 487.192,96.93 486.401,96.93 L483.093,96.93 L492.237,83.583 C492.973,82.508 492.699,81.04 491.625,80.304 C490.55,79.568 489.083,79.842 488.346,80.917 L477.375,96.93 L474.229,96.93 L480.829,79.18 C481.283,77.96 480.661,76.602 479.44,76.148 C478.219,75.695 476.862,76.316 476.408,77.537 L469.198,96.93 L443.599,96.93 C442.808,96.93 442.07,97.326 441.633,97.985 L433.851,109.738 C433.371,110.462 433.329,111.391 433.74,112.156 C434.151,112.921 434.949,113.398 435.817,113.398 L442.47,113.398 L445.141,143.848 C445.248,145.065 446.267,146 447.49,146 L482.51,146 C483.732,146 484.752,145.065 484.859,143.848 L487.53,113.398 L494.183,113.398 C495.052,113.398 495.849,112.921 496.26,112.156 C496.671,111.391 496.629,110.462 496.149,109.738 Z M465.932,128.931 L478.175,141.284 L452.035,141.284 L465.932,128.931 Z M469.462,125.793 L482.744,113.987 L480.713,137.144 L469.462,125.793 Z M449.31,137.396 L447.205,113.398 L476.307,113.398 L449.31,137.396 Z M485.134,101.646 L489.793,108.681 L440.207,108.681 L444.867,101.646 L485.134,101.646 Z" />
        </g>
        <g id="Black-S">
            <path d="M696.149,109.738 L688.367,97.985 C687.93,97.326 687.192,96.93 686.401,96.93 L683.093,96.93 L692.237,83.583 C692.973,82.508 692.699,81.04 691.625,80.304 C690.55,79.568 689.083,79.842 688.346,80.917 L677.375,96.93 L674.229,96.93 L680.829,79.18 C681.283,77.96 680.661,76.602 679.44,76.148 C678.219,75.695 676.862,76.316 676.408,77.537 L669.198,96.93 L643.599,96.93 C642.808,96.93 642.07,97.326 641.633,97.985 L633.851,109.738 C633.371,110.462 633.329,111.391 633.74,112.156 C634.151,112.921 634.949,113.398 635.817,113.398 L642.47,113.398 L645.141,143.848 C645.248,145.065 646.267,146 647.49,146 L682.51,146 C683.732,146 684.752,145.065 684.859,143.848 L687.53,113.398 L694.183,113.398 C695.052,113.398 695.849,112.921 696.26,112.156 C696.671,111.391 696.629,110.462 696.149,109.738 Z M665.932,128.931 L678.175,141.284 L652.035,141.284 L665.932,128.931 Z M669.462,125.793 L682.744,113.987 L680.713,137.144 L669.462,125.793 Z M649.31,137.396 L647.205,113.398 L676.307,113.398 L649.31,137.396 Z M685.134,101.646 L689.793,108.681 L640.207,108.681 L644.867,101.646 L685.134,101.646 Z" />
        </g>
    </g>
</svg>