<?xml version="1.0" encoding="UTF-8"?>
<svg height="600" width="800" xmlns="http://www.w3.org/2000/svg" xmlns:xlink="http://www.w3.org/1999/xlink">
    <g id="Notes" font-family="'LucidaGrande', 'Lucida Grande', sans-serif" font-size="13">
        <rect fill="white" height="600.0" width="800.0" x="0.0" y="0.0" />
        <g font-size="13">
            <text x="18.0" y="176.0">Small</text>
            <text x="18.0" y="376.0">Medium</text>
            <text x="18.0" y="576.0">Large</text>
        </g>
        <g font-size="9">
            <text x="250.0" y="30.0">Ultralight</text>
            <text x="450.0" y="30.0">Regular</text>
            <text x="650.0" y="30.0">Black</text>
            <text id="template-version" fill="#505050" text-anchor="end" x="785.0" y="575.0">Template v.3.0</text>
            <a href="https://github.com/swhitty/SwiftDraw">
                <text fill="#505050" text-anchor="end" x="785.0" y="590.0">https://github.com/swhitty/SwiftDraw</text>
            </a>
        </g>
    </g>
    <g id="Guides" stroke="rgb(39, 170, 225)" stroke-width="0.5">
        <path id="Capline-S" d="M18,76 l800,0" />
        <path id="H-reference" d="M85,145.755 L87.685,145.755 L113.369,79.287 L114.052,79.287 L114.052,76 L112.148,76 L85,145.755 Z M95.693,121.536 L130.996,121.536 L130.263,119.313 L96.474,119.313 L95.693,121.536 Z M139.15,145.755 L141.787,145.755 L114.638,76 L113.466,76 L113.466,79.287 L139.15,145.755 Z" stroke="none" />
        <path id="Baseline-S" d="M18,146 l800,0" />
        <path id="left-margin-Ultralight-S" d="M221,56 l0,110" />
        <path id="right-margin-Ultralight-S" d="M309,56 l0,110" />
        <path id="left-margin-Regular-S" d="M421,56 l0,110" />
        <path id="right-margin-Regular-S" d="M509,56 l0,110" />
        <path id="left-margin-Black-S" d="M621,56 l0,110" />
        <path id="right-margin-Black-S" d="M709,56 l0,110" />
        <path id="Capline-M" d="M18,276 l800,0" />
        <path id="Baseline-M" d="M18,346 l800,0" />
        <path id="Capline-L" d="M18,476 l800,0" />
        <path id="Baseline-L" d="M18,546 l800,0" />
    </g>
    <g id="Symbols">
        <g id="Ultralight-S">
            <path d="M292.924,96.737 C292.923,96.721 292.92,96.706 292.918,96.691 C292.915,96.672 292.913,96.652 292.909,96.632 C292.906,96.614 292.901,96.596 292.896,96.578 C292.893,96.563 292.889,96.547 292.884,96.531 C292.879,96.513 292.873,96.494 292.866,96.476 C292.861,96.461 292.856,96.447 292.851,96.433 C292.843,96.415 292.836,96.397 292.827,96.379 C292.821,96.365 292.814,96.351 292.807,96.337 C292.799,96.321 292.79,96.304 292.781,96.288 C292.772,96.273 292.764,96.259 292.755,96.245 C292.745,96.23 292.736,96.216 292.725,96.201 C292.715,96.187 292.705,96.173 292.694,96.159 C292.683,96.146 292.673,96.132 292.662,96.119 C292.658,96.115 292.654,96.11 292.65,96.105 L280.711,82.574 L280.711,77.117 C280.711,76.5 280.211,76 279.594,76 L250.406,76 C249.789,76 249.289,76.5 249.289,77.117 L249.289,82.574 L237.349,96.105 C237.345,96.109 237.342,96.114 237.338,96.119 C237.327,96.132 237.316,96.146 237.305,96.16 C237.295,96.173 237.285,96.187 237.275,96.201 C237.264,96.216 237.254,96.231 237.244,96.246 C237.236,96.26 237.228,96.273 237.22,96.287 C237.21,96.304 237.201,96.321 237.192,96.338 C237.185,96.351 237.179,96.365 237.173,96.378 C237.164,96.397 237.156,96.415 237.149,96.433 C237.144,96.447 237.139,96.461 237.134,96.475 C237.127,96.494 237.121,96.512 237.115,96.531 C237.111,96.547 237.107,96.562 237.103,96.578 C237.099,96.596 237.094,96.614 237.091,96.633 C237.087,96.652 237.085,96.671 237.082,96.691 C237.08,96.706 237.077,96.721 237.076,96.737 C237.072,96.772 237.07,96.808 237.07,96.844 L237.07,144.883 C237.07,145.5 237.57,146 238.187,146 L291.813,146 C292.43,146 292.93,145.5 292.93,144.883 L292.93,96.844 C292.93,96.808 292.928,96.772 292.924,96.737 Z M289.337,95.727 L269.851,95.727 L279.594,84.685 L289.337,95.727 Z M278.477,78.234 L278.477,81.88 L259.342,81.88 C258.725,81.88 258.225,82.38 258.225,82.997 C258.225,83.614 258.725,84.114 259.342,84.114 L277.119,84.114 L266.872,95.727 L240.662,95.727 L250.91,84.114 L254.874,84.114 C255.491,84.114 255.991,83.614 255.991,82.997 C255.991,82.38 255.491,81.88 254.874,81.88 L251.523,81.88 L251.523,78.234 L278.477,78.234 Z M239.304,106.897 L266.259,106.897 L266.259,134.83 L239.304,134.83 L239.304,106.897 Z M266.259,104.663 L239.304,104.663 L239.304,97.961 L266.259,97.961 L266.259,104.663 Z M239.304,137.064 L266.259,137.064 L266.259,143.766 L239.304,143.766 L239.304,137.064 Z M268.493,143.766 L268.493,97.961 L290.695,97.961 L290.695,104.663 L271.844,104.663 C271.227,104.663 270.727,105.163 270.727,105.78 C270.727,106.397 271.227,106.897 271.844,106.897 L290.695,106.897 L290.695,134.83 L271.844,134.83 C271.227,134.83 270.727,135.33 270.727,135.947 C270.727,136.564 271.227,137.064 271.844,137.064 L290.695,137.064 L290.695,143.766 L268.493,143.766 Z" />
            <path d="M259.16,118.409 L253.676,111.069 C253.465,110.787 253.134,110.621 252.781,110.621 C252.429,110.621 252.097,110.787 251.887,111.069 L246.401,118.41 C245.374,119.79 244.83,121.431 244.83,123.155 C244.83,127.54 248.397,131.106 252.781,131.106 C257.165,131.106 260.732,127.54 260.732,123.155 C260.732,121.431 260.189,119.79 259.16,118.409 Z M252.781,128.872 C249.629,128.872 247.064,126.308 247.064,123.155 C247.064,121.915 247.455,120.736 248.192,119.746 L252.781,113.604 L257.37,119.744 C258.108,120.736 258.498,121.915 258.498,123.155 C258.498,126.308 255.934,128.872 252.781,128.872 Z" />
        </g>
        <g id="Regular-S">
            <path d="M492.924,96.737 C492.923,96.721 492.92,96.706 492.918,96.691 C492.915,96.672 492.913,96.652 492.909,96.632 C492.906,96.614 492.901,96.596 492.896,96.578 C492.893,96.563 492.889,96.547 492.884,96.531 C492.879,96.513 492.873,96.494 492.866,96.476 C492.861,96.461 492.856,96.447 492.851,96.433 C492.843,96.415 492.836,96.397 492.827,96.379 C492.821,96.365 492.814,96.351 492.807,96.337 C492.799,96.321 492.79,96.304 492.781,96.288 C492.772,96.273 492.764,96.259 492.755,96.245 C492.745,96.23 492.736,96.216 492.725,96.201 C492.715,96.187 492.705,96.173 492.694,96.159 C492.683,96.146 492.673,96.132 492.662,96.119 C492.658,96.115 492.654,96.11 492.65,96.105 L480.711,82.574 L480.711,77.117 C480.711,76.5 480.211,76 479.594,76 L450.406,76 C449.789,76 449.289,76.5 449.289,77.117 L449.289,82.574 L437.349,96.105 C437.345,96.109 437.342,96.114 437.338,96.119 C437.327,96.132 437.316,96.146 437.305,96.16 C437.295,96.173 437.285,96.187 437.275,96.201 C437.264,96.216 437.254,96.231 437.244,96.246 C437.236,96.26 437.228,96.273 437.22,96.287 C437.21,96.304 437.201,96.321 437.192,96.338 C437.185,96.351 437.179,96.365 437.173,96.378 C437.164,96.397 437.156,96.415 437.149,96.433 C437.143,96.447 437.139,96.461 437.134,96.475 C437.127,96.494 437.121,96.512 437.115,96.531 C437.111,96.547 437.107,96.562 437.103,96.578 C437.099,96.596 437.094,96.614 437.091,96.633 C437.087,96.652 437.085,96.671 437.082,96.691 C437.08,96.706 437.077,96.721 437.076,96.737 C437.072,96.772 437.07,96.808 437.07,96.844 L437.07,144.883 C437.07,145.5 437.57,146 438.187,146 L491.813,146 C492.43,146 492.93,145.5 492.93,144.883 L492.93,96.844 C492.93,96.808 492.928,96.772 492.924,96.737 Z M489.337,95.727 L469.851,95.727 L479.594,84.685 L489.337,95.727 Z M478.477,78.234 L478.477,81.88 L459.342,81.88 C458.725,81.88 458.225,82.38 458.225,82.997 C458.225,83.614 458.725,84.114 459.342,84.114 L477.119,84.114 L466.872,95.727 L440.662,95.727 L450.91,84.114 L454.874,84.114 C455.491,84.114 455.991,83.614 455.991,82.997 C455.991,82.38 455.491,81.88 454.874,81.88 L451.523,81.88 L451.523,78.234 L478.477,78.234 Z M439.304,106.897 L466.259,106.897 L466.259,134.83 L439.304,134.83 L439.304,106.897 Z M466.259,104.663 L439.304,104.663 L439.304,97.961 L466.259,97.961 L466.259,104.663 Z M439.304,137.064 L466.259,137.064 L466.259,143.766 L439.304,143.766 L439.304,137.064 Z M468.493,143.766 L468.493,97.961 L490.695,97.961 L490.695,104.663 L471.844,104.663 C471.227,104.663 470.727,105.163 470.727,105.78 C470.727,106.397 471.227,106.897 471.844,106.897 L490.695,106.897 L490.695,134.83 L471.844,134.83 C471.227,134.83 470.727,135.33 470.727,135.947 C470.727,136.564 471.227,137.064 471.844,137.064 L490.695,137.064 L490.695,143.766 L468.493,143.766 Z" />
            <path d="M459.16,118.409 L453.676,111.069 C453.465,110.787 453.134,110.621 452.781,110.621 C452.429,110.621 452.097,110.787 451.887,111.069 L446.401,118.41 C445.374,119.79 444.83,121.431 444.83,123.155 C444.83,127.54 448.397,131.106 452.781,131.106 C457.165,131.106 460.732,127.54 460.732,123.155 C460.732,121.431 460.189,119.79 459.16,118.409 Z M452.781,128.872 C449.629,128.872 447.064,126.308 447.064,123.155 C447.064,121.915 447.455,120.736 448.192,119.746 L452.781,113.604 L457.37,119.744 C458.108,120.736 458.498,121.915 458.498,123.155 C458.498,126.308 455.934,128.872 452.781,128.872 Z" />
        </g>
        <g id="Black-S">
            <path d="M692.924,96.737 C692.923,96.721 692.92,96.706 692.918,96.691 C692.915,96.672 692.913,96.652 692.909,96.632 C692.905,96.614 692.901,96.596 692.896,96.578 C692.893,96.563 692.889,96.547 692.884,96.531 C692.879,96.513 692.873,96.494 692.866,96.476 C692.861,96.461 692.856,96.447 692.851,96.433 C692.843,96.415 692.835,96.397 692.827,96.379 C692.821,96.365 692.814,96.351 692.807,96.337 C692.799,96.321 692.79,96.304 692.781,96.288 C692.772,96.273 692.764,96.259 692.755,96.245 C692.745,96.23 692.736,96.216 692.725,96.201 C692.715,96.187 692.705,96.173 692.694,96.159 C692.683,96.146 692.673,96.132 692.662,96.119 C692.658,96.115 692.654,96.11 692.65,96.105 L680.711,82.574 L680.711,77.117 C680.711,76.5 680.211,76 679.594,76 L650.406,76 C649.789,76 649.288,76.5 649.288,77.117 L649.288,82.574 L637.349,96.105 C637.345,96.109 637.342,96.114 637.338,96.119 C637.327,96.132 637.316,96.146 637.305,96.16 C637.295,96.173 637.285,96.187 637.275,96.201 C637.264,96.216 637.254,96.231 637.244,96.246 C637.236,96.26 637.227,96.273 637.22,96.287 C637.21,96.304 637.201,96.321 637.192,96.338 C637.185,96.351 637.179,96.365 637.173,96.378 C637.164,96.397 637.156,96.415 637.149,96.433 C637.143,96.447 637.139,96.461 637.134,96.475 C637.127,96.494 637.121,96.512 637.115,96.531 C637.111,96.547 637.107,96.562 637.103,96.578 C637.099,96.596 637.094,96.614 637.091,96.633 C637.087,96.652 637.084,96.671 637.082,96.691 C637.08,96.706 637.077,96.721 637.076,96.737 C637.072,96.772 637.07,96.808 637.07,96.844 L637.07,144.883 C637.07,145.5 637.57,146 638.187,146 L691.813,146 C692.43,146 692.93,145.5 692.93,144.883 L692.93,96.844 C692.929,96.808 692.928,96.772 692.924,96.737 Z M689.337,95.727 L669.851,95.727 L679.594,84.685 L689.337,95.727 Z M678.477,78.234 L678.477,81.88 L659.342,81.88 C658.725,81.88 658.225,82.38 658.225,82.997 C658.225,83.614 658.725,84.114 659.342,84.114 L677.119,84.114 L666.872,95.727 L640.662,95.727 L650.909,84.114 L654.874,84.114 C655.49,84.114 655.991,83.614 655.991,82.997 C655.991,82.38 655.49,81.88 654.874,81.88 L651.523,81.88 L651.523,78.234 L678.477,78.234 Z M639.304,106.897 L666.259,106.897 L666.259,134.83 L639.304,134.83 L639.304,106.897 Z M666.259,104.663 L639.304,104.663 L639.304,97.961 L666.259,97.961 L666.259,104.663 Z M639.304,137.064 L666.259,137.064 L666.259,143.766 L639.304,143.766 L639.304,137.064 Z M668.493,143.766 L668.493,97.961 L690.695,97.961 L690.695,104.663 L671.844,104.663 C671.227,104.663 670.727,105.163 670.727,105.78 C670.727,106.397 671.227,106.897 671.844,106.897 L690.695,106.897 L690.695,134.83 L671.844,134.83 C671.227,134.83 670.727,135.33 670.727,135.947 C670.727,136.564 671.227,137.064 671.844,137.064 L690.695,137.064 L690.695,143.766 L668.493,143.766 Z" />
            <path d="M659.16,118.409 L653.676,111.069 C653.465,110.787 653.134,110.621 652.781,110.621 C652.429,110.621 652.097,110.787 651.887,111.069 L646.401,118.41 C645.374,119.79 644.83,121.431 644.83,123.155 C644.83,127.54 648.397,131.106 652.781,131.106 C657.165,131.106 660.732,127.54 660.732,123.155 C660.732,121.431 660.189,119.79 659.16,118.409 Z M652.781,128.872 C649.629,128.872 647.064,126.308 647.064,123.155 C647.064,121.915 647.455,120.736 648.192,119.746 L652.781,113.604 L657.37,119.744 C658.108,120.736 658.498,121.915 658.498,123.155 C658.498,126.308 655.934,128.872 652.781,128.872 Z" />
        </g>
    </g>
</svg>