<?xml version="1.0" encoding="UTF-8"?>
<svg height="600" width="800" xmlns="http://www.w3.org/2000/svg" xmlns:xlink="http://www.w3.org/1999/xlink">
    <g id="Notes" font-family="'LucidaGrande', 'Lucida Grande', sans-serif" font-size="13">
        <rect fill="white" height="600.0" width="800.0" x="0.0" y="0.0" />
        <g font-size="13">
            <text x="18.0" y="176.0">Small</text>
            <text x="18.0" y="376.0">Medium</text>
            <text x="18.0" y="576.0">Large</text>
        </g>
        <g font-size="9">
            <text x="250.0" y="30.0">Ultralight</text>
            <text x="450.0" y="30.0">Regular</text>
            <text x="650.0" y="30.0">Black</text>
            <text id="template-version" fill="#505050" text-anchor="end" x="785.0" y="575.0">Template v.3.0</text>
            <a href="https://github.com/swhitty/SwiftDraw">
                <text fill="#505050" text-anchor="end" x="785.0" y="590.0">https://github.com/swhitty/SwiftDraw</text>
            </a>
        </g>
    </g>
    <g id="Guides" stroke="rgb(39, 170, 225)" stroke-width="0.5">
        <path id="Capline-S" d="M18,76 l800,0" />
        <path id="H-reference" d="M85,145.755 L87.685,145.755 L113.369,79.287 L114.052,79.287 L114.052,76 L112.148,76 L85,145.755 Z M95.693,121.536 L130.996,121.536 L130.263,119.313 L96.474,119.313 L95.693,121.536 Z M139.15,145.755 L141.787,145.755 L114.638,76 L113.466,76 L113.466,79.287 L139.15,145.755 Z" stroke="none" />
        <path id="Baseline-S" d="M18,146 l800,0" />
        <path id="left-margin-Ultralight-S" d="M220,56 l0,110" />
        <path id="right-margin-Ultralight-S" d="M310,56 l0,110" />
        <path id="left-margin-Regular-S" d="M420,56 l0,110" />
        <path id="right-margin-Regular-S" d="M510,56 l0,110" />
        <path id="left-margin-Black-S" d="M620,56 l0,110" />
        <path id="right-margin-Black-S" d="M710,56 l0,110" />
        <path id="Capline-M" d="M18,276 l800,0" />
        <path id="Baseline-M" d="M18,346 l800,0" />
        <path id="Capline-L" d="M18,476 l800,0" />
        <path id="Baseline-L" d="M18,546 l800,0" />
    </g>
    <g id="Symbols">
        <g id="Ultralight-S">
            <path d="M265,76 C245.701,76 230,91.701 230,111 C230,130.299 245.701,146 265,146 C284.299,146 300,130.299 300,111 C300,91.701 284.299,76 265,76 Z M264.173,119.624 C263.303,120.559 262.372,121.39 260.878,122.118 C259.383,122.847 257.498,123.211 255.216,123.211 C252.314,123.211 249.871,122.309 248.034,120.504 C246.197,118.7 245.206,116.358 245.206,113.478 L245.206,108.522 C245.206,105.653 246.164,103.313 247.93,101.504 C249.696,99.694 252.007,98.79 254.79,98.79 C257.681,98.79 259.914,99.493 261.452,100.901 C262.99,102.308 263.784,104.19 263.817,106.483 L263.794,106.613 L259.31,106.613 C259.223,105.245 258.821,104.323 258.104,103.59 C257.387,102.856 256.338,102.473 254.958,102.473 C253.501,102.473 252.368,103.027 251.477,104.151 C250.586,105.275 250.181,106.714 250.181,108.484 L250.181,113.468 C250.181,115.27 250.602,116.733 251.526,117.857 C252.45,118.981 253.674,119.543 255.239,119.543 C256.347,119.543 257.271,119.429 257.945,119.201 C258.618,118.974 258.95,118.692 259.509,118.356 L259.509,114.013 L255.094,114.013 L255.094,110.717 L264.173,110.717 L264.173,119.624 Z M284.757,102.757 L272.942,102.757 L272.942,109.349 L283.078,109.349 L283.078,112.894 L272.942,112.894 L272.942,122.781 L268.278,122.781 L268.278,99.212 L284.757,99.212 L284.757,102.757 Z" />
        </g>
        <g id="Regular-S">
            <path d="M465,76 C445.701,76 430,91.701 430,111 C430,130.299 445.701,146 465,146 C484.299,146 500,130.299 500,111 C500,91.701 484.299,76 465,76 Z M464.173,119.624 C463.303,120.559 462.372,121.39 460.878,122.118 C459.383,122.847 457.498,123.211 455.216,123.211 C452.314,123.211 449.871,122.309 448.034,120.504 C446.197,118.7 445.206,116.358 445.206,113.478 L445.206,108.522 C445.206,105.653 446.164,103.313 447.93,101.504 C449.696,99.694 452.007,98.79 454.79,98.79 C457.681,98.79 459.914,99.493 461.452,100.901 C462.99,102.308 463.784,104.19 463.817,106.483 L463.794,106.613 L459.31,106.613 C459.223,105.245 458.821,104.323 458.104,103.59 C457.387,102.856 456.338,102.473 454.958,102.473 C453.501,102.473 452.368,103.027 451.477,104.151 C450.586,105.275 450.181,106.714 450.181,108.484 L450.181,113.468 C450.181,115.27 450.602,116.733 451.526,117.857 C452.45,118.981 453.674,119.543 455.239,119.543 C456.347,119.543 457.271,119.429 457.945,119.201 C458.618,118.974 458.95,118.692 459.509,118.356 L459.509,114.013 L455.094,114.013 L455.094,110.717 L464.173,110.717 L464.173,119.624 Z M484.757,102.757 L472.942,102.757 L472.942,109.349 L483.078,109.349 L483.078,112.894 L472.942,112.894 L472.942,122.781 L468.278,122.781 L468.278,99.212 L484.757,99.212 L484.757,102.757 Z" />
        </g>
        <g id="Black-S">
            <path d="M665,76 C645.701,76 630,91.701 630,111 C630,130.299 645.701,146 665,146 C684.299,146 700,130.299 700,111 C700,91.701 684.299,76 665,76 Z M664.173,119.624 C663.303,120.559 662.372,121.39 660.878,122.118 C659.383,122.847 657.498,123.211 655.216,123.211 C652.314,123.211 649.871,122.309 648.034,120.504 C646.198,118.7 645.206,116.358 645.206,113.478 L645.206,108.522 C645.206,105.653 646.164,103.313 647.93,101.504 C649.696,99.694 652.007,98.79 654.79,98.79 C657.681,98.79 659.914,99.493 661.452,100.901 C662.99,102.308 663.784,104.19 663.817,106.483 L663.794,106.613 L659.31,106.613 C659.223,105.245 658.821,104.323 658.104,103.59 C657.387,102.856 656.338,102.473 654.958,102.473 C653.501,102.473 652.368,103.027 651.477,104.151 C650.586,105.275 650.181,106.714 650.181,108.484 L650.181,113.468 C650.181,115.27 650.602,116.733 651.526,117.857 C652.45,118.981 653.674,119.543 655.239,119.543 C656.347,119.543 657.271,119.429 657.945,119.201 C658.618,118.974 658.95,118.692 659.509,118.356 L659.509,114.013 L655.094,114.013 L655.094,110.717 L664.173,110.717 L664.173,119.624 Z M684.757,102.757 L672.942,102.757 L672.942,109.349 L683.078,109.349 L683.078,112.894 L672.942,112.894 L672.942,122.781 L668.278,122.781 L668.278,99.212 L684.757,99.212 L684.757,102.757 Z" />
        </g>
    </g>
</svg>